<svg width="280" height="273" viewBox="0 0 280 273" fill="none" xmlns="http://www.w3.org/2000/svg">
<g clip-path="url(#clip0_2062_159680)">
<path d="M177.756 61.3968H102.309C100.589 61.3989 98.9409 62.082 97.7252 63.2964C96.5094 64.5107 95.8255 66.1571 95.8234 67.8745V235.365L94.9587 235.628L76.4502 241.29C75.573 241.557 74.6256 241.465 73.8158 241.036C73.0061 240.606 72.4002 239.872 72.1312 238.997L17.0767 59.3715C16.8088 58.4953 16.9001 57.5487 17.3306 56.7398C17.7611 55.9308 18.4955 55.3257 19.3725 55.0573L47.8941 46.3341L130.579 21.054L159.101 12.3308C159.535 12.1973 159.991 12.1507 160.443 12.1936C160.895 12.2364 161.334 12.3679 161.736 12.5805C162.137 12.7931 162.492 13.0826 162.781 13.4325C163.07 13.7824 163.287 14.1857 163.42 14.6195L177.493 60.5331L177.756 61.3968Z" fill="#35383F"/>
<path d="M194.219 60.5331L177.258 5.19672C176.976 4.27472 176.514 3.41728 175.9 2.67342C175.286 1.92956 174.531 1.31385 173.679 0.86148C172.827 0.409106 171.893 0.128928 170.932 0.0369679C169.972 -0.0549926 169.002 0.0430663 168.079 0.325531L127.979 12.5856L45.2986 37.87L5.19897 50.1343C3.33615 50.7057 1.77639 51.992 0.862046 53.7108C-0.0522956 55.4297 -0.246515 57.4406 0.322028 59.3024L58.2904 248.419C58.7523 249.922 59.6842 251.238 60.9494 252.173C62.2146 253.108 63.7466 253.613 65.3204 253.615C66.0488 253.615 66.7731 253.506 67.469 253.291L94.9573 244.887L95.822 244.619V243.717L94.9573 243.98L67.214 252.466C65.5697 252.967 63.7938 252.795 62.2757 251.99C60.7576 251.184 59.6214 249.81 59.1162 248.169L1.1523 59.0476C0.902014 58.2344 0.814783 57.3799 0.895599 56.5329C0.976414 55.686 1.22368 54.8633 1.62326 54.112C2.02284 53.3607 2.56688 52.6955 3.22421 52.1545C3.88154 51.6134 4.63926 51.2073 5.45397 50.9592L45.5536 38.6948L128.235 13.4147L168.334 1.15036C168.952 0.96199 169.595 0.865943 170.241 0.865342C171.627 0.868452 172.977 1.31496 174.091 2.13946C175.205 2.96397 176.025 4.12314 176.432 5.4472L193.315 60.5331L193.583 61.3968H194.482L194.219 60.5331Z" fill="#35383F"/>
<path d="M53.0404 55.1985C52.2072 55.198 51.396 54.9306 50.7259 54.4358C50.0559 53.941 49.5622 53.2447 49.3174 52.4491L43.7487 34.2807C43.599 33.7927 43.5471 33.28 43.5959 32.7719C43.6446 32.2638 43.7931 31.7703 44.0328 31.3196C44.2726 30.8688 44.5989 30.4696 44.9931 30.1449C45.3873 29.8201 45.8417 29.576 46.3303 29.4267L122.396 6.16599C123.383 5.86522 124.449 5.9678 125.36 6.45121C126.271 6.93461 126.953 7.75934 127.256 8.7444L132.825 26.913C133.125 27.8986 133.023 28.9633 132.539 29.8733C132.055 30.7833 131.229 31.4644 130.243 31.7673L54.1772 55.028C53.8089 55.1409 53.4258 55.1984 53.0404 55.1985Z" fill="url(#paint0_linear_2062_159680)"/>
<path d="M82.2113 19.4134C86.9868 19.4134 90.8581 15.5465 90.8581 10.7765C90.8581 6.00649 86.9868 2.13963 82.2113 2.13963C77.4358 2.13963 73.5645 6.00649 73.5645 10.7765C73.5645 15.5465 77.4358 19.4134 82.2113 19.4134Z" fill="url(#paint1_linear_2062_159680)"/>
<path d="M82.2118 16.2456C85.2358 16.2456 87.6872 13.797 87.6872 10.7765C87.6872 7.75599 85.2358 5.30737 82.2118 5.30737C79.1878 5.30737 76.7363 7.75599 76.7363 10.7765C76.7363 13.797 79.1878 16.2456 82.2118 16.2456Z" fill="#35383F"/>
<path d="M260.545 251.408H114.413C113.439 251.407 112.505 251.02 111.816 250.331C111.127 249.643 110.739 248.71 110.738 247.737V72.8407C110.739 71.8675 111.127 70.9345 111.816 70.2463C112.505 69.5582 113.439 69.1711 114.413 69.17H260.545C261.519 69.1711 262.453 69.5582 263.142 70.2463C263.831 70.9345 264.218 71.8675 264.219 72.8407V247.737C264.218 248.71 263.831 249.643 263.142 250.331C262.453 251.02 261.519 251.407 260.545 251.408Z" fill="#35383F"/>
<path d="M193.315 60.5331H102.307C100.358 60.5359 98.4905 61.3102 97.1128 62.6864C95.735 64.0626 94.9598 65.9283 94.957 67.8745V243.98L95.8217 243.717V67.8745C95.8238 66.1571 96.5077 64.5107 97.7235 63.2964C98.9392 62.082 100.588 61.3989 102.307 61.3968H193.583L193.315 60.5331ZM272.649 60.5331H102.307C100.358 60.5359 98.4905 61.3102 97.1128 62.6864C95.735 64.0626 94.9598 65.9283 94.957 67.8745V265.659C94.9598 267.605 95.735 269.471 97.1128 270.847C98.4905 272.223 100.358 272.997 102.307 273H272.649C274.598 272.997 276.466 272.223 277.843 270.847C279.221 269.471 279.996 267.605 279.999 265.659V67.8745C279.996 65.9283 279.221 64.0626 277.843 62.6864C276.466 61.3102 274.598 60.5359 272.649 60.5331ZM279.134 265.659C279.132 267.376 278.448 269.022 277.233 270.237C276.017 271.451 274.369 272.134 272.649 272.136H102.307C100.588 272.134 98.9392 271.451 97.7235 270.237C96.5077 269.022 95.8238 267.376 95.8217 265.659V67.8745C95.8238 66.1571 96.5077 64.5107 97.7235 63.2964C98.9392 62.082 100.588 61.3989 102.307 61.3968H272.649C274.369 61.3989 276.017 62.082 277.233 63.2964C278.448 64.5107 279.132 66.1571 279.134 67.8745V265.659Z" fill="#35383F"/>
<path d="M227.254 79.5342H147.704C146.672 79.5331 145.683 79.1232 144.953 78.3946C144.224 77.666 143.814 76.6781 143.812 75.6476V56.6465C143.814 55.6161 144.224 54.6282 144.953 53.8996C145.683 53.1709 146.672 52.7611 147.704 52.7599H227.254C228.286 52.7611 229.275 53.1709 230.005 53.8996C230.734 54.6282 231.144 55.6161 231.145 56.6465V75.6476C231.144 76.6781 230.734 77.666 230.005 78.3946C229.275 79.1232 228.286 79.5331 227.254 79.5342Z" fill="url(#paint2_linear_2062_159680)"/>
<path d="M187.479 54.0555C192.254 54.0555 196.126 50.1886 196.126 45.4186C196.126 40.6486 192.254 36.7817 187.479 36.7817C182.703 36.7817 178.832 40.6486 178.832 45.4186C178.832 50.1886 182.703 54.0555 187.479 54.0555Z" fill="url(#paint3_linear_2062_159680)"/>
<path d="M187.48 50.6793C190.388 50.6793 192.746 48.324 192.746 45.4186C192.746 42.5132 190.388 40.1579 187.48 40.1579C184.571 40.1579 182.213 42.5132 182.213 45.4186C182.213 48.324 184.571 50.6793 187.48 50.6793Z" fill="#35383F"/>
</g>
<defs>
<linearGradient id="paint0_linear_2062_159680" x1="132.994" y1="55.1985" x2="42.7173" y2="7.63029" gradientUnits="userSpaceOnUse">
<stop stop-color="#12D18E"/>
<stop offset="1" stop-color="#71E3BB"/>
</linearGradient>
<linearGradient id="paint1_linear_2062_159680" x1="90.8581" y1="19.4134" x2="70.2839" y2="13.4412" gradientUnits="userSpaceOnUse">
<stop stop-color="#12D18E"/>
<stop offset="1" stop-color="#71E3BB"/>
</linearGradient>
<linearGradient id="paint2_linear_2062_159680" x1="231.145" y1="79.5342" x2="171.679" y2="23.2946" gradientUnits="userSpaceOnUse">
<stop stop-color="#12D18E"/>
<stop offset="1" stop-color="#71E3BB"/>
</linearGradient>
<linearGradient id="paint3_linear_2062_159680" x1="196.126" y1="54.0555" x2="175.551" y2="48.0833" gradientUnits="userSpaceOnUse">
<stop stop-color="#12D18E"/>
<stop offset="1" stop-color="#71E3BB"/>
</linearGradient>
<clipPath id="clip0_2062_159680">
<rect width="280" height="273" fill="white"/>
</clipPath>
</defs>
</svg>
