<svg width="16" height="14" viewBox="0 0 16 14" fill="none" xmlns="http://www.w3.org/2000/svg">
<path d="M6.60997 10.8269H1.35938" stroke="#12D18E" stroke-width="1.5" stroke-linecap="round" stroke-linejoin="round"/>
<path d="M8.95117 2.75072H14.2018" stroke="#12D18E" stroke-width="1.5" stroke-linecap="round" stroke-linejoin="round"/>
<path fill-rule="evenodd" clip-rule="evenodd" d="M5.27256 2.70521C5.27256 1.6255 4.39076 0.75 3.30327 0.75C2.21578 0.75 1.33398 1.6255 1.33398 2.70521C1.33398 3.78492 2.21578 4.66042 3.30327 4.66042C4.39076 4.66042 5.27256 3.78492 5.27256 2.70521Z" stroke="#12D18E" stroke-width="1.5" stroke-linecap="round" stroke-linejoin="round"/>
<path fill-rule="evenodd" clip-rule="evenodd" d="M14.6671 10.7951C14.6671 9.71534 13.786 8.83984 12.6985 8.83984C11.6103 8.83984 10.7285 9.71534 10.7285 10.7951C10.7285 11.8748 11.6103 12.7503 12.6985 12.7503C13.786 12.7503 14.6671 11.8748 14.6671 10.7951Z" stroke="#12D18E" stroke-width="1.5" stroke-linecap="round" stroke-linejoin="round"/>
</svg>
