<svg width="20" height="17" viewBox="0 0 20 17" fill="none" xmlns="http://www.w3.org/2000/svg">
<path d="M19.333 8.32007C19.333 8.76305 19.0038 9.12914 18.5767 9.18708L18.458 9.19507L0.958006 9.19507C0.474758 9.19507 0.0830059 8.80332 0.0830059 8.32007C0.0830059 7.87709 0.412186 7.511 0.839275 7.45306L0.958006 7.44507L18.458 7.44507C18.9413 7.44507 19.333 7.83682 19.333 8.32007Z" fill="#212121"/>
<path d="M8.63399 14.7284C8.97643 15.0694 8.97762 15.6234 8.63665 15.9658C8.32668 16.2771 7.84063 16.3064 7.49754 16.053L7.39922 15.9685L0.340883 8.94048C0.0286398 8.62958 0.000235558 8.14178 0.255682 7.79869L0.340832 7.70043L7.39917 0.671262C7.74158 0.330261 8.2956 0.331408 8.6366 0.673824C8.9466 0.985111 8.97383 1.47128 8.71896 1.8133L8.63404 1.91126L2.19867 8.32078L8.63399 14.7284Z" fill="#212121"/>
</svg>
