<svg width="132" height="113" viewBox="0 0 132 113" fill="none" xmlns="http://www.w3.org/2000/svg">
<path fill-rule="evenodd" clip-rule="evenodd" d="M108.44 112.109C109.615 113.284 111.507 113.299 112.666 112.141C138.051 86.7625 137.735 45.301 111.962 19.5337C86.1888 -6.23358 44.7176 -6.54895 19.3336 18.8292C-6.05044 44.2075 -5.73505 85.6691 20.0381 111.436C21.2143 112.612 23.1065 112.627 24.2648 111.468C25.4232 110.311 25.4087 108.419 24.2328 107.243C0.811629 83.827 0.52503 46.1493 23.5923 23.0872C46.6599 0.0249163 84.3463 0.311471 107.768 23.7272C131.188 47.1429 131.476 84.8209 108.407 107.883C107.25 109.041 107.264 110.933 108.44 112.109ZM101.315 104.984C102.49 106.16 104.382 106.175 105.541 105.016C127.048 83.5134 126.781 48.3831 104.944 26.5504C83.106 4.71771 47.9674 4.45049 26.4595 25.9535C4.95145 47.4565 5.21886 82.5871 27.0564 104.42C28.2326 105.595 30.125 105.61 31.2831 104.452C32.4414 103.294 32.4272 101.402 31.251 100.226C11.7655 80.745 11.5269 49.3984 30.7183 30.2113C49.9097 11.0245 81.2635 11.2629 100.748 30.7439C120.234 50.2252 120.473 81.5718 101.282 100.759C100.123 101.917 100.137 103.809 101.315 104.984ZM98.4147 97.8923C97.2563 99.0502 95.3641 99.0358 94.188 97.8602C93.0118 96.6844 92.9975 94.7924 94.1559 93.6343C109.47 78.3227 109.281 53.3072 93.7307 37.7608C78.1806 22.2143 53.1595 22.0239 37.8443 37.3357C22.5291 52.6474 22.7194 77.663 38.2693 93.2093C39.4454 94.3851 39.4599 96.2771 38.3016 97.435C37.1432 98.5931 35.2508 98.5787 34.0749 97.4028C16.1728 79.5049 15.9536 50.7056 33.5855 33.0778C51.2172 15.4501 80.0231 15.6691 97.9253 33.5671C115.827 51.4651 116.048 80.2644 98.4147 97.8923ZM87.062 90.7358C88.2382 91.9117 90.1303 91.9259 91.2887 90.768C105.045 77.0153 104.874 54.5473 90.907 40.5838C76.9403 26.6205 54.467 26.4495 40.7112 40.2022C26.9557 53.9546 27.1266 76.4229 41.0931 90.3861C42.2693 91.562 44.1615 91.5764 45.3198 90.4183C46.4782 89.2602 46.4637 87.3684 45.2878 86.1926C33.6733 74.5807 33.5312 55.8965 44.9703 44.46C56.4093 33.0236 75.098 33.1657 86.7124 44.7776C98.3269 56.3892 98.469 75.0735 87.0299 86.5099C85.8716 87.668 85.8861 89.56 87.062 90.7358Z" fill="#12D18E"/>
</svg>
