<svg width="210" height="498" viewBox="0 0 210 498" fill="none" xmlns="http://www.w3.org/2000/svg">
<path fill-rule="evenodd" clip-rule="evenodd" d="M173.033 399.572C174.918 401.456 177.951 401.479 179.809 399.624C220.501 358.974 219.995 292.562 178.679 251.288C137.364 210.015 70.8832 209.51 30.1912 250.16C-10.5007 290.81 -9.99511 357.222 31.3207 398.495C33.2061 400.379 36.2394 400.402 38.0963 398.547C39.9532 396.692 39.9299 393.662 38.0449 391.778C0.499558 354.272 0.0401242 293.921 37.0183 256.98C73.9968 220.04 134.41 220.499 171.956 258.006C209.5 295.512 209.961 355.864 172.981 392.804C171.127 394.659 171.149 397.689 173.033 399.572ZM161.611 388.161C163.496 390.044 166.528 390.067 168.386 388.212C202.863 353.769 202.435 297.499 167.429 262.528C132.422 227.557 76.0928 227.129 41.6145 261.572C7.13591 296.014 7.56458 352.286 42.5713 387.256C44.4568 389.139 47.4904 389.163 49.3469 387.308C51.2038 385.453 51.181 382.422 49.2955 380.539C18.0592 349.335 17.6767 299.125 48.4416 268.392C79.2064 237.659 129.468 238.041 160.703 269.245C191.94 300.449 192.323 350.659 161.559 381.392C159.701 383.247 159.723 386.278 161.611 388.161ZM156.962 376.801C155.106 378.656 152.072 378.633 150.187 376.749C148.301 374.866 148.279 371.836 150.135 369.981C174.685 345.455 174.381 305.386 149.454 280.484C124.526 255.582 84.416 255.277 59.8649 279.803C35.3137 304.329 35.6189 344.398 60.5462 369.3C62.4316 371.183 62.4549 374.214 60.5979 376.068C58.741 377.923 55.7074 377.9 53.8224 376.017C25.1243 347.349 24.7729 301.219 53.0378 272.983C81.3024 244.748 127.48 245.098 156.178 273.767C184.876 302.435 185.229 348.565 156.962 376.801ZM138.764 365.338C140.649 367.221 143.682 367.244 145.539 365.389C167.591 343.361 167.317 307.372 144.927 285.006C122.538 262.64 86.512 262.366 64.4608 284.395C42.4099 306.423 42.6839 342.412 65.073 364.778C66.9584 366.661 69.9917 366.684 71.8486 364.829C73.7055 362.974 73.6822 359.944 71.7972 358.061C53.1786 339.461 52.9508 309.533 71.2882 291.215C89.6256 272.896 119.585 273.124 138.203 291.723C156.822 310.323 157.05 340.25 138.712 358.569C136.855 360.424 136.878 363.455 138.764 365.338Z" fill="#12D18E"/>
<path d="M45.7601 476.624C43.4881 476.624 41.3521 476.176 39.3521 475.28C37.3521 474.368 35.5921 473.112 34.0721 471.512C32.5681 469.912 31.3841 468.064 30.5201 465.968C29.6721 463.856 29.2481 461.6 29.2481 459.2C29.2481 456.784 29.6721 454.528 30.5201 452.432C31.3841 450.32 32.5681 448.472 34.0721 446.888C35.5921 445.288 37.3521 444.04 39.3521 443.144C41.3521 442.232 43.4881 441.776 45.7601 441.776C48.4801 441.776 50.9841 442.408 53.2721 443.672C55.5601 444.92 57.4561 446.592 58.9601 448.688L53.7281 451.496C52.7841 450.328 51.6081 449.392 50.2001 448.688C48.8081 447.984 47.3281 447.632 45.7601 447.632C44.2881 447.632 42.9041 447.936 41.6081 448.544C40.3121 449.136 39.1761 449.968 38.2001 451.04C37.2241 452.096 36.4641 453.328 35.9201 454.736C35.3761 456.128 35.1041 457.616 35.1041 459.2C35.1041 460.8 35.3761 462.296 35.9201 463.688C36.4801 465.08 37.2481 466.312 38.2241 467.384C39.2001 468.44 40.3281 469.272 41.6081 469.88C42.9041 470.472 44.2881 470.768 45.7601 470.768C47.3601 470.768 48.8481 470.416 50.2241 469.712C51.6161 468.992 52.7841 468.048 53.7281 466.88L58.9601 469.712C57.4561 471.792 55.5601 473.464 53.2721 474.728C50.9841 475.992 48.4801 476.624 45.7601 476.624ZM63.3259 476L63.3019 452H69.1579L69.1819 454.136C69.9979 453.272 70.9739 452.592 72.1099 452.096C73.2459 451.584 74.4699 451.328 75.7819 451.328C76.6619 451.328 77.5419 451.456 78.4219 451.712L76.1179 457.616C75.5099 457.376 74.9019 457.256 74.2939 457.256C73.3499 457.256 72.4859 457.488 71.7019 457.952C70.9339 458.4 70.3179 459.016 69.8539 459.8C69.4059 460.568 69.1819 461.424 69.1819 462.368V476H63.3259ZM90.5494 476.624C88.3414 476.624 86.3254 476.056 84.5014 474.92C82.6934 473.784 81.2454 472.264 80.1574 470.36C79.0854 468.44 78.5494 466.32 78.5494 464C78.5494 462.24 78.8614 460.6 79.4854 459.08C80.1094 457.544 80.9654 456.2 82.0534 455.048C83.1574 453.88 84.4374 452.968 85.8934 452.312C87.3494 451.656 88.9014 451.328 90.5494 451.328C92.7574 451.328 94.7654 451.896 96.5734 453.032C98.3974 454.168 99.8454 455.696 100.917 457.616C102.005 459.536 102.549 461.664 102.549 464C102.549 465.744 102.237 467.376 101.613 468.896C100.989 470.416 100.125 471.76 99.0214 472.928C97.9334 474.08 96.6614 474.984 95.2054 475.64C93.7654 476.296 92.2134 476.624 90.5494 476.624ZM90.5494 470.768C91.7174 470.768 92.7654 470.456 93.6934 469.832C94.6214 469.208 95.3494 468.384 95.8774 467.36C96.4214 466.336 96.6934 465.216 96.6934 464C96.6934 462.752 96.4134 461.616 95.8534 460.592C95.3094 459.552 94.5654 458.728 93.6214 458.12C92.6934 457.496 91.6694 457.184 90.5494 457.184C89.3974 457.184 88.3574 457.496 87.4294 458.12C86.5014 458.744 85.7654 459.576 85.2214 460.616C84.6774 461.656 84.4054 462.784 84.4054 464C84.4054 465.264 84.6854 466.408 85.2454 467.432C85.8054 468.456 86.5494 469.272 87.4774 469.88C88.4214 470.472 89.4454 470.768 90.5494 470.768ZM128.27 460.832V476H122.414V462.368C122.414 461.424 122.182 460.568 121.718 459.8C121.254 459.016 120.63 458.4 119.846 457.952C119.078 457.488 118.222 457.256 117.278 457.256C116.334 457.256 115.47 457.488 114.686 457.952C113.918 458.4 113.302 459.016 112.838 459.8C112.39 460.568 112.166 461.424 112.166 462.368V476H106.31L106.286 452H112.142L112.166 454.136C112.982 453.272 113.958 452.592 115.094 452.096C116.23 451.584 117.454 451.328 118.766 451.328C120.51 451.328 122.102 451.76 123.542 452.624C124.982 453.472 126.126 454.616 126.974 456.056C127.838 457.48 128.27 459.072 128.27 460.832ZM143.143 476.624C140.935 476.624 138.919 476.056 137.095 474.92C135.287 473.784 133.839 472.256 132.751 470.336C131.679 468.416 131.143 466.296 131.143 463.976C131.143 462.232 131.455 460.6 132.079 459.08C132.703 457.544 133.559 456.2 134.647 455.048C135.751 453.88 137.031 452.968 138.487 452.312C139.943 451.656 141.495 451.328 143.143 451.328C145.015 451.328 146.727 451.728 148.279 452.528C149.847 453.312 151.175 454.392 152.263 455.768C153.351 457.144 154.143 458.712 154.639 460.472C155.135 462.232 155.247 464.072 154.975 465.992H137.431C137.655 466.888 138.023 467.696 138.535 468.416C139.047 469.12 139.695 469.688 140.479 470.12C141.263 470.536 142.151 470.752 143.143 470.768C144.167 470.784 145.095 470.544 145.927 470.048C146.775 469.536 147.479 468.848 148.039 467.984L154.015 469.376C153.039 471.504 151.583 473.248 149.647 474.608C147.711 475.952 145.543 476.624 143.143 476.624ZM137.239 461.6H149.047C148.871 460.64 148.495 459.776 147.919 459.008C147.359 458.224 146.663 457.6 145.831 457.136C144.999 456.672 144.103 456.44 143.143 456.44C142.183 456.44 141.295 456.672 140.479 457.136C139.663 457.584 138.967 458.2 138.391 458.984C137.831 459.752 137.447 460.624 137.239 461.6ZM155.951 476L164.735 463.952L156.023 451.976H163.247L168.335 458.96L173.447 451.976H180.671L171.959 463.952L180.743 476H173.519L168.335 468.896L163.175 476H155.951Z" fill="white"/>
</svg>
