<svg width="210" height="279" viewBox="0 0 210 279" fill="none" xmlns="http://www.w3.org/2000/svg">
<path fill-rule="evenodd" clip-rule="evenodd" d="M173.033 180.072C174.918 181.956 177.951 181.979 179.809 180.124C220.501 139.474 219.995 73.0619 178.679 31.7885C137.364 -9.48476 70.8832 -9.98991 30.1912 30.66C-10.5007 71.3102 -9.99511 137.722 31.3207 178.995C33.2061 180.879 36.2394 180.902 38.0963 179.047C39.9532 177.192 39.9299 174.162 38.0449 172.278C0.499558 134.772 0.0401242 74.4206 37.0183 37.4804C73.9968 0.53991 134.41 0.998905 171.956 38.5055C209.5 76.0121 209.961 136.364 172.981 173.304C171.127 175.159 171.149 178.189 173.033 180.072ZM161.611 168.661C163.496 170.544 166.528 170.567 168.386 168.712C202.863 134.269 202.435 77.9985 167.429 43.0276C132.422 8.05668 76.0928 7.62865 41.6145 42.0715C7.13591 76.5144 7.56458 132.786 42.5713 167.756C44.4568 169.639 47.4904 169.663 49.3469 167.808C51.2038 165.953 51.181 162.922 49.2955 161.039C18.0592 129.835 17.6767 79.6248 48.4416 48.8916C79.2064 18.1588 129.468 18.5405 160.703 49.7447C191.94 80.9492 192.323 131.159 161.559 161.892C159.701 163.747 159.723 166.778 161.611 168.661ZM156.962 157.301C155.106 159.156 152.072 159.133 150.187 157.249C148.301 155.366 148.279 152.336 150.135 150.481C174.685 125.955 174.381 85.8858 149.454 60.9842C124.526 36.0821 84.416 35.7773 59.8649 60.3032C35.3137 84.829 35.6189 124.898 60.5462 149.8C62.4316 151.683 62.4549 154.714 60.5979 156.568C58.741 158.423 55.7074 158.4 53.8224 156.517C25.1243 127.849 24.7729 81.7187 53.0378 53.4831C81.3024 25.2475 127.48 25.5983 156.178 54.2667C184.876 82.9352 185.229 129.065 156.962 157.301ZM138.764 145.838C140.649 147.721 143.682 147.744 145.539 145.889C167.591 123.861 167.317 87.8722 144.927 65.5059C122.538 43.1399 86.512 42.866 64.4608 64.8946C42.4099 86.9229 42.6839 122.912 65.073 145.278C66.9584 147.161 69.9917 147.184 71.8486 145.329C73.7055 143.474 73.6822 140.444 71.7972 138.561C53.1786 119.961 52.9508 90.0333 71.2882 71.7147C89.6256 53.3961 119.585 53.6238 138.203 72.2233C156.822 90.8225 157.05 120.75 138.712 139.069C136.855 140.924 136.878 143.955 138.764 145.838Z" fill="#12D18E"/>
<path d="M45.7601 257.124C43.4881 257.124 41.3521 256.676 39.3521 255.78C37.3521 254.868 35.5921 253.612 34.0721 252.012C32.5681 250.412 31.3841 248.564 30.5201 246.468C29.6721 244.356 29.2481 242.1 29.2481 239.7C29.2481 237.284 29.6721 235.028 30.5201 232.932C31.3841 230.82 32.5681 228.972 34.0721 227.388C35.5921 225.788 37.3521 224.54 39.3521 223.644C41.3521 222.732 43.4881 222.276 45.7601 222.276C48.4801 222.276 50.9841 222.908 53.2721 224.172C55.5601 225.42 57.4561 227.092 58.9601 229.188L53.7281 231.996C52.7841 230.828 51.6081 229.892 50.2001 229.188C48.8081 228.484 47.3281 228.132 45.7601 228.132C44.2881 228.132 42.9041 228.436 41.6081 229.044C40.3121 229.636 39.1761 230.468 38.2001 231.54C37.2241 232.596 36.4641 233.828 35.9201 235.236C35.3761 236.628 35.1041 238.116 35.1041 239.7C35.1041 241.3 35.3761 242.796 35.9201 244.188C36.4801 245.58 37.2481 246.812 38.2241 247.884C39.2001 248.94 40.3281 249.772 41.6081 250.38C42.9041 250.972 44.2881 251.268 45.7601 251.268C47.3601 251.268 48.8481 250.916 50.2241 250.212C51.6161 249.492 52.7841 248.548 53.7281 247.38L58.9601 250.212C57.4561 252.292 55.5601 253.964 53.2721 255.228C50.9841 256.492 48.4801 257.124 45.7601 257.124ZM63.3259 256.5L63.3019 232.5H69.1579L69.1819 234.636C69.9979 233.772 70.9739 233.092 72.1099 232.596C73.2459 232.084 74.4699 231.828 75.7819 231.828C76.6619 231.828 77.5419 231.956 78.4219 232.212L76.1179 238.116C75.5099 237.876 74.9019 237.756 74.2939 237.756C73.3499 237.756 72.4859 237.988 71.7019 238.452C70.9339 238.9 70.3179 239.516 69.8539 240.3C69.4059 241.068 69.1819 241.924 69.1819 242.868V256.5H63.3259ZM90.5494 257.124C88.3414 257.124 86.3254 256.556 84.5014 255.42C82.6934 254.284 81.2454 252.764 80.1574 250.86C79.0854 248.94 78.5494 246.82 78.5494 244.5C78.5494 242.74 78.8614 241.1 79.4854 239.58C80.1094 238.044 80.9654 236.7 82.0534 235.548C83.1574 234.38 84.4374 233.468 85.8934 232.812C87.3494 232.156 88.9014 231.828 90.5494 231.828C92.7574 231.828 94.7654 232.396 96.5734 233.532C98.3974 234.668 99.8454 236.196 100.917 238.116C102.005 240.036 102.549 242.164 102.549 244.5C102.549 246.244 102.237 247.876 101.613 249.396C100.989 250.916 100.125 252.26 99.0214 253.428C97.9334 254.58 96.6614 255.484 95.2054 256.14C93.7654 256.796 92.2134 257.124 90.5494 257.124ZM90.5494 251.268C91.7174 251.268 92.7654 250.956 93.6934 250.332C94.6214 249.708 95.3494 248.884 95.8774 247.86C96.4214 246.836 96.6934 245.716 96.6934 244.5C96.6934 243.252 96.4134 242.116 95.8534 241.092C95.3094 240.052 94.5654 239.228 93.6214 238.62C92.6934 237.996 91.6694 237.684 90.5494 237.684C89.3974 237.684 88.3574 237.996 87.4294 238.62C86.5014 239.244 85.7654 240.076 85.2214 241.116C84.6774 242.156 84.4054 243.284 84.4054 244.5C84.4054 245.764 84.6854 246.908 85.2454 247.932C85.8054 248.956 86.5494 249.772 87.4774 250.38C88.4214 250.972 89.4454 251.268 90.5494 251.268ZM128.27 241.332V256.5H122.414V242.868C122.414 241.924 122.182 241.068 121.718 240.3C121.254 239.516 120.63 238.9 119.846 238.452C119.078 237.988 118.222 237.756 117.278 237.756C116.334 237.756 115.47 237.988 114.686 238.452C113.918 238.9 113.302 239.516 112.838 240.3C112.39 241.068 112.166 241.924 112.166 242.868V256.5H106.31L106.286 232.5H112.142L112.166 234.636C112.982 233.772 113.958 233.092 115.094 232.596C116.23 232.084 117.454 231.828 118.766 231.828C120.51 231.828 122.102 232.26 123.542 233.124C124.982 233.972 126.126 235.116 126.974 236.556C127.838 237.98 128.27 239.572 128.27 241.332ZM143.143 257.124C140.935 257.124 138.919 256.556 137.095 255.42C135.287 254.284 133.839 252.756 132.751 250.836C131.679 248.916 131.143 246.796 131.143 244.476C131.143 242.732 131.455 241.1 132.079 239.58C132.703 238.044 133.559 236.7 134.647 235.548C135.751 234.38 137.031 233.468 138.487 232.812C139.943 232.156 141.495 231.828 143.143 231.828C145.015 231.828 146.727 232.228 148.279 233.028C149.847 233.812 151.175 234.892 152.263 236.268C153.351 237.644 154.143 239.212 154.639 240.972C155.135 242.732 155.247 244.572 154.975 246.492H137.431C137.655 247.388 138.023 248.196 138.535 248.916C139.047 249.62 139.695 250.188 140.479 250.62C141.263 251.036 142.151 251.252 143.143 251.268C144.167 251.284 145.095 251.044 145.927 250.548C146.775 250.036 147.479 249.348 148.039 248.484L154.015 249.876C153.039 252.004 151.583 253.748 149.647 255.108C147.711 256.452 145.543 257.124 143.143 257.124ZM137.239 242.1H149.047C148.871 241.14 148.495 240.276 147.919 239.508C147.359 238.724 146.663 238.1 145.831 237.636C144.999 237.172 144.103 236.94 143.143 236.94C142.183 236.94 141.295 237.172 140.479 237.636C139.663 238.084 138.967 238.7 138.391 239.484C137.831 240.252 137.447 241.124 137.239 242.1ZM155.951 256.5L164.735 244.452L156.023 232.476H163.247L168.335 239.46L173.447 232.476H180.671L171.959 244.452L180.743 256.5H173.519L168.335 249.396L163.175 256.5H155.951Z" fill="#212121"/>
</svg>
