<svg width="320" height="363" viewBox="0 0 320 363" fill="none" xmlns="http://www.w3.org/2000/svg">
<g clip-path="url(#clip0_1928_21261)">
<path d="M155.428 241.371C154.908 241.997 154.207 242.448 153.422 242.663C152.636 242.878 151.804 242.846 151.037 242.572C150.27 242.299 149.606 241.796 149.135 241.132C148.664 240.468 148.408 239.676 148.402 238.862C148.175 238.52 148.013 238.275 147.786 237.933C145.8 237.176 143.633 237.029 141.564 237.512C139.494 237.994 137.615 239.083 136.169 240.639C134.722 242.195 133.774 244.148 133.445 246.246C133.115 248.345 133.421 250.493 134.322 252.417C139.292 263.312 143.617 275.491 154.625 281.424C109.803 267.648 75.4024 227.099 68.5232 180.835C70.7025 171.766 69.2539 161.485 63.5511 153.956C61.8386 157.867 56.0087 159.377 54.9088 154.261C54.5934 152.191 54.2962 150.119 53.9807 148.049C31.5329 148.379 38.206 179.223 65.9259 181.603C67.325 190.362 69.6363 198.95 72.8221 207.228C67.2143 200.877 60.178 195.948 52.2921 192.845C44.7769 190.135 36.3203 190.185 28.2032 189.619C18.3218 188.919 12.459 200.668 19.1931 207.921C24.3867 204.99 30.9313 209.957 27.3925 215.499C42.0991 226.603 62.641 229.104 79.7147 222.326C88.2514 238.352 100.108 252.376 114.493 263.462C96.8937 251.368 77.7984 264.686 60.8893 270.749C59.7298 271.059 58.6857 271.7 57.8842 272.593C57.0827 273.486 56.5586 274.592 56.3757 275.778C56.1929 276.964 56.3592 278.177 56.8544 279.27C57.3496 280.362 58.1523 281.287 59.1646 281.932C61.299 280.914 63.5294 280.11 65.8229 279.532C66.9047 279.268 68.0417 279.344 69.0782 279.751C70.1147 280.158 70.9999 280.876 71.6124 281.805C72.2249 282.735 72.5348 283.831 72.4995 284.944C72.4643 286.056 72.0857 287.13 71.4156 288.019C91.4415 295.444 115.206 289.118 129.465 273.374C137.398 277.841 145.774 281.471 154.458 284.207L175.703 260.914C175.52 260.594 175.322 260.276 175.131 259.965C173.3 262.244 171.197 264.291 168.868 266.06C167.314 254.199 167.89 246.646 155.429 241.371L155.428 241.371Z" fill="#F2F2F2"/>
<path d="M205.729 268.743C206.447 269.126 207.266 269.28 208.075 269.183C208.883 269.086 209.642 268.743 210.249 268.2C210.856 267.657 211.281 266.941 211.467 266.149C211.653 265.357 211.591 264.526 211.289 263.77C211.37 263.368 211.428 263.079 211.509 262.677C213.063 261.228 215.014 260.275 217.113 259.941C219.212 259.608 221.363 259.908 223.289 260.804C225.216 261.7 226.832 263.15 227.929 264.97C229.025 266.789 229.553 268.895 229.445 271.016C228.953 282.98 229.545 295.889 221.589 305.534C257.901 275.877 274.457 225.355 263.368 179.915C257.927 172.337 255.389 162.27 257.829 153.147C260.891 156.124 266.86 155.324 265.948 150.171C265.458 148.135 264.952 146.104 264.463 144.068C285.377 135.911 290.838 166.992 266.063 179.647C268.073 188.286 269.174 197.112 269.348 205.979C272.144 197.983 276.8 190.765 282.933 184.919C288.87 179.576 296.721 176.434 304.025 172.849C312.912 168.476 322.776 177.146 319.276 186.402C313.36 185.646 309.174 192.713 314.543 196.512C305.113 212.34 287.032 222.4 268.662 222.56C266.804 240.621 261.116 258.078 251.977 273.769C263.713 255.934 286.423 261.069 304.372 260.309C305.562 260.159 306.771 260.359 307.851 260.883C308.93 261.408 309.833 262.236 310.45 263.265C311.067 264.294 311.37 265.48 311.324 266.679C311.278 267.878 310.884 269.037 310.189 270.016C307.828 269.877 305.459 269.973 303.117 270.303C302.016 270.466 300.991 270.966 300.185 271.734C299.379 272.501 298.83 273.5 298.613 274.591C298.397 275.683 298.524 276.815 298.976 277.832C299.428 278.849 300.185 279.701 301.141 280.272C285.396 294.698 260.999 297.799 241.852 288.594C236.191 295.721 229.804 302.241 222.794 308.048L194.327 294.486C194.376 294.121 194.44 293.751 194.499 293.391C197.055 294.812 199.775 295.915 202.599 296.675C199.562 285.104 196.178 278.327 205.728 268.743H205.729Z" fill="#F2F2F2"/>
<path d="M231.349 362.985H190.688L183.869 329.289L181.658 362.985H143.887C143.901 336.523 145.28 310.08 148.019 283.76L148.487 282.167L149.226 279.617L149.694 278.016L157.511 251.19L158.128 249.061H205.194C207.902 251.603 210.401 254.361 212.664 257.307C213.431 258.283 214.231 259.341 215.052 260.48C215.622 261.287 216.212 262.135 216.803 263.023C222.047 270.826 225.967 279.441 228.405 288.521V288.527C228.819 290.08 229.185 291.669 229.504 293.294V293.301C229.789 294.746 230.04 296.21 230.237 297.709C230.386 298.801 230.515 299.906 230.61 301.025C231.175 307.224 230.977 313.469 230.019 319.619L231.349 362.985Z" fill="#2F2E41"/>
<path d="M41.9258 195.844C43.2026 194.345 42.4897 191.642 40.3335 189.808C38.1773 187.974 35.3943 187.702 34.1175 189.201C32.8407 190.7 33.5536 193.403 35.7098 195.237C37.866 197.071 40.649 197.343 41.9258 195.844Z" fill="#E6E6E6"/>
<path d="M52.1596 187.919C53.4947 186.728 53.905 185.01 53.076 184.082C52.2471 183.154 50.4928 183.367 49.1577 184.558C47.8226 185.749 47.4122 187.467 48.2412 188.395C49.0702 189.323 50.8245 189.11 52.1596 187.919Z" fill="url(#paint0_linear_1928_21261)"/>
<path d="M81.3168 185.179C82.6519 183.988 83.0622 182.27 82.2333 181.342C81.4043 180.414 79.65 180.627 78.3149 181.818C76.9798 183.009 76.5695 184.727 77.3984 185.655C78.2274 186.583 79.9817 186.37 81.3168 185.179Z" fill="#E6E6E6"/>
<path d="M68.2432 184.879C69.52 183.38 68.8071 180.678 66.6508 178.843C64.4946 177.009 61.7117 176.737 60.4349 178.236C59.1581 179.735 59.871 182.438 62.0272 184.272C64.1834 186.107 66.9664 186.378 68.2432 184.879Z" fill="url(#paint1_linear_1928_21261)"/>
<path d="M26.1694 180.89C27.5045 179.699 27.9148 177.981 27.0858 177.053C26.2568 176.125 24.5025 176.338 23.1674 177.529C21.8323 178.72 21.422 180.438 22.251 181.366C23.0799 182.294 24.8343 182.081 26.1694 180.89Z" fill="#3F3D56"/>
<path d="M22.3447 168.652C23.6215 167.153 22.9086 164.451 20.7524 162.616C18.5962 160.782 15.8132 160.51 14.5364 162.009C13.2596 163.508 13.9726 166.211 16.1288 168.045C18.285 169.88 21.068 170.151 22.3447 168.652Z" fill="#3F3D56"/>
<path d="M160.896 142.947C161.706 142.865 162.472 142.536 163.089 142.005C163.706 141.474 164.145 140.766 164.346 139.977C164.547 139.189 164.5 138.357 164.213 137.596C163.925 136.834 163.41 136.18 162.738 135.72C162.581 135.342 162.468 135.069 162.311 134.69C162.792 132.621 163.88 130.743 165.437 129.297C166.993 127.85 168.946 126.901 171.045 126.571C173.144 126.24 175.295 126.544 177.22 127.444C179.146 128.343 180.758 129.796 181.852 131.618C188.118 141.823 195.81 152.211 194.586 164.651C208.186 119.796 193.747 68.6295 159.193 37.0872C150.449 33.8285 142.726 26.8858 139.662 17.9527C143.864 18.7174 148.374 14.7272 144.742 10.9579C143.2 9.5401 141.647 8.13686 140.105 6.71892C152.916 -11.7071 174.788 11.052 161.281 35.3628C167.769 41.4145 173.605 48.1274 178.696 55.3921C176.558 47.1958 176.396 38.609 178.226 30.3382C180.174 22.5941 184.939 15.611 189.002 8.56517C193.94 -0.0180716 206.965 1.68308 209.224 11.317C203.89 13.9858 204.358 22.186 210.933 22.3472C211.935 40.7416 202.538 59.1689 187.377 69.5387C195.909 85.5669 200.926 103.229 202.093 121.347C201.885 100.002 223.603 91.6087 238.079 80.9761C238.984 80.1879 240.098 79.68 241.287 79.5142C242.476 79.3485 243.687 79.5321 244.773 80.0427C245.859 80.5533 246.773 81.3687 247.404 82.3896C248.034 83.4105 248.354 84.5927 248.323 85.7919C246.286 86.9927 244.373 88.3928 242.613 89.9716C241.789 90.7209 241.218 91.7064 240.976 92.7931C240.735 93.8797 240.836 95.0143 241.266 96.0413C241.695 97.0683 242.432 97.9374 243.375 98.5295C244.318 99.1216 245.421 99.4077 246.533 99.3487C241.51 120.098 222.987 136.268 201.957 139.296C201.233 148.368 199.568 157.339 196.989 166.066L165.791 170.671C165.628 170.341 165.475 169.998 165.323 169.667C168.238 169.422 171.111 168.821 173.88 167.878C164.904 159.965 158.314 156.225 160.895 142.947L160.896 142.947Z" fill="#F2F2F2"/>
<path d="M192.273 132.949C178.07 132.949 170.366 131.214 167.676 127.511C165.302 124.244 166.893 119.933 168.736 114.942C170.061 111.354 171.562 107.288 171.562 103.264C171.562 83.6905 181.492 73.7656 201.076 73.7656C210.82 73.7656 221.282 78.939 229.062 87.6046C236.135 95.4824 239.658 104.911 238.729 113.472C237.967 120.494 234.697 125.111 228.439 128.004L228.073 128.173L227.969 127.784C227.428 125.769 226.514 123.873 225.272 122.196C225.151 124.829 224.487 127.408 223.322 129.773L223.255 129.907L223.111 129.949C216.027 131.965 207.621 132.512 201.089 132.762C197.909 132.886 194.971 132.948 192.273 132.949Z" fill="#2F2E41"/>
<path d="M196.144 160.221C195.599 158.621 194.681 157.175 193.465 156.001C192.25 154.827 190.771 153.961 189.153 153.472C187.535 152.984 185.824 152.888 184.162 153.193C182.499 153.498 180.933 154.195 179.594 155.226L132.877 183.143L118.258 147.492C119.493 145.681 120.122 143.526 120.056 141.335C119.99 139.145 119.231 137.032 117.889 135.299C116.547 133.566 114.69 132.303 112.585 131.69C110.48 131.077 108.235 131.146 106.172 131.887C104.108 132.629 102.333 134.004 101.1 135.816C99.8671 137.628 99.2401 139.784 99.3088 141.974C99.3776 144.165 100.139 146.277 101.483 148.008C102.827 149.74 104.685 151.001 106.791 151.612C107.692 161.892 112.699 207.842 130.119 206.172C144.761 204.768 181.124 180.564 192.418 172.172C194.225 170.83 195.559 168.95 196.229 166.803C196.898 164.655 196.869 162.35 196.144 160.221Z" fill="#FFB6B6"/>
<path d="M100.038 175.272C101.374 174.081 101.784 172.363 100.955 171.435C100.126 170.507 98.3717 170.72 97.0365 171.911C95.7014 173.102 95.2911 174.82 96.1201 175.748C96.9491 176.676 98.7034 176.463 100.038 175.272Z" fill="#3F3D56"/>
<path d="M47.562 170.506C48.8971 169.315 49.3074 167.597 48.4784 166.669C47.6494 165.74 45.8951 165.953 44.56 167.144C43.2249 168.335 42.8146 170.053 43.6436 170.982C44.4725 171.91 46.2269 171.697 47.562 170.506Z" fill="#E6E6E6"/>
<path d="M185.404 138.398L207.805 137.245L218.209 153.676C218.209 153.676 237.785 156.948 236.428 180.004C235.071 203.06 212.61 223.292 212.61 223.292L213.57 235.298L211.902 240.061L212.116 242.735L214.391 245.567L214.625 248.495L212.61 253.129L215.351 257.566L157.725 251.986L155.618 244.314L158.692 240.194L156.975 234.82L159.556 229.651L160.902 213.233C160.902 213.233 146.176 191.121 163.081 174.467L169.866 162.939L177.457 153.682L185.404 138.398Z" fill="url(#paint2_linear_1928_21261)"/>
<path d="M3.06408 116.904C4.27552 116.617 4.92344 114.974 4.51125 113.233C4.09907 111.493 2.78286 110.314 1.57143 110.601C0.35999 110.887 -0.287928 112.531 0.124257 114.271C0.536441 116.012 1.85264 117.19 3.06408 116.904Z" fill="#3F3D56"/>
<path d="M3.26055 95.7308C4.47195 95.4441 5.12003 93.8006 4.70805 92.06C4.29607 90.3195 2.98004 89.1409 1.76863 89.4276C0.557229 89.7143 -0.0908274 91.3578 0.321153 93.0984C0.733133 94.839 2.04914 96.0175 3.26055 95.7308Z" fill="#E6E6E6"/>
<path d="M196.54 133.758C209.649 133.758 220.276 123.137 220.276 110.035C220.276 96.9325 209.649 86.311 196.54 86.311C183.431 86.311 172.804 96.9325 172.804 110.035C172.804 123.137 183.431 133.758 196.54 133.758Z" fill="#FFB6B6"/>
<path d="M193.362 108.597C191.316 108.597 189.272 108.539 187.229 108.424L186.864 108.403L186.912 108.041C187.213 105.776 187.043 103.474 186.414 101.278C185.346 103.779 183.756 106.023 181.751 107.861L181.638 107.964L181.485 107.948C175.936 107.341 170.438 106.339 165.032 104.949L164.825 104.896L164.783 104.686C164.38 102.705 164.171 100.688 164.159 98.6661C164.159 92.3488 166.451 87.0317 170.612 83.6944C175.141 80.0617 181.634 78.9446 188.9 80.5468H212.134C214.689 80.5497 217.138 81.5652 218.944 83.3704C220.75 85.1757 221.766 87.6233 221.769 90.1763V104.882L221.515 104.948C212.325 107.362 202.864 108.588 193.362 108.597Z" fill="#2F2E41"/>
<path d="M12.8798 83.2252C15.5204 82.2035 17.0847 79.8869 16.3736 78.0509C15.6625 76.2149 12.9454 75.5547 10.3047 76.5764C7.6641 77.5981 6.09989 79.9146 6.81097 81.7507C7.52206 83.5867 10.2392 84.2468 12.8798 83.2252Z" fill="url(#paint3_linear_1928_21261)"/>
<path d="M32.2447 73.0497C33.4562 72.7631 34.1041 71.1198 33.6919 69.3793C33.2797 67.6388 31.9635 66.4601 30.7521 66.7467C29.5407 67.0333 28.8927 68.6766 29.3049 70.4171C29.7171 72.1576 31.0333 73.3363 32.2447 73.0497Z" fill="#E6E6E6"/>
<path d="M14.734 68.7997C15.9454 68.5132 16.5934 66.8699 16.1812 65.1293C15.769 63.3888 14.4528 62.2101 13.2413 62.4967C12.0299 62.7833 11.382 64.4266 11.7942 66.1671C12.2064 67.9077 13.5226 69.0863 14.734 68.7997Z" fill="url(#paint4_linear_1928_21261)"/>
<path d="M263.774 118.319L238.659 178.387C237.588 180.929 235.559 182.947 233.012 184.007C230.464 185.068 227.601 185.084 225.042 184.053C223.718 183.52 222.516 182.723 221.51 181.71C220.504 180.698 219.715 179.491 219.191 178.164C218.667 176.837 218.419 175.417 218.462 173.99C218.505 172.564 218.838 171.162 219.441 169.868L247.443 108.272L262.879 70.1263C261.545 68.7966 260.653 67.0887 260.324 65.2347C259.995 63.3807 260.245 61.4705 261.04 59.7635C261.836 58.0565 263.137 56.6355 264.768 55.6936C266.4 54.7517 268.282 54.3346 270.158 54.4988C272.035 54.6631 273.816 55.4009 275.258 56.6118C276.701 57.8228 277.736 59.4483 278.222 61.2674C278.708 63.0866 278.622 65.0112 277.976 66.7799C277.329 68.5485 276.154 70.0754 274.609 71.1531L263.774 118.319Z" fill="#FFB6B6"/>
<path d="M15.7636 54.8741C18.4042 53.8524 19.9684 51.5358 19.2573 49.6998C18.5463 47.8638 15.8291 47.2037 13.1885 48.2253C10.5479 49.247 8.98368 51.5636 9.69476 53.3996C10.4059 55.2356 13.1229 55.8957 15.7636 54.8741Z" fill="#E6E6E6"/>
<path d="M180.635 54.1733C182.403 53.3044 182.822 50.5413 181.573 48.0018C180.323 45.4622 177.877 44.1078 176.11 44.9766C174.342 45.8455 173.922 48.6085 175.172 51.1481C176.421 53.6877 178.867 55.0421 180.635 54.1733Z" fill="#3F3D56"/>
<path d="M33.2945 49.3032C34.506 49.0166 35.1539 47.3733 34.7417 45.6327C34.3295 43.8922 33.0133 42.7135 31.8019 43.0001C30.5905 43.2867 29.9425 44.93 30.3547 46.6705C30.7669 48.4111 32.0831 49.5897 33.2945 49.3032Z" fill="#3F3D56"/>
<path d="M49.0116 50.6114C51.6523 49.5897 53.2165 47.2731 52.5054 45.4371C51.7943 43.6011 49.0772 42.941 46.4366 43.9626C43.7959 44.9843 42.2317 47.3009 42.9428 49.1369C43.6539 50.9729 46.371 51.633 49.0116 50.6114Z" fill="#3F3D56"/>
<path d="M31.3998 82.2084C30.3597 82.5886 29.513 83.3657 29.0453 84.3691C28.5777 85.3725 28.5274 86.5203 28.9055 87.5607L53.9707 156.301C54.3511 157.341 55.1285 158.187 56.1324 158.655C57.1363 159.122 58.2848 159.172 59.3257 158.794L156.608 123.359C157.648 122.979 158.495 122.202 158.962 121.198C159.43 120.195 159.48 119.047 159.102 118.007L134.037 49.2662C133.657 48.2266 132.879 47.3803 131.875 46.9129C130.871 46.4455 129.723 46.3952 128.682 46.773L31.3998 82.2084Z" fill="#CCCCCC"/>
<path d="M120.401 132.757L60.8547 154.447C59.7344 154.854 58.4983 154.8 57.4178 154.297C56.3373 153.794 55.5006 152.883 55.0912 151.764L32.3573 89.417C31.9504 88.2972 32.0045 87.0618 32.5078 85.9818C33.0111 84.9019 33.9224 84.0655 35.0419 83.6563L126.827 50.2234C127.947 49.8167 129.183 49.8708 130.264 50.3738C131.344 50.8769 132.181 51.7878 132.591 52.9067L143.575 83.0322C147.088 92.6982 146.62 103.362 142.276 112.684C137.931 122.006 130.065 129.225 120.401 132.757Z" fill="white"/>
<path d="M68.1279 96.2946L69.7393 100.722L60.4974 104.085L62.2381 108.868L69.1533 106.351L70.7176 110.649L63.8024 113.166L67.1426 122.343L61.6169 124.354L53.3604 101.67L68.1279 96.2946Z" fill="url(#paint5_linear_1928_21261)"/>
<path d="M90.8572 113.712L83.0225 106.865L81.6976 107.348L84.8144 115.911L79.2887 117.922L71.0322 95.2375L80.3064 91.862C82.0944 91.2112 83.7269 90.9708 85.2037 91.1408C86.7022 91.3029 87.9637 91.8196 88.9883 92.6909C90.0051 93.5406 90.7566 94.6333 91.2427 95.969C91.7916 97.477 91.8508 98.9802 91.4203 100.479C91.0114 101.969 90.0677 103.264 88.5892 104.364L97.0938 111.442L90.8572 113.712ZM80.2745 103.438L83.6998 102.191C84.7123 101.822 85.3762 101.3 85.6913 100.624C86.028 99.9407 86.0317 99.1465 85.7024 98.2417C85.3887 97.38 84.8832 96.7955 84.1858 96.4882C83.51 96.173 82.6658 96.1997 81.6533 96.5682L78.228 97.8149L80.2745 103.438Z" fill="url(#paint6_linear_1928_21261)"/>
<path d="M99.2492 89.9809L100.919 94.5695L108.319 91.8761L109.872 96.1416L102.472 98.835L104.283 103.811L112.652 100.765L114.264 105.192L100.369 110.25L92.1122 87.565L106.007 82.5076L107.619 86.9347L99.2492 89.9809Z" fill="url(#paint7_linear_1928_21261)"/>
<path d="M116.732 83.6178L118.402 88.2064L125.802 85.513L127.354 89.7785L119.954 92.4719L121.766 97.4483L130.135 94.4021L131.746 98.8291L117.851 103.887L109.595 81.2019L123.49 76.1445L125.101 80.5716L116.732 83.6178Z" fill="url(#paint8_linear_1928_21261)"/>
<path d="M155.123 37.5399C156.822 36.9771 157.881 35.5633 157.49 34.3823C157.098 33.2013 155.403 32.7001 153.705 33.263C152.006 33.8259 150.947 35.2397 151.338 36.4207C151.73 37.6017 153.425 38.1028 155.123 37.5399Z" fill="#E6E6E6"/>
<path d="M178.883 36.5038C180.582 35.9409 181.641 34.5272 181.249 33.3461C180.858 32.1651 179.163 31.664 177.464 32.2269C175.766 32.7898 174.706 34.2035 175.098 35.3845C175.49 36.5656 177.184 37.0667 178.883 36.5038Z" fill="#3F3D56"/>
<path d="M157.825 19.7333C159.524 19.1704 160.584 17.7567 160.192 16.5756C159.8 15.3946 158.105 14.8935 156.407 15.4564C154.708 16.0193 153.649 17.433 154.04 18.614C154.432 19.7951 156.127 20.2962 157.825 19.7333Z" fill="url(#paint9_linear_1928_21261)"/>
<path d="M173.474 21.4443C175.241 20.5754 175.661 17.8123 174.412 15.2727C173.162 12.7332 170.716 11.3788 168.949 12.2476C167.181 13.1165 166.761 15.8795 168.011 18.4191C169.26 20.9587 171.706 22.3131 173.474 21.4443Z" fill="#E6E6E6"/>
<path d="M144.964 21.0576C146.732 20.1887 147.152 17.4256 145.902 14.886C144.652 12.3465 142.206 10.992 140.439 11.8609C138.671 12.7297 138.251 15.4928 139.501 18.0324C140.751 20.572 143.197 21.9264 144.964 21.0576Z" fill="url(#paint10_linear_1928_21261)"/>
<path d="M108.859 12.329C110.557 11.7661 111.617 10.3524 111.225 9.17136C110.833 7.99032 109.139 7.48921 107.44 8.0521C105.741 8.61499 104.682 10.0287 105.074 11.2097C105.465 12.3908 107.16 12.8919 108.859 12.329Z" fill="#3F3D56"/>
<path d="M129.979 10.6708C131.677 10.1079 132.737 8.6942 132.345 7.51316C131.953 6.33213 130.259 5.831 128.56 6.39389C126.861 6.95677 125.802 8.37051 126.194 9.55155C126.586 10.7326 128.28 11.2337 129.979 10.6708Z" fill="#E6E6E6"/>
</g>
<defs>
<linearGradient id="paint0_linear_1928_21261" x1="54.577" y1="185.763" x2="47.2876" y2="188.292" gradientUnits="userSpaceOnUse">
<stop stop-color="#FF5A5F"/>
<stop offset="1" stop-color="#FF8A9B"/>
</linearGradient>
<linearGradient id="paint1_linear_1928_21261" x1="70.555" y1="182.165" x2="63.4688" y2="187.742" gradientUnits="userSpaceOnUse">
<stop stop-color="#FF5A5F"/>
<stop offset="1" stop-color="#FF8A9B"/>
</linearGradient>
<linearGradient id="paint2_linear_1928_21261" x1="236.496" y1="257.566" x2="135.226" y2="237.668" gradientUnits="userSpaceOnUse">
<stop stop-color="#12D18E"/>
<stop offset="1" stop-color="#71E3BB"/>
</linearGradient>
<linearGradient id="paint3_linear_1928_21261" x1="17.6611" y1="81.3753" x2="5.45599" y2="81.0631" gradientUnits="userSpaceOnUse">
<stop stop-color="#FF5A5F"/>
<stop offset="1" stop-color="#FF8A9B"/>
</linearGradient>
<linearGradient id="paint4_linear_1928_21261" x1="16.9275" y1="68.2808" x2="11.2302" y2="68.4712" gradientUnits="userSpaceOnUse">
<stop stop-color="#FF5A5F"/>
<stop offset="1" stop-color="#FF8A9B"/>
</linearGradient>
<linearGradient id="paint5_linear_1928_21261" x1="131.746" y1="124.354" x2="49.0187" y2="85.3542" gradientUnits="userSpaceOnUse">
<stop stop-color="#12D18E"/>
<stop offset="1" stop-color="#71E3BB"/>
</linearGradient>
<linearGradient id="paint6_linear_1928_21261" x1="131.746" y1="124.354" x2="49.0187" y2="85.3542" gradientUnits="userSpaceOnUse">
<stop stop-color="#12D18E"/>
<stop offset="1" stop-color="#71E3BB"/>
</linearGradient>
<linearGradient id="paint7_linear_1928_21261" x1="131.746" y1="124.354" x2="49.0187" y2="85.3542" gradientUnits="userSpaceOnUse">
<stop stop-color="#12D18E"/>
<stop offset="1" stop-color="#71E3BB"/>
</linearGradient>
<linearGradient id="paint8_linear_1928_21261" x1="131.746" y1="124.354" x2="49.0187" y2="85.3542" gradientUnits="userSpaceOnUse">
<stop stop-color="#12D18E"/>
<stop offset="1" stop-color="#71E3BB"/>
</linearGradient>
<linearGradient id="paint9_linear_1928_21261" x1="160.901" y1="18.7141" x2="153.207" y2="18.1375" gradientUnits="userSpaceOnUse">
<stop stop-color="#FF5A5F"/>
<stop offset="1" stop-color="#FF8A9B"/>
</linearGradient>
<linearGradient id="paint10_linear_1928_21261" x1="148.165" y1="19.4844" x2="139.444" y2="21.7871" gradientUnits="userSpaceOnUse">
<stop stop-color="#FF5A5F"/>
<stop offset="1" stop-color="#FF8A9B"/>
</linearGradient>
<clipPath id="clip0_1928_21261">
<rect width="320" height="362.985" fill="white"/>
</clipPath>
</defs>
</svg>
