<svg width="383" height="347" viewBox="0 0 383 347" fill="none" xmlns="http://www.w3.org/2000/svg">
<path d="M283.49 338.914L275.893 338.914L272.279 309.61L283.492 309.611L283.49 338.914Z" fill="#FFB8B8"/>
<path d="M270.467 336.744H285.119V345.969H261.242C261.242 344.757 261.481 343.558 261.944 342.438C262.408 341.319 263.088 340.302 263.944 339.446C264.801 338.589 265.818 337.909 266.937 337.446C268.056 336.982 269.256 336.744 270.467 336.744Z" fill="#2F2E41"/>
<path d="M183.436 345.538C184.981 328.898 189.248 312.625 196.068 297.368C197.969 293.122 200.06 288.969 202.344 284.91C202.93 283.866 201.325 282.928 200.738 283.972C192.435 298.756 186.618 314.803 183.52 331.474C182.658 336.129 182.011 340.817 181.577 345.538C181.467 346.729 183.327 346.721 183.436 345.538Z" fill="url(#paint0_linear_2060_75697)"/>
<path d="M183.119 345.13C177.269 336.002 172.959 325.975 170.359 315.449C169.637 312.519 169.051 309.56 168.599 306.573C168.573 306.419 168.488 306.281 168.362 306.188C168.236 306.095 168.079 306.055 167.924 306.076C167.768 306.097 167.628 306.177 167.531 306.299C167.433 306.422 167.388 306.578 167.403 306.734C169.055 317.609 172.483 328.139 177.55 337.902C178.966 340.627 180.506 343.284 182.168 345.872C182.586 346.525 183.535 345.779 183.119 345.13V345.13Z" fill="url(#paint1_linear_2060_75697)"/>
<path d="M184.641 345.85C185.643 335.055 188.412 324.498 192.836 314.6C194.069 311.845 195.426 309.152 196.907 306.518C196.981 306.381 196.999 306.219 196.957 306.069C196.915 305.918 196.815 305.79 196.68 305.711C196.545 305.632 196.385 305.609 196.233 305.646C196.081 305.683 195.949 305.777 195.866 305.91C190.479 315.5 186.705 325.911 184.695 336.726C184.136 339.746 183.716 342.788 183.435 345.85C183.363 346.623 184.57 346.618 184.641 345.85H184.641Z" fill="url(#paint2_linear_2060_75697)"/>
<path d="M346.7 329.835L339.806 333.027L324.215 307.954L334.39 303.244L346.7 329.835Z" fill="#FFB8B8"/>
<path d="M333.969 333.336L347.265 327.181L351.141 335.553L329.473 345.583C328.445 343.363 328.342 340.826 329.185 338.529C330.028 336.232 331.749 334.364 333.969 333.336Z" fill="#2F2E41"/>
<path d="M382.054 346.47H207.839C207.667 346.47 207.503 346.408 207.381 346.296C207.26 346.185 207.191 346.034 207.191 345.877C207.191 345.72 207.26 345.569 207.381 345.458C207.503 345.347 207.667 345.284 207.839 345.284H382.054C382.226 345.284 382.39 345.347 382.512 345.458C382.633 345.569 382.701 345.72 382.701 345.877C382.701 346.034 382.633 346.185 382.512 346.296C382.39 346.408 382.226 346.47 382.054 346.47Z" fill="#3F3D56"/>
<path d="M166.266 346.47H3.82263C3.66247 346.47 3.50887 346.408 3.39562 346.296C3.28237 346.185 3.21875 346.034 3.21875 345.877C3.21875 345.72 3.28237 345.569 3.39562 345.458C3.50887 345.347 3.66247 345.284 3.82263 345.284H166.266C166.426 345.284 166.58 345.347 166.693 345.458C166.806 345.569 166.87 345.72 166.87 345.877C166.87 346.034 166.806 346.185 166.693 346.296C166.58 346.408 166.426 346.47 166.266 346.47Z" fill="#3F3D56"/>
<path d="M93.9874 338.232L101.251 336.003L96.1098 306.929L85.3906 310.219L93.9874 338.232Z" fill="#A0616A"/>
<path d="M117.326 338.448L94.5004 345.453L91.7939 336.634L105.801 332.336C108.14 331.618 110.668 331.859 112.829 333.005C114.991 334.151 116.608 336.109 117.326 338.448Z" fill="#2F2E41"/>
<path d="M29.5403 338.399H37.1375L40.7515 309.096L29.5391 309.096L29.5403 338.399Z" fill="#A0616A"/>
<path d="M51.791 345.452L27.9145 345.453L27.9141 336.228L42.5656 336.228C45.0122 336.227 47.3587 337.199 49.0888 338.929C50.8189 340.659 51.7909 343.006 51.791 345.452Z" fill="#2F2E41"/>
<path d="M199.828 308.453C204.046 308.453 207.466 305.033 207.466 300.815C207.466 296.596 204.046 293.176 199.828 293.176C195.609 293.176 192.189 296.596 192.189 300.815C192.189 305.033 195.609 308.453 199.828 308.453Z" fill="url(#paint3_linear_2060_75697)"/>
<path d="M167.392 307.917C171.611 307.917 175.03 304.497 175.03 300.278C175.03 296.06 171.611 292.64 167.392 292.64C163.174 292.64 159.754 296.06 159.754 300.278C159.754 304.497 163.174 307.917 167.392 307.917Z" fill="url(#paint4_linear_2060_75697)"/>
<path d="M206.848 287.892C213.351 287.892 218.622 282.621 218.622 276.118C218.622 269.616 213.351 264.344 206.848 264.344C200.346 264.344 195.074 269.616 195.074 276.118C195.074 282.621 200.346 287.892 206.848 287.892Z" fill="url(#paint5_linear_2060_75697)"/>
<path d="M320.482 234.988C320.984 234.228 321.312 233.367 321.445 232.465C321.578 231.564 321.511 230.645 321.25 229.772C320.989 228.899 320.54 228.094 319.935 227.414C319.329 226.733 318.581 226.194 317.745 225.834L319.35 203.748L309.31 209.37L309.324 229.481C308.812 230.927 308.848 232.51 309.426 233.931C310.003 235.352 311.082 236.512 312.457 237.19C313.832 237.869 315.409 238.02 316.888 237.614C318.367 237.208 319.646 236.274 320.482 234.988V234.988Z" fill="#FFB8B8"/>
<path d="M29.7539 172.652L36.2214 151.492C36.6546 150.075 37.3936 148.771 38.3863 147.671C39.379 146.571 40.6012 145.703 41.9664 145.128C43.3316 144.552 44.8065 144.283 46.287 144.341C47.7674 144.398 49.2172 144.779 50.534 145.458C52.8185 146.642 54.5675 148.649 55.4265 151.074C56.2855 153.499 56.1902 156.16 55.1599 158.518L46.9376 177.243L29.7539 172.652Z" fill="url(#paint6_linear_2060_75697)"/>
<path d="M176.848 207.697C161.254 207.697 146.009 203.072 133.043 194.408C120.076 185.744 109.97 173.43 104.002 159.022C98.0342 144.615 96.4727 128.761 99.5151 113.466C102.557 98.1707 110.067 84.1213 121.094 73.0942C132.121 62.067 146.171 54.5575 161.466 51.5151C176.761 48.4727 192.615 50.0342 207.022 56.002C221.43 61.9699 233.744 72.076 242.408 85.0426C251.072 98.0091 255.697 113.254 255.697 128.848C255.673 149.753 247.358 169.795 232.576 184.576C217.795 199.358 197.753 207.673 176.848 207.697ZM176.848 52.1151C161.672 52.1151 146.836 56.6154 134.218 65.047C121.599 73.4785 111.764 85.4626 105.956 99.4838C100.148 113.505 98.6287 128.933 101.589 143.818C104.55 158.703 111.858 172.376 122.59 183.107C133.321 193.838 146.994 201.146 161.878 204.107C176.763 207.068 192.192 205.548 206.213 199.741C220.234 193.933 232.218 184.098 240.65 171.479C249.081 158.86 253.582 144.025 253.582 128.848C253.559 108.504 245.467 89.0004 231.082 74.6151C216.696 60.2298 197.192 52.1381 176.848 52.1151Z" fill="#3F3D56"/>
<path d="M217.227 190.798C217.79 190.006 218.531 189.356 219.39 188.901C220.248 188.446 221.202 188.198 222.173 188.177C223.145 188.155 224.108 188.362 224.986 188.779C225.864 189.196 226.632 189.813 227.229 190.579L248.195 183.453L245.289 194.587L225.825 199.647C224.606 200.473 223.136 200.843 221.671 200.693C220.207 200.543 218.842 199.882 217.817 198.826C216.791 197.771 216.17 196.387 216.062 194.919C215.954 193.451 216.366 191.992 217.227 190.798Z" fill="#FFB8B8"/>
<path d="M317.985 149.135L320.731 219.417L309.576 218.797L307.098 145.056L309.45 143.949C310.345 143.528 311.33 143.335 312.318 143.387C313.306 143.44 314.265 143.736 315.11 144.25C315.955 144.763 316.66 145.478 317.162 146.33C317.664 147.183 317.947 148.146 317.985 149.135Z" fill="url(#paint7_linear_2060_75697)"/>
<path d="M265.449 243.282L273.285 332.694L283.819 331.455L291.605 249.782L334.632 327.737L345.787 324.638C345.787 324.638 309.885 217.249 307.097 208.264C304.04 198.414 279.831 194.631 279.831 194.631L278.901 193.701C268.499 207.704 264.332 225.874 265.449 243.282Z" fill="#2F2E41"/>
<path d="M351 250C354.866 250 358 246.866 358 243C358 239.134 354.866 236 351 236C347.134 236 344 239.134 344 243C344 246.866 347.134 250 351 250Z" fill="url(#paint8_linear_2060_75697)"/>
<path d="M9 239C13.9706 239 18 234.971 18 230C18 225.029 13.9706 221 9 221C4.02944 221 0 225.029 0 230C0 234.971 4.02944 239 9 239Z" fill="url(#paint9_linear_2060_75697)"/>
<path d="M316.747 150.339L306.17 205.471C306.17 205.471 290.095 202.261 284.369 198.394C282.101 196.858 280.044 195.271 278.309 193.834C277.968 193.555 277.646 193.276 277.33 193.009C274.467 190.562 272.707 188.74 272.707 188.74C272.707 188.74 273.624 184.247 274.745 178.93C275.997 172.975 277.516 165.979 278.29 163.123C279.994 156.858 285.844 149.558 290.405 144.588C292.056 142.786 294.167 141.467 296.51 140.773C298.854 140.078 301.343 140.035 303.709 140.647L311.963 142.779C313.573 143.194 314.963 144.207 315.852 145.611C316.741 147.016 317.061 148.706 316.747 150.339Z" fill="url(#paint10_linear_2060_75697)"/>
<path opacity="0.2" d="M291.167 174.42C291.167 174.42 285.478 186.243 277.33 193.01C274.467 190.562 272.707 188.74 272.707 188.74C272.707 188.74 273.624 184.248 274.745 178.931C281.574 175.324 288.614 173.05 291.167 174.42Z" fill="black"/>
<path d="M31.4739 241.062C30.8498 240.515 30.3532 239.838 30.0192 239.078C29.6851 238.318 29.5217 237.494 29.5405 236.664C29.5593 235.834 29.7598 235.019 30.1279 234.275C30.496 233.531 31.0227 232.877 31.671 232.358L37.5612 158.187L49.5401 161.179L39.949 233.532C40.7476 234.679 41.0978 236.078 40.9333 237.466C40.7687 238.854 40.1008 240.133 39.0562 241.061C38.0115 241.989 36.6627 242.502 35.2652 242.502C33.8678 242.502 32.5188 241.99 31.4739 241.062Z" fill="#A0616A"/>
<path d="M301.254 152.778C300.692 152.491 300.105 152.258 299.5 152.081C298.264 151.742 296.963 151.716 295.715 152.003C294.466 152.291 293.308 152.884 292.345 153.729L258.909 178.221L232.316 187.166L237.121 198.531L276.765 188.849L303.058 165.483C303.963 164.615 304.648 163.545 305.058 162.36C305.467 161.175 305.588 159.909 305.412 158.668C305.236 157.427 304.767 156.245 304.044 155.221C303.321 154.197 302.364 153.359 301.254 152.778Z" fill="url(#paint11_linear_2060_75697)"/>
<path d="M39.0148 159.658C35.3979 154.693 35.2864 147.854 39.1826 143.104C41.7252 140.005 45.9782 137.524 53.079 137.524C72.0057 137.524 79.1847 152.535 79.1847 152.535C79.1847 152.535 87.0165 166.893 82.448 179.946C77.8794 192.999 77.8794 194.304 77.8794 194.304L47.8578 191.694C47.8578 191.694 52.9225 178.751 39.0148 159.658Z" fill="url(#paint12_linear_2060_75697)"/>
<path d="M77.2246 191.042L102.678 322.876L88.9722 326.791L55.6874 239.99L40.6765 328.749L26.3183 330.707C26.3183 330.707 20.0201 213.267 47.8556 191.694L77.2246 191.042Z" fill="#2F2E41"/>
<path d="M214.271 228.359C211.871 227.216 209.155 225.901 207.205 222.739C205.339 219.698 205.379 216.701 205.401 214.02C205.423 211.849 205.448 209.986 204.472 208.388C203.474 206.762 202.079 206.327 200.545 205.781C199.938 205.569 199.324 205.336 198.736 205.082C197.432 204.516 195.516 203.514 193.854 201.26C189.736 195.676 191.066 190.138 191.116 189.904C191.277 189.259 191.723 188.703 192.307 188.377L197.631 185.526C198.454 185.083 199.487 185.173 200.226 185.749C200.964 186.325 201.296 187.286 201.066 188.209C201.068 188.243 200.262 191.828 203.019 195.562C203.776 196.606 204.631 197.266 205.949 197.838C206.451 198.056 206.965 198.245 207.479 198.434C208.071 198.64 208.643 198.854 209.216 199.102C210.65 199.724 212.461 200.731 213.868 203.062C215.559 205.839 215.511 208.697 215.481 211.239C215.453 213.543 215.442 215.531 216.578 217.387C217.791 219.343 219.58 220.205 221.65 221.205C223.691 222.193 226.019 223.305 227.867 225.64C229.424 227.626 229.862 230.031 230.269 232.353C230.917 236.041 231.477 238.362 234.63 239.73L235.067 239.902C235.917 240.22 236.549 241.039 236.615 241.987C236.672 242.915 236.182 243.809 235.345 244.247L230.02 247.097C229.408 247.411 228.689 247.457 228.061 247.218C227.839 247.139 227.618 247.06 227.403 246.967C221.741 244.51 220.866 239.617 220.238 236.041C219.922 234.217 219.603 232.478 218.791 231.444C217.669 229.987 216.089 229.233 214.271 228.359Z" fill="url(#paint13_linear_2060_75697)"/>
<path d="M111.435 177.357C111.214 177.62 111.015 177.899 110.838 178.193L80.1424 179.681L74.2317 161.637L63.9688 166.515L73.6281 193.391L111.591 185.966C112.483 186.94 113.65 187.62 114.938 187.914C116.225 188.208 117.572 188.103 118.798 187.614C120.025 187.124 121.073 186.273 121.804 185.172C122.535 184.072 122.914 182.776 122.89 181.455C122.866 180.135 122.44 178.853 121.67 177.78C120.9 176.707 119.821 175.894 118.578 175.45C117.334 175.005 115.985 174.949 114.709 175.29C113.433 175.63 112.291 176.351 111.435 177.357V177.357Z" fill="#A0616A"/>
<path d="M154.141 203.741C152.217 206.21 149.144 207.579 146.606 208.489C144.592 209.217 142.743 209.962 141.673 211.341C140.598 212.685 140.57 213.856 140.603 215.945C140.634 218.112 140.677 220.808 138.736 223.788C137.669 225.414 136.361 226.809 134.848 227.889C134.391 228.216 133.953 228.491 133.519 228.743C132.492 229.322 131.17 229.057 130.451 228.131L126.895 223.528C126.497 223.025 126.366 222.331 126.462 221.686C126.559 221.041 126.964 220.426 127.485 220.053C128.579 219.272 129.472 218.346 130.199 217.213C131.343 215.454 131.325 213.95 131.285 212.04C131.258 209.851 131.227 207.146 133.364 204.411C135.142 202.142 137.921 200.925 140.424 200.021C142.593 199.24 144.578 198.417 145.806 196.83C146.576 195.838 147.03 194.727 147.288 193.179C147.43 192.463 147.886 191.811 148.534 191.483C149.186 191.132 149.962 191.116 150.64 191.419L155.435 193.563C156.372 193.988 156.94 194.945 156.835 195.98C156.599 198.338 156.172 201.101 154.141 203.741Z" fill="url(#paint14_linear_2060_75697)"/>
<path d="M59.3428 154.431C59.1696 152.959 59.3218 151.468 59.7885 150.062C60.2552 148.655 61.025 147.369 62.0437 146.293C63.0623 145.217 64.3047 144.378 65.6833 143.835C67.0619 143.292 68.5428 143.059 70.0215 143.152C72.589 143.316 74.9976 144.451 76.7592 146.326C78.5207 148.202 79.5032 150.676 79.5075 153.249V173.7L61.9279 176.405L59.3428 154.431Z" fill="url(#paint15_linear_2060_75697)"/>
<path d="M307.191 136.193C315.596 136.193 322.41 129.378 322.41 120.973C322.41 112.567 315.596 105.753 307.191 105.753C298.785 105.753 291.971 112.567 291.971 120.973C291.971 129.378 298.785 136.193 307.191 136.193Z" fill="#FFB8B8"/>
<path d="M308.092 136.052C310.258 132.809 311.968 128.314 309.583 125.229C307.229 122.183 302.586 122.632 298.98 121.285C293.958 119.408 291.046 113.508 291.954 108.225C292.862 102.941 297.104 98.561 302.156 96.7689C307.209 94.9768 312.907 95.5596 317.855 97.6234C323.946 100.164 329.171 105.078 331.362 111.303C333.553 117.529 332.381 125.003 327.836 129.788C322.963 134.918 315.315 136.285 308.24 136.202" fill="#2F2E41"/>
<path d="M331.992 118.106C332.612 121.571 336.413 123.538 339.906 123.971C343.399 124.403 347.012 123.849 350.412 124.757C356.407 126.359 360.361 132.124 362.537 137.935C364.714 143.746 365.679 150.018 368.507 155.541C371.334 161.064 376.817 165.934 383 165.417C381.789 168.467 379.666 171.069 376.921 172.867C374.177 174.666 370.944 175.574 367.664 175.468C364.384 175.362 361.217 174.246 358.595 172.273C355.973 170.3 354.023 167.566 353.011 164.445C350.74 157.432 353.347 149.069 349.375 142.859C347.177 139.423 343.381 137.402 339.721 135.601C336.061 133.8 332.219 131.951 329.765 128.693C327.311 125.435 326.821 120.288 329.845 117.551" fill="#2F2E41"/>
<path d="M148.628 134.84C148.628 136.306 148.241 137.666 147.468 138.92C146.721 140.146 145.601 141.16 144.108 141.96C142.641 142.733 140.895 143.16 138.868 143.24V146.48H136.308V143.2C133.481 142.96 131.201 142.12 129.468 140.68C127.735 139.213 126.815 137.226 126.708 134.72H133.988C134.148 136.32 134.921 137.346 136.308 137.8V131.48C134.228 130.946 132.561 130.426 131.308 129.92C130.081 129.413 129.001 128.6 128.068 127.48C127.135 126.36 126.668 124.826 126.668 122.88C126.668 120.453 127.561 118.506 129.348 117.04C131.161 115.573 133.481 114.746 136.308 114.56V111.32H138.868V114.56C141.668 114.773 143.881 115.586 145.508 117C147.135 118.413 148.041 120.373 148.228 122.88H140.908C140.748 121.44 140.068 120.506 138.868 120.08V126.28C141.081 126.893 142.788 127.44 143.988 127.92C145.188 128.4 146.255 129.2 147.188 130.32C148.148 131.413 148.628 132.92 148.628 134.84ZM133.908 122.56C133.908 123.226 134.108 123.786 134.508 124.24C134.935 124.693 135.535 125.093 136.308 125.44V119.88C135.561 120.013 134.975 120.306 134.548 120.76C134.121 121.186 133.908 121.786 133.908 122.56ZM138.868 137.92C139.668 137.786 140.295 137.466 140.748 136.96C141.228 136.453 141.468 135.826 141.468 135.08C141.468 134.386 141.241 133.826 140.788 133.4C140.361 132.946 139.721 132.56 138.868 132.24V137.92Z" fill="#12D18E"/>
<path d="M152.316 120.16V113.8H163.396V143H156.276V120.16H152.316Z" fill="#12D18E"/>
<path d="M171.955 143.32C170.755 143.32 169.768 142.973 168.995 142.28C168.248 141.56 167.875 140.68 167.875 139.64C167.875 138.573 168.248 137.68 168.995 136.96C169.768 136.24 170.755 135.88 171.955 135.88C173.128 135.88 174.088 136.24 174.835 136.96C175.608 137.68 175.995 138.573 175.995 139.64C175.995 140.68 175.608 141.56 174.835 142.28C174.088 142.973 173.128 143.32 171.955 143.32Z" fill="#12D18E"/>
<path d="M179.364 128C179.364 123.413 180.244 119.8 182.004 117.16C183.791 114.52 186.658 113.2 190.604 113.2C194.551 113.2 197.404 114.52 199.164 117.16C200.951 119.8 201.844 123.413 201.844 128C201.844 132.64 200.951 136.28 199.164 138.92C197.404 141.56 194.551 142.88 190.604 142.88C186.658 142.88 183.791 141.56 182.004 138.92C180.244 136.28 179.364 132.64 179.364 128ZM195.124 128C195.124 125.306 194.831 123.24 194.244 121.8C193.658 120.333 192.444 119.6 190.604 119.6C188.764 119.6 187.551 120.333 186.964 121.8C186.378 123.24 186.084 125.306 186.084 128C186.084 129.813 186.191 131.32 186.404 132.52C186.618 133.693 187.044 134.653 187.684 135.4C188.351 136.12 189.324 136.48 190.604 136.48C191.884 136.48 192.844 136.12 193.484 135.4C194.151 134.653 194.591 133.693 194.804 132.52C195.018 131.32 195.124 129.813 195.124 128Z" fill="#12D18E"/>
<path d="M205.458 128C205.458 123.413 206.338 119.8 208.098 117.16C209.885 114.52 212.751 113.2 216.698 113.2C220.645 113.2 223.498 114.52 225.258 117.16C227.045 119.8 227.938 123.413 227.938 128C227.938 132.64 227.045 136.28 225.258 138.92C223.498 141.56 220.645 142.88 216.698 142.88C212.751 142.88 209.885 141.56 208.098 138.92C206.338 136.28 205.458 132.64 205.458 128ZM221.218 128C221.218 125.306 220.925 123.24 220.338 121.8C219.751 120.333 218.538 119.6 216.698 119.6C214.858 119.6 213.645 120.333 213.058 121.8C212.471 123.24 212.178 125.306 212.178 128C212.178 129.813 212.285 131.32 212.498 132.52C212.711 133.693 213.138 134.653 213.778 135.4C214.445 136.12 215.418 136.48 216.698 136.48C217.978 136.48 218.938 136.12 219.578 135.4C220.245 134.653 220.685 133.693 220.898 132.52C221.111 131.32 221.218 129.813 221.218 128Z" fill="#12D18E"/>
<path d="M59.8019 130.038C68.2076 130.038 75.0218 123.224 75.0218 114.818C75.0218 106.412 68.2076 99.5981 59.8019 99.5981C51.3962 99.5981 44.582 106.412 44.582 114.818C44.582 123.224 51.3962 130.038 59.8019 130.038Z" fill="#A0616A"/>
<path d="M63.149 130.176C60.8646 130.166 59.1024 127.761 59.2048 125.479C59.3072 123.197 60.8399 121.189 62.6865 119.844C64.5332 118.5 66.6988 117.681 68.7581 116.692C70.8174 115.703 72.8588 114.47 74.1302 112.572C74.8983 111.33 75.3568 109.922 75.4672 108.465C75.5775 107.009 75.3365 105.547 74.7644 104.204C73.5811 101.516 71.5495 99.2908 68.9808 97.8681C65.1586 95.6524 60.6484 94.9393 56.3291 95.8677C52.0604 96.8042 45.6989 99.3969 43.1979 102.981L40.5903 110.081C37.9332 113.276 39.9904 118.021 41.6238 121.842C43.2572 125.663 46.735 128.538 50.6594 129.905C54.641 131.184 58.9032 131.312 62.9544 130.274" fill="#2F2E41"/>
<path d="M49.2391 106.53C48.1181 104.733 46.1752 103.591 44.1665 102.92C41.8395 102.143 39.3646 101.914 36.9345 102.25C34.5043 102.586 32.1846 103.479 30.1558 104.858C28.127 106.237 26.444 108.066 25.2378 110.203C24.0316 112.339 23.3347 114.725 23.2014 117.174C22.9885 121.087 24.2137 124.913 24.9337 128.765C25.6536 132.617 25.7968 136.872 23.673 140.165C22.0553 142.673 19.3576 144.253 16.6949 145.601C14.4757 146.725 12.0752 147.78 9.59767 147.556C7.12017 147.332 4.63009 145.369 4.69583 142.883C3.86644 144.666 3.30642 146.562 3.0341 148.51C2.8598 150.465 3.34182 152.575 4.75432 153.939C6.80737 155.921 10.0603 155.776 12.8818 155.349C18.9899 154.423 25.175 152.687 30.0006 148.829C34.8263 144.972 38.0283 138.62 36.7575 132.575C36.2267 130.049 34.9791 127.744 33.971 125.368C32.9629 122.992 32.1758 120.394 32.6389 117.855C32.9131 116.547 33.4709 115.315 34.2732 114.246C35.0754 113.178 36.1025 112.298 37.2819 111.669C39.667 110.429 42.3963 110.015 45.0419 110.493C46.7764 110.777 48.9421 111.219 49.9709 109.794C50.2435 109.343 50.3827 108.823 50.3725 108.296C50.3622 107.768 50.2028 107.255 49.9128 106.814C49.3193 105.943 48.5634 105.194 47.6866 104.609" fill="#2F2E41"/>
<path d="M92.1409 56.6875C92.6253 56.9844 93.0316 57.0156 93.4847 57.0781C98.4066 57.5938 102.672 59.25 105.828 61.7812C98.9222 65.1875 96.2035 71.7812 96.5628 75.7969C96.5628 75.9531 96.5784 76.1562 96.6097 76.3594C97.1253 82.1562 100.688 85.8906 105.688 85.8906C106.922 85.8906 108.235 85.6719 109.688 85.2344C111.516 84.6875 116.797 83.0781 119.578 72.3281C123.063 74.7969 125.875 78.7031 127.641 83.6406C127.797 84.0938 127.922 84.4687 128.328 84.8594C129.219 85.75 130.797 85.75 131.703 84.8594L136.875 79.6719C137.766 78.7812 137.813 77.375 137 76.4375C137.235 76.7188 137.328 76.9219 137.313 76.8594C133.907 67.2344 127.157 61 118.719 59.5938C115.266 52 107.735 47.0937 97.641 46.0312C97.4847 46 97.3441 46 97.1878 46C96.391 46 95.5941 46.4062 95.141 47.1406L91.3285 53.375C90.6722 54.5313 91.0316 56 92.1409 56.6875ZM107.5 71.8594C108.641 71.2344 109.782 70.7188 110.766 70.3438C110.828 71.4063 110.828 72.6875 110.672 74C110.547 75.6094 108.547 77.3906 106.844 77.3906C106.422 77.3906 106.047 77.2812 105.719 77.0625C105.063 76.6406 104.688 75.9219 104.719 75.1719C104.766 74 105.75 72.8281 107.5 71.8594Z" fill="url(#paint16_linear_2060_75697)"/>
<path d="M323 59C328.523 59 333 54.5228 333 49C333 43.4772 328.523 39 323 39C317.477 39 313 43.4772 313 49C313 54.5228 317.477 59 323 59Z" fill="url(#paint17_linear_2060_75697)"/>
<path d="M56 36C59.866 36 63 32.866 63 29C63 25.134 59.866 22 56 22C52.134 22 49 25.134 49 29C49 32.866 52.134 36 56 36Z" fill="url(#paint18_linear_2060_75697)"/>
<path d="M232.438 0H225.516C224.203 0 223.125 1.0625 223.125 2.39062V9.3125C223.125 10.625 224.203 11.7031 225.516 11.7031H232.438C233.75 11.7031 234.828 10.625 234.828 9.3125V2.39062C234.828 1.0625 233.766 0 232.438 0ZM159.766 17.9219H152.391C151.078 17.9219 150 19 150 20.3125V27.6719C150 28.9844 151.078 30.0625 152.391 30.0625H159.766C161.094 30.0625 162.156 28.9844 162.156 27.6719V20.3125C162.156 18.9844 161.094 17.9219 159.766 17.9219Z" fill="url(#paint19_linear_2060_75697)"/>
<path d="M272.818 33.4327C272.662 32.6671 272.131 32.0421 271.443 31.7452L265.584 29.1983C264.756 28.8389 263.803 28.9796 263.115 29.5264C262.412 30.1046 262.1 31.0108 262.287 31.8858C262.287 31.9171 263.021 35.7452 260.881 38.9483C259.334 41.2452 256.615 42.7452 252.787 43.4171C242.6 45.2139 241.459 51.8233 240.646 56.6358C239.865 61.1983 239.318 63.2452 234.693 63.6827C229.553 64.1671 225.771 66.0889 223.443 69.4014C219.709 74.6827 221.35 81.4483 221.412 81.7296C221.584 82.4483 222.1 83.0421 222.787 83.3389L228.646 85.8858C228.959 86.0264 229.287 86.0889 229.6 86.0889C229.962 86.0896 230.319 86.008 230.645 85.8503C230.971 85.6926 231.257 85.4628 231.482 85.1784C231.706 84.8939 231.862 84.5623 231.94 84.2084C232.017 83.8546 232.013 83.4878 231.928 83.1358C231.928 83.0889 230.771 78.1671 233.24 74.6983C234.74 72.6046 237.35 71.3546 241.021 71.0108C249.506 70.1983 250.506 64.3077 251.24 60.0108C252.021 55.4796 252.615 51.9014 259.49 50.6983C264.646 49.7921 268.428 47.6046 270.725 44.1827C274.006 39.2452 272.881 33.6671 272.818 33.4327Z" fill="url(#paint20_linear_2060_75697)"/>
<defs>
<linearGradient id="paint0_linear_2060_75697" x1="202.471" y1="346.428" x2="175.761" y2="343.856" gradientUnits="userSpaceOnUse">
<stop stop-color="#12D18E"/>
<stop offset="1" stop-color="#71E3BB"/>
</linearGradient>
<linearGradient id="paint1_linear_2060_75697" x1="183.222" y1="346.124" x2="163.077" y2="343.817" gradientUnits="userSpaceOnUse">
<stop stop-color="#12D18E"/>
<stop offset="1" stop-color="#71E3BB"/>
</linearGradient>
<linearGradient id="paint2_linear_2060_75697" x1="196.979" y1="346.428" x2="179.664" y2="344.761" gradientUnits="userSpaceOnUse">
<stop stop-color="#12D18E"/>
<stop offset="1" stop-color="#71E3BB"/>
</linearGradient>
<linearGradient id="paint3_linear_2060_75697" x1="207.466" y1="308.453" x2="189.288" y2="303.182" gradientUnits="userSpaceOnUse">
<stop stop-color="#12D18E"/>
<stop offset="1" stop-color="#71E3BB"/>
</linearGradient>
<linearGradient id="paint4_linear_2060_75697" x1="175.03" y1="307.917" x2="156.853" y2="302.646" gradientUnits="userSpaceOnUse">
<stop stop-color="#12D18E"/>
<stop offset="1" stop-color="#71E3BB"/>
</linearGradient>
<linearGradient id="paint5_linear_2060_75697" x1="218.622" y1="287.892" x2="190.602" y2="279.768" gradientUnits="userSpaceOnUse">
<stop stop-color="#12D18E"/>
<stop offset="1" stop-color="#71E3BB"/>
</linearGradient>
<linearGradient id="paint6_linear_2060_75697" x1="56.0082" y1="177.243" x2="23.8616" y2="169.807" gradientUnits="userSpaceOnUse">
<stop stop-color="#12D18E"/>
<stop offset="1" stop-color="#71E3BB"/>
</linearGradient>
<linearGradient id="paint7_linear_2060_75697" x1="320.731" y1="219.417" x2="303.192" y2="218.505" gradientUnits="userSpaceOnUse">
<stop stop-color="#12D18E"/>
<stop offset="1" stop-color="#71E3BB"/>
</linearGradient>
<linearGradient id="paint8_linear_2060_75697" x1="358" y1="250" x2="341.341" y2="245.17" gradientUnits="userSpaceOnUse">
<stop stop-color="#6949FF"/>
<stop offset="1" stop-color="#876DFF"/>
</linearGradient>
<linearGradient id="paint9_linear_2060_75697" x1="18" y1="239" x2="-3.41838" y2="232.79" gradientUnits="userSpaceOnUse">
<stop stop-color="#FF5A5F"/>
<stop offset="1" stop-color="#FF8A9B"/>
</linearGradient>
<linearGradient id="paint10_linear_2060_75697" x1="316.865" y1="205.471" x2="262.015" y2="194.709" gradientUnits="userSpaceOnUse">
<stop stop-color="#12D18E"/>
<stop offset="1" stop-color="#71E3BB"/>
</linearGradient>
<linearGradient id="paint11_linear_2060_75697" x1="305.491" y1="198.531" x2="227.234" y2="162.998" gradientUnits="userSpaceOnUse">
<stop stop-color="#12D18E"/>
<stop offset="1" stop-color="#71E3BB"/>
</linearGradient>
<linearGradient id="paint12_linear_2060_75697" x1="83.8789" y1="194.304" x2="25.9055" y2="180.214" gradientUnits="userSpaceOnUse">
<stop stop-color="#12D18E"/>
<stop offset="1" stop-color="#71E3BB"/>
</linearGradient>
<linearGradient id="paint13_linear_2060_75697" x1="176.001" y1="224.667" x2="251.12" y2="226.791" gradientUnits="userSpaceOnUse">
<stop stop-color="#FB9400"/>
<stop offset="1" stop-color="#FFAB38"/>
</linearGradient>
<linearGradient id="paint14_linear_2060_75697" x1="131.642" y1="230.179" x2="151.791" y2="188.43" gradientUnits="userSpaceOnUse">
<stop stop-color="#FB9400"/>
<stop offset="1" stop-color="#FFAB38"/>
</linearGradient>
<linearGradient id="paint15_linear_2060_75697" x1="79.5075" y1="176.405" x2="54.1937" y2="171.941" gradientUnits="userSpaceOnUse">
<stop stop-color="#12D18E"/>
<stop offset="1" stop-color="#71E3BB"/>
</linearGradient>
<linearGradient id="paint16_linear_2060_75697" x1="91.0008" y1="46" x2="144.905" y2="64.2488" gradientUnits="userSpaceOnUse">
<stop stop-color="#FB9400"/>
<stop offset="1" stop-color="#FFAB38"/>
</linearGradient>
<linearGradient id="paint17_linear_2060_75697" x1="333" y1="59" x2="309.202" y2="52.0999" gradientUnits="userSpaceOnUse">
<stop stop-color="#FF5A5F"/>
<stop offset="1" stop-color="#FF8A9B"/>
</linearGradient>
<linearGradient id="paint18_linear_2060_75697" x1="63" y1="36" x2="46.3413" y2="31.17" gradientUnits="userSpaceOnUse">
<stop stop-color="#6949FF"/>
<stop offset="1" stop-color="#876DFF"/>
</linearGradient>
<linearGradient id="paint19_linear_2060_75697" x1="234.828" y1="30.0625" x2="169.279" y2="-23.5651" gradientUnits="userSpaceOnUse">
<stop stop-color="#246BFD"/>
<stop offset="1" stop-color="#5089FD"/>
</linearGradient>
<linearGradient id="paint20_linear_2060_75697" x1="273.054" y1="86.0889" x2="210.294" y2="69.4969" gradientUnits="userSpaceOnUse">
<stop stop-color="#FB9400"/>
<stop offset="1" stop-color="#FFAB38"/>
</linearGradient>
</defs>
</svg>
