<svg width="320" height="363" viewBox="0 0 320 363" fill="none" xmlns="http://www.w3.org/2000/svg">
<g clip-path="url(#clip0_2060_118999)">
<path d="M155.429 241.371C154.909 241.997 154.208 242.448 153.423 242.663C152.637 242.878 151.805 242.846 151.038 242.572C150.271 242.299 149.607 241.796 149.136 241.132C148.665 240.468 148.409 239.676 148.403 238.862C148.176 238.52 148.014 238.275 147.787 237.933C145.801 237.176 143.634 237.029 141.565 237.512C139.495 237.994 137.616 239.083 136.17 240.639C134.723 242.195 133.775 244.148 133.446 246.246C133.116 248.345 133.422 250.493 134.323 252.417C139.293 263.312 143.618 275.491 154.626 281.424C109.804 267.648 75.4034 227.099 68.5242 180.835C70.7035 171.766 69.2549 161.485 63.5521 153.956C61.8396 157.867 56.0097 159.377 54.9097 154.261C54.5944 152.191 54.2972 150.119 53.9817 148.049C31.5339 148.379 38.207 179.223 65.9269 181.603C67.326 190.362 69.6373 198.95 72.8231 207.228C67.2153 200.877 60.179 195.948 52.2931 192.845C44.7779 190.135 36.3213 190.185 28.2042 189.619C18.3227 188.919 12.46 200.668 19.194 207.921C24.3877 204.99 30.9322 209.957 27.3934 215.499C42.1 226.603 62.642 229.104 79.7157 222.326C88.2524 238.352 100.109 252.376 114.494 263.462C96.8947 251.368 77.7994 264.686 60.8903 270.749C59.7308 271.059 58.6866 271.7 57.8852 272.593C57.0837 273.486 56.5596 274.592 56.3767 275.778C56.1938 276.964 56.3601 278.177 56.8554 279.27C57.3506 280.362 58.1533 281.287 59.1655 281.932C61.3 280.914 63.5304 280.11 65.8238 279.532C66.9056 279.268 68.0427 279.344 69.0792 279.751C70.1157 280.158 71.0009 280.876 71.6134 281.805C72.2259 282.735 72.5357 283.831 72.5005 284.944C72.4653 286.056 72.0867 287.13 71.4165 288.019C91.4424 295.444 115.207 289.118 129.466 273.374C137.399 277.841 145.775 281.471 154.459 284.207L175.704 260.914C175.521 260.594 175.323 260.276 175.132 259.965C173.301 262.244 171.198 264.291 168.869 266.06C167.315 254.199 167.891 246.646 155.43 241.371L155.429 241.371Z" fill="#35383F"/>
<path d="M205.73 268.743C206.448 269.126 207.267 269.28 208.076 269.183C208.884 269.086 209.643 268.743 210.25 268.2C210.857 267.657 211.282 266.941 211.468 266.149C211.654 265.357 211.592 264.526 211.29 263.77C211.371 263.368 211.429 263.079 211.51 262.677C213.064 261.228 215.015 260.275 217.114 259.941C219.213 259.608 221.363 259.908 223.29 260.804C225.217 261.7 226.833 263.15 227.93 264.97C229.026 266.789 229.554 268.895 229.446 271.016C228.954 282.98 229.546 295.889 221.59 305.534C257.902 275.877 274.458 225.355 263.369 179.915C257.928 172.337 255.39 162.27 257.83 153.147C260.892 156.124 266.861 155.324 265.949 150.171C265.459 148.135 264.953 146.104 264.464 144.068C285.378 135.911 290.839 166.992 266.064 179.647C268.074 188.286 269.175 197.112 269.349 205.979C272.145 197.983 276.801 190.765 282.934 184.919C288.871 179.576 296.722 176.434 304.026 172.849C312.913 168.476 322.777 177.146 319.277 186.402C313.361 185.646 309.175 192.713 314.544 196.512C305.114 212.34 287.033 222.4 268.663 222.56C266.805 240.621 261.117 258.078 251.978 273.769C263.714 255.934 286.424 261.069 304.373 260.309C305.563 260.159 306.772 260.359 307.851 260.883C308.931 261.408 309.834 262.236 310.451 263.265C311.068 264.294 311.371 265.48 311.325 266.679C311.279 267.878 310.885 269.037 310.19 270.016C307.829 269.877 305.46 269.973 303.118 270.303C302.017 270.466 300.992 270.966 300.186 271.734C299.38 272.501 298.831 273.5 298.614 274.591C298.398 275.683 298.525 276.815 298.977 277.832C299.429 278.849 300.186 279.701 301.142 280.272C285.397 294.698 261 297.799 241.853 288.594C236.192 295.721 229.805 302.241 222.795 308.048L194.328 294.486C194.377 294.121 194.441 293.751 194.5 293.391C197.056 294.812 199.776 295.915 202.6 296.675C199.563 285.104 196.179 278.327 205.729 268.743H205.73Z" fill="#35383F"/>
<path d="M231.349 362.985H190.688L183.869 329.289L181.658 362.985H143.887C143.901 336.523 145.28 310.08 148.019 283.76L148.487 282.167L149.226 279.617L149.694 278.016L157.511 251.19L158.128 249.061H205.194C207.902 251.603 210.401 254.361 212.664 257.307C213.431 258.283 214.231 259.341 215.052 260.48C215.622 261.287 216.212 262.135 216.803 263.023C222.047 270.826 225.967 279.441 228.405 288.521V288.527C228.819 290.08 229.185 291.669 229.504 293.294V293.301C229.789 294.746 230.04 296.21 230.237 297.709C230.386 298.801 230.515 299.906 230.61 301.025C231.175 307.224 230.977 313.469 230.019 319.619L231.349 362.985Z" fill="#2F2E41"/>
<path d="M41.9248 195.844C43.2016 194.345 42.4887 191.642 40.3325 189.808C38.1763 187.974 35.3933 187.702 34.1165 189.201C32.8397 190.7 33.5526 193.403 35.7089 195.237C37.8651 197.071 40.648 197.343 41.9248 195.844Z" fill="#35383F"/>
<path d="M52.1616 187.919C53.4967 186.728 53.907 185.01 53.078 184.082C52.249 183.154 50.4947 183.367 49.1596 184.558C47.8245 185.749 47.4142 187.467 48.2432 188.395C49.0721 189.323 50.8265 189.11 52.1616 187.919Z" fill="url(#paint0_linear_2060_118999)"/>
<path d="M81.3178 185.179C82.6529 183.988 83.0632 182.27 82.2342 181.342C81.4053 180.414 79.651 180.627 78.3159 181.818C76.9808 183.009 76.5704 184.727 77.3994 185.655C78.2284 186.583 79.9827 186.37 81.3178 185.179Z" fill="#35383F"/>
<path d="M68.2451 184.879C69.5219 183.38 68.809 180.678 66.6528 178.843C64.4966 177.009 61.7136 176.737 60.4368 178.236C59.16 179.735 59.873 182.438 62.0292 184.272C64.1854 186.107 66.9684 186.378 68.2451 184.879Z" fill="url(#paint1_linear_2060_118999)"/>
<path d="M26.1694 180.89C27.5045 179.699 27.9148 177.981 27.0858 177.053C26.2568 176.125 24.5025 176.338 23.1674 177.529C21.8323 178.72 21.422 180.438 22.251 181.366C23.0799 182.294 24.8343 182.081 26.1694 180.89Z" fill="#3F3D56"/>
<path d="M22.3467 168.652C23.6235 167.153 22.9106 164.451 20.7544 162.616C18.5982 160.782 15.8152 160.51 14.5384 162.009C13.2616 163.508 13.9745 166.211 16.1307 168.045C18.2869 169.88 21.0699 170.151 22.3467 168.652Z" fill="#3F3D56"/>
<path d="M160.896 142.947C161.706 142.865 162.472 142.536 163.089 142.005C163.706 141.474 164.145 140.766 164.346 139.977C164.547 139.189 164.5 138.357 164.213 137.596C163.925 136.834 163.41 136.18 162.738 135.72C162.581 135.342 162.468 135.069 162.311 134.69C162.792 132.621 163.88 130.743 165.437 129.297C166.993 127.85 168.946 126.901 171.045 126.571C173.144 126.24 175.295 126.544 177.22 127.444C179.146 128.343 180.758 129.796 181.852 131.618C188.118 141.823 195.81 152.211 194.586 164.651C208.186 119.796 193.747 68.6295 159.193 37.0872C150.449 33.8285 142.726 26.8858 139.662 17.9527C143.864 18.7174 148.374 14.7272 144.742 10.9579C143.2 9.5401 141.647 8.13686 140.105 6.71892C152.916 -11.7071 174.788 11.052 161.281 35.3628C167.769 41.4145 173.605 48.1274 178.696 55.3921C176.558 47.1958 176.396 38.609 178.226 30.3382C180.174 22.5941 184.939 15.611 189.002 8.56517C193.94 -0.0180716 206.965 1.68308 209.224 11.317C203.89 13.9858 204.358 22.186 210.933 22.3472C211.935 40.7416 202.538 59.1689 187.377 69.5387C195.909 85.5669 200.926 103.229 202.093 121.347C201.885 100.002 223.603 91.6087 238.079 80.9761C238.984 80.1879 240.098 79.68 241.287 79.5142C242.476 79.3485 243.687 79.5321 244.773 80.0427C245.859 80.5533 246.773 81.3687 247.404 82.3896C248.034 83.4105 248.354 84.5927 248.323 85.7919C246.286 86.9927 244.373 88.3928 242.613 89.9716C241.789 90.7209 241.218 91.7064 240.976 92.7931C240.735 93.8797 240.836 95.0143 241.266 96.0413C241.695 97.0683 242.432 97.9374 243.375 98.5295C244.318 99.1216 245.421 99.4077 246.533 99.3487C241.51 120.098 222.987 136.268 201.957 139.296C201.233 148.368 199.568 157.339 196.989 166.066L165.791 170.671C165.628 170.341 165.475 169.998 165.323 169.667C168.238 169.422 171.111 168.821 173.88 167.878C164.904 159.965 158.314 156.225 160.895 142.947L160.896 142.947Z" fill="#35383F"/>
<path d="M192.273 132.949C178.07 132.949 170.366 131.214 167.676 127.511C165.302 124.244 166.893 119.933 168.736 114.942C170.061 111.354 171.562 107.288 171.562 103.264C171.562 83.6905 181.492 73.7656 201.076 73.7656C210.82 73.7656 221.282 78.939 229.062 87.6046C236.135 95.4824 239.658 104.911 238.729 113.472C237.967 120.494 234.697 125.111 228.439 128.004L228.073 128.173L227.969 127.784C227.428 125.769 226.514 123.873 225.272 122.196C225.151 124.829 224.487 127.408 223.322 129.773L223.255 129.907L223.111 129.949C216.027 131.965 207.621 132.512 201.089 132.762C197.909 132.886 194.971 132.948 192.273 132.949Z" fill="#2F2E41"/>
<path d="M196.145 160.221C195.6 158.621 194.682 157.175 193.466 156.001C192.251 154.827 190.772 153.961 189.154 153.472C187.536 152.984 185.825 152.888 184.163 153.193C182.5 153.498 180.934 154.195 179.595 155.226L132.878 183.143L118.259 147.492C119.494 145.681 120.123 143.526 120.057 141.335C119.991 139.145 119.232 137.032 117.89 135.299C116.548 133.566 114.691 132.303 112.586 131.69C110.481 131.077 108.236 131.146 106.173 131.887C104.109 132.629 102.334 134.004 101.101 135.816C99.868 137.628 99.241 139.784 99.3098 141.974C99.3786 144.165 100.14 146.277 101.484 148.008C102.828 149.74 104.686 151.001 106.792 151.612C107.693 161.892 112.7 207.842 130.12 206.172C144.762 204.768 181.125 180.564 192.419 172.172C194.226 170.83 195.56 168.95 196.23 166.803C196.899 164.655 196.869 162.35 196.145 160.221Z" fill="#FFB6B6"/>
<path d="M100.037 175.272C101.372 174.081 101.782 172.363 100.953 171.435C100.124 170.507 98.3697 170.72 97.0346 171.911C95.6995 173.102 95.2892 174.82 96.1182 175.748C96.9471 176.676 98.7014 176.463 100.037 175.272Z" fill="#3F3D56"/>
<path d="M47.56 170.506C48.8951 169.315 49.3054 167.597 48.4765 166.669C47.6475 165.74 45.8932 165.953 44.5581 167.144C43.2229 168.335 42.8126 170.053 43.6416 170.982C44.4706 171.91 46.2249 171.697 47.56 170.506Z" fill="#35383F"/>
<path d="M185.403 138.398L207.804 137.245L218.208 153.676C218.208 153.676 237.784 156.948 236.427 180.004C235.07 203.06 212.609 223.292 212.609 223.292L213.569 235.298L211.901 240.061L212.115 242.735L214.39 245.567L214.624 248.495L212.609 253.129L215.35 257.566L157.724 251.986L155.617 244.314L158.691 240.194L156.974 234.82L159.555 229.651L160.901 213.233C160.901 213.233 146.175 191.121 163.08 174.467L169.865 162.939L177.456 153.682L185.403 138.398Z" fill="url(#paint2_linear_2060_118999)"/>
<path d="M3.06506 116.904C4.27649 116.617 4.92441 114.974 4.51223 113.233C4.10004 111.493 2.78384 110.314 1.5724 110.601C0.360967 110.887 -0.286951 112.531 0.125233 114.271C0.537418 116.012 1.85362 117.19 3.06506 116.904Z" fill="#3F3D56"/>
<path d="M3.25957 95.7308C4.47097 95.4441 5.11905 93.8006 4.70707 92.06C4.29509 90.3195 2.97906 89.1409 1.76766 89.4276C0.556252 89.7143 -0.091804 91.3578 0.320176 93.0984C0.732157 94.839 2.04817 96.0175 3.25957 95.7308Z" fill="#35383F"/>
<path d="M196.541 133.758C209.65 133.758 220.277 123.137 220.277 110.035C220.277 96.9325 209.65 86.311 196.541 86.311C183.432 86.311 172.805 96.9325 172.805 110.035C172.805 123.137 183.432 133.758 196.541 133.758Z" fill="#FFB6B6"/>
<path d="M193.362 108.597C191.317 108.597 189.273 108.539 187.23 108.424L186.865 108.403L186.913 108.041C187.214 105.776 187.044 103.474 186.415 101.278C185.346 103.779 183.757 106.023 181.752 107.861L181.639 107.964L181.486 107.948C175.937 107.341 170.439 106.339 165.033 104.949L164.826 104.896L164.784 104.686C164.381 102.705 164.172 100.688 164.16 98.6661C164.16 92.3488 166.452 87.0317 170.613 83.6944C175.142 80.0617 181.635 78.9446 188.901 80.5468H212.135C214.69 80.5497 217.139 81.5652 218.945 83.3704C220.751 85.1757 221.767 87.6233 221.77 90.1763V104.882L221.516 104.948C212.326 107.362 202.865 108.588 193.362 108.597Z" fill="#2F2E41"/>
<path d="M12.8798 83.2252C15.5204 82.2035 17.0847 79.8869 16.3736 78.0509C15.6625 76.2149 12.9454 75.5547 10.3047 76.5764C7.6641 77.5981 6.09989 79.9146 6.81097 81.7507C7.52206 83.5867 10.2392 84.2468 12.8798 83.2252Z" fill="url(#paint3_linear_2060_118999)"/>
<path d="M32.2447 73.0497C33.4562 72.7631 34.1041 71.1198 33.6919 69.3793C33.2797 67.6388 31.9635 66.4601 30.7521 66.7467C29.5407 67.0333 28.8927 68.6766 29.3049 70.4171C29.7171 72.1576 31.0333 73.3363 32.2447 73.0497Z" fill="#35383F"/>
<path d="M14.733 68.7997C15.9445 68.5132 16.5924 66.8699 16.1802 65.1293C15.768 63.3888 14.4518 62.2101 13.2404 62.4967C12.0289 62.7833 11.381 64.4266 11.7932 66.1671C12.2054 67.9077 13.5216 69.0863 14.733 68.7997Z" fill="url(#paint4_linear_2060_118999)"/>
<path d="M263.774 118.319L238.659 178.387C237.588 180.929 235.559 182.947 233.012 184.007C230.464 185.068 227.601 185.084 225.042 184.053C223.718 183.52 222.516 182.723 221.51 181.71C220.504 180.698 219.715 179.491 219.191 178.164C218.667 176.837 218.419 175.417 218.462 173.99C218.505 172.564 218.838 171.162 219.441 169.868L247.443 108.272L262.879 70.1263C261.545 68.7966 260.653 67.0887 260.324 65.2347C259.995 63.3807 260.245 61.4705 261.04 59.7635C261.836 58.0565 263.137 56.6355 264.768 55.6936C266.4 54.7517 268.282 54.3346 270.158 54.4988C272.035 54.6631 273.816 55.4009 275.258 56.6118C276.701 57.8228 277.736 59.4483 278.222 61.2674C278.708 63.0866 278.622 65.0112 277.976 66.7799C277.329 68.5485 276.154 70.0754 274.609 71.1531L263.774 118.319Z" fill="#FFB6B6"/>
<path d="M15.7626 54.8741C18.4032 53.8524 19.9675 51.5358 19.2564 49.6998C18.5453 47.8638 15.8282 47.2037 13.1875 48.2253C10.5469 49.247 8.9827 51.5636 9.69379 53.3996C10.4049 55.2356 13.122 55.8957 15.7626 54.8741Z" fill="#35383F"/>
<path d="M180.636 54.1733C182.404 53.3044 182.823 50.5413 181.574 48.0018C180.324 45.4622 177.878 44.1078 176.111 44.9766C174.343 45.8455 173.923 48.6085 175.173 51.1481C176.422 53.6877 178.868 55.0421 180.636 54.1733Z" fill="#3F3D56"/>
<path d="M33.2955 49.3032C34.507 49.0166 35.1549 47.3733 34.7427 45.6327C34.3305 43.8922 33.0143 42.7135 31.8029 43.0001C30.5914 43.2867 29.9435 44.93 30.3557 46.6705C30.7679 48.4111 32.0841 49.5897 33.2955 49.3032Z" fill="#3F3D56"/>
<path d="M49.0126 50.6114C51.6532 49.5897 53.2175 47.2731 52.5064 45.4371C51.7953 43.6011 49.0782 42.941 46.4375 43.9626C43.7969 44.9843 42.2327 47.3009 42.9438 49.1369C43.6549 50.9729 46.372 51.633 49.0126 50.6114Z" fill="#3F3D56"/>
<path d="M31.3998 82.2084C30.3597 82.5886 29.513 83.3657 29.0453 84.3691C28.5777 85.3725 28.5274 86.5203 28.9055 87.5607L53.9707 156.301C54.3511 157.341 55.1285 158.187 56.1324 158.655C57.1363 159.122 58.2848 159.172 59.3257 158.794L156.608 123.359C157.648 122.979 158.495 122.202 158.962 121.198C159.43 120.195 159.48 119.047 159.102 118.007L134.037 49.2662C133.657 48.2266 132.879 47.3803 131.875 46.9129C130.871 46.4455 129.723 46.3952 128.682 46.773L31.3998 82.2084Z" fill="#1F222A"/>
<path d="M120.402 132.757L60.8557 154.447C59.7353 154.854 58.4993 154.8 57.4188 154.297C56.3383 153.794 55.5016 152.883 55.0922 151.764L32.3583 89.417C31.9514 88.2972 32.0055 87.0618 32.5088 85.9818C33.012 84.9019 33.9234 84.0655 35.0428 83.6563L126.828 50.2234C127.948 49.8167 129.184 49.8708 130.265 50.3738C131.345 50.8769 132.182 51.7878 132.592 52.9067L143.576 83.0322C147.089 92.6982 146.621 103.362 142.277 112.684C137.932 122.006 130.066 129.225 120.402 132.757Z" fill="#35383F"/>
<path d="M68.1289 96.2946L69.7402 100.722L60.4984 104.085L62.2391 108.868L69.1543 106.351L70.7186 110.649L63.8033 113.166L67.1436 122.343L61.6178 124.354L53.3613 101.67L68.1289 96.2946Z" fill="url(#paint5_linear_2060_118999)"/>
<path d="M90.8582 113.712L83.0235 106.865L81.6986 107.348L84.8154 115.911L79.2897 117.922L71.0332 95.2375L80.3073 91.862C82.0954 91.2112 83.7278 90.9708 85.2047 91.1408C86.7031 91.3029 87.9647 91.8196 88.9893 92.6909C90.0061 93.5406 90.7575 94.6333 91.2437 95.969C91.7925 97.477 91.8517 98.9802 91.4213 100.479C91.0124 101.969 90.0687 103.264 88.5902 104.364L97.0948 111.442L90.8582 113.712ZM80.2755 103.438L83.7008 102.191C84.7133 101.822 85.3771 101.3 85.6923 100.624C86.029 99.9407 86.0326 99.1465 85.7033 98.2417C85.3897 97.38 84.8842 96.7955 84.1868 96.4882C83.511 96.173 82.6668 96.1997 81.6543 96.5682L78.229 97.8149L80.2755 103.438Z" fill="url(#paint6_linear_2060_118999)"/>
<path d="M99.2502 89.9809L100.92 94.5695L108.32 91.8761L109.873 96.1416L102.473 98.835L104.284 103.811L112.653 100.765L114.265 105.192L100.37 110.25L92.1131 87.565L106.008 82.5076L107.62 86.9347L99.2502 89.9809Z" fill="url(#paint7_linear_2060_118999)"/>
<path d="M116.733 83.6178L118.403 88.2064L125.803 85.513L127.355 89.7785L119.955 92.4719L121.767 97.4483L130.136 94.4021L131.747 98.8291L117.852 103.887L109.596 81.2019L123.491 76.1445L125.102 80.5716L116.733 83.6178Z" fill="url(#paint8_linear_2060_118999)"/>
<path d="M155.123 37.5399C156.822 36.9771 157.881 35.5633 157.49 34.3823C157.098 33.2013 155.403 32.7001 153.705 33.263C152.006 33.8259 150.947 35.2397 151.338 36.4207C151.73 37.6017 153.425 38.1028 155.123 37.5399Z" fill="#35383F"/>
<path d="M178.885 36.5038C180.584 35.9409 181.643 34.5272 181.251 33.3461C180.86 32.1651 179.165 31.664 177.466 32.2269C175.768 32.7898 174.708 34.2035 175.1 35.3845C175.492 36.5656 177.186 37.0667 178.885 36.5038Z" fill="#3F3D56"/>
<path d="M157.826 19.7333C159.525 19.1704 160.584 17.7567 160.193 16.5756C159.801 15.3946 158.106 14.8935 156.408 15.4564C154.709 16.0193 153.65 17.433 154.041 18.614C154.433 19.7951 156.128 20.2962 157.826 19.7333Z" fill="url(#paint9_linear_2060_118999)"/>
<path d="M173.476 21.4443C175.243 20.5754 175.663 17.8123 174.414 15.2727C173.164 12.7332 170.718 11.3788 168.95 12.2476C167.183 13.1165 166.763 15.8795 168.013 18.4191C169.262 20.9587 171.708 22.3131 173.476 21.4443Z" fill="#35383F"/>
<path d="M144.964 21.0576C146.732 20.1887 147.152 17.4256 145.902 14.886C144.652 12.3465 142.206 10.992 140.439 11.8609C138.671 12.7297 138.251 15.4928 139.501 18.0324C140.751 20.572 143.197 21.9264 144.964 21.0576Z" fill="url(#paint10_linear_2060_118999)"/>
<path d="M108.858 12.329C110.556 11.7661 111.616 10.3524 111.224 9.17136C110.832 7.99032 109.138 7.48921 107.439 8.0521C105.74 8.61499 104.681 10.0287 105.073 11.2097C105.464 12.3908 107.159 12.8919 108.858 12.329Z" fill="#3F3D56"/>
<path d="M129.979 10.6708C131.677 10.1079 132.737 8.6942 132.345 7.51316C131.953 6.33213 130.259 5.831 128.56 6.39389C126.861 6.95677 125.802 8.37051 126.194 9.55155C126.586 10.7326 128.28 11.2337 129.979 10.6708Z" fill="#35383F"/>
</g>
<defs>
<linearGradient id="paint0_linear_2060_118999" x1="54.579" y1="185.763" x2="47.2895" y2="188.292" gradientUnits="userSpaceOnUse">
<stop stop-color="#FF5A5F"/>
<stop offset="1" stop-color="#FF8A9B"/>
</linearGradient>
<linearGradient id="paint1_linear_2060_118999" x1="70.557" y1="182.165" x2="63.4707" y2="187.742" gradientUnits="userSpaceOnUse">
<stop stop-color="#FF5A5F"/>
<stop offset="1" stop-color="#FF8A9B"/>
</linearGradient>
<linearGradient id="paint2_linear_2060_118999" x1="236.495" y1="257.566" x2="135.225" y2="237.668" gradientUnits="userSpaceOnUse">
<stop stop-color="#12D18E"/>
<stop offset="1" stop-color="#71E3BB"/>
</linearGradient>
<linearGradient id="paint3_linear_2060_118999" x1="17.6611" y1="81.3753" x2="5.45599" y2="81.0631" gradientUnits="userSpaceOnUse">
<stop stop-color="#FF5A5F"/>
<stop offset="1" stop-color="#FF8A9B"/>
</linearGradient>
<linearGradient id="paint4_linear_2060_118999" x1="16.9265" y1="68.2808" x2="11.2292" y2="68.4712" gradientUnits="userSpaceOnUse">
<stop stop-color="#FF5A5F"/>
<stop offset="1" stop-color="#FF8A9B"/>
</linearGradient>
<linearGradient id="paint5_linear_2060_118999" x1="131.747" y1="124.354" x2="49.0197" y2="85.3542" gradientUnits="userSpaceOnUse">
<stop stop-color="#12D18E"/>
<stop offset="1" stop-color="#71E3BB"/>
</linearGradient>
<linearGradient id="paint6_linear_2060_118999" x1="131.747" y1="124.354" x2="49.0197" y2="85.3542" gradientUnits="userSpaceOnUse">
<stop stop-color="#12D18E"/>
<stop offset="1" stop-color="#71E3BB"/>
</linearGradient>
<linearGradient id="paint7_linear_2060_118999" x1="131.747" y1="124.354" x2="49.0197" y2="85.3542" gradientUnits="userSpaceOnUse">
<stop stop-color="#12D18E"/>
<stop offset="1" stop-color="#71E3BB"/>
</linearGradient>
<linearGradient id="paint8_linear_2060_118999" x1="131.747" y1="124.354" x2="49.0197" y2="85.3542" gradientUnits="userSpaceOnUse">
<stop stop-color="#12D18E"/>
<stop offset="1" stop-color="#71E3BB"/>
</linearGradient>
<linearGradient id="paint9_linear_2060_118999" x1="160.902" y1="18.7141" x2="153.208" y2="18.1375" gradientUnits="userSpaceOnUse">
<stop stop-color="#FF5A5F"/>
<stop offset="1" stop-color="#FF8A9B"/>
</linearGradient>
<linearGradient id="paint10_linear_2060_118999" x1="148.165" y1="19.4844" x2="139.444" y2="21.7871" gradientUnits="userSpaceOnUse">
<stop stop-color="#FF5A5F"/>
<stop offset="1" stop-color="#FF8A9B"/>
</linearGradient>
<clipPath id="clip0_2060_118999">
<rect width="320" height="362.985" fill="white"/>
</clipPath>
</defs>
</svg>
