<?xml version="1.0" standalone="no"?>
<!DOCTYPE svg PUBLIC "-//W3C//DTD SVG 20010904//EN"
 "http://www.w3.org/TR/2001/REC-SVG-20010904/DTD/svg10.dtd">
<svg version="1.0" xmlns="http://www.w3.org/2000/svg"
 width="430.000000pt" height="380.000000pt" viewBox="0 0 430.000000 380.000000"
 preserveAspectRatio="xMidYMid meet">

<g transform="translate(0.000000,380.000000) scale(0.100000,-0.100000)"
fill="#000000" stroke="none">
<path d="M70 3782 l-65 -17 -3 -172 -2 -172 30 11 c41 14 92 3 120 -27 20 -21
22 -31 17 -77 -10 -103 -56 -158 -131 -158 l-36 0 2 -167 3 -168 80 -19 c75
-19 83 -19 158 -3 222 46 364 184 413 404 16 73 16 83 1 156 -44 215 -175 354
-383 407 -92 24 -118 24 -204 2z m340 -370 c38 -31 25 -108 -22 -133 -12 -6
-44 -14 -72 -18 -50 -6 -50 -6 -59 -48 -8 -41 -10 -43 -43 -43 -39 0 -39 -2
-20 82 8 35 20 89 26 121 l11 57 79 0 c61 0 83 -4 100 -18z"/>
<path d="M290 3366 c0 -8 -3 -22 -6 -31 -6 -14 0 -16 32 -13 34 3 39 6 39 28
0 21 -5 26 -32 28 -24 2 -33 -1 -33 -12z"/>
<path d="M2808 3610 l-3 -181 -140 -63 c-76 -35 -140 -68 -142 -72 -3 -11 285
-180 300 -176 6 2 75 42 153 88 l142 86 -149 249 c-83 137 -152 249 -154 249
-3 0 -6 -81 -7 -180z"/>
<path d="M3775 3665 c-60 -36 -118 -74 -127 -86 -15 -18 -18 -42 -18 -148 0
-95 4 -132 15 -148 18 -25 235 -153 260 -153 23 0 385 209 392 225 2 7 3 31 1
54 l-3 41 -155 -90 c-85 -50 -174 -100 -197 -112 l-41 -21 -80 47 c-44 26 -83
54 -86 62 -8 21 -8 168 0 188 9 23 137 96 169 96 26 0 129 -56 160 -86 10 -10
15 -35 15 -69 l0 -55 45 28 c45 27 45 27 45 84 0 53 -2 59 -32 81 -64 48 -209
127 -231 127 -12 -1 -71 -30 -132 -65z"/>
<path d="M24 3355 c-9 -14 -19 -48 -22 -74 -3 -39 -1 -49 13 -55 41 -15 92 63
83 127 -5 34 -52 35 -74 2z"/>
<path d="M2953 3132 l-143 -86 0 -125 c0 -121 1 -125 17 -101 10 14 77 109
150 213 73 103 129 187 125 186 -4 0 -71 -40 -149 -87z"/>
<path d="M4123 3154 c-38 -22 -43 -29 -43 -62 0 -68 9 -81 84 -124 39 -22 86
-49 104 -60 l32 -20 0 55 0 56 -54 30 c-60 35 -66 44 -66 107 0 24 -3 44 -7
44 -5 0 -27 -12 -50 -26z"/>
<path d="M4040 2384 c-100 -22 -187 -69 -258 -140 -73 -73 -114 -152 -137
-266 -15 -71 -15 -85 -1 -155 44 -216 191 -363 406 -408 62 -13 86 -14 140 -4
116 21 110 14 110 129 l0 100 -39 0 c-89 0 -90 18 -16 149 l55 98 -2 239 -3
239 -50 12 c-82 21 -136 23 -205 7z m161 -204 c31 -54 49 -97 49 -118 0 -23
-29 -82 -100 -206 -55 -95 -110 -182 -121 -192 -17 -15 -40 -20 -110 -23 -111
-4 -139 2 -139 31 0 18 223 425 307 561 36 58 56 48 114 -53z"/>
<path d="M1075 1900 l91 -91 122 3 123 3 -169 88 c-137 71 -177 87 -213 87
l-44 0 90 -90z"/>
<path d="M1075 1610 c-51 -51 -83 -91 -75 -91 8 -1 195 -1 415 1 l400 2 28 26
27 26 -117 63 -118 63 -235 0 -235 0 -90 -90z"/>
<path d="M1380 981 c-199 -53 -342 -206 -380 -408 -11 -62 -11 -84 0 -145 40
-213 195 -371 407 -414 254 -53 513 131 569 403 52 249 -126 506 -390 567 -83
20 -123 19 -206 -3z m25 -298 c19 -20 35 -39 35 -42 0 -3 -15 -21 -32 -40
l-31 -35 -27 32 c-25 31 -30 32 -98 32 l-72 0 0 48 0 47 95 -3 c95 -3 96 -4
130 -39z m395 -3 l0 -50 -72 0 -73 0 -47 -60 c-27 -32 -48 -62 -48 -66 0 -3
21 -33 48 -65 l47 -59 73 0 72 0 0 -50 0 -50 -76 0 c-96 0 -127 15 -183 85
-24 30 -47 55 -51 55 -4 0 -27 -25 -51 -57 -53 -68 -86 -83 -184 -83 l-75 0 0
50 0 50 73 0 73 0 129 160 c72 88 137 163 145 167 8 4 56 10 105 13 50 4 91 7
93 8 1 1 2 -20 2 -48z"/>
<path d="M4054 989 c-29 -5 -73 -17 -99 -27 l-46 -18 30 -23 30 -23 -27 -25
c-25 -23 -25 -24 -2 -9 34 22 63 20 88 -7 30 -32 28 -71 -4 -96 -15 -12 -22
-21 -17 -21 5 0 20 11 33 25 l24 25 48 -47 c33 -33 48 -55 48 -74 0 -49 63
-120 120 -134 14 -3 5 5 -20 17 -82 42 -111 119 -70 185 19 32 66 63 95 63 12
0 15 15 15 85 l0 84 -37 10 c-61 15 -154 20 -209 10z"/>
<path d="M2672 940 c-89 -25 -94 -33 -51 -75 l35 -36 54 12 c49 10 146 8 235
-6 25 -4 35 1 59 31 36 43 30 50 -60 75 -85 24 -189 23 -272 -1z"/>
<path d="M0 920 c0 -32 -12 -28 220 -70 172 -31 168 -23 57 -118 -53 -45 -101
-82 -106 -82 -6 0 -25 13 -43 28 -18 15 -54 45 -81 66 l-47 38 0 -33 c0 -30 9
-41 70 -92 48 -39 70 -65 70 -80 1 -42 -44 -407 -49 -407 -3 0 -25 46 -48 103
l-42 102 -1 -75 c0 -65 5 -89 41 -180 23 -58 46 -109 50 -114 5 -6 18 2 30 18
12 15 133 163 270 329 137 166 249 309 249 318 0 19 -167 184 -195 192 -11 3
-108 22 -215 42 -107 19 -203 37 -212 39 -14 3 -18 -2 -18 -24z m499 -177 c38
-33 49 -48 39 -53 -7 -4 -69 -17 -138 -29 -69 -13 -132 -25 -140 -27 -19 -6 5
18 95 95 39 33 75 60 80 60 6 1 34 -20 64 -46z m29 -131 c-31 -43 -372 -451
-375 -449 -3 4 45 408 49 412 3 2 304 53 326 54 11 1 11 -2 0 -17z"/>
<path d="M3188 691 l-17 -68 26 -63 c36 -90 43 -202 15 -255 -61 -120 -261
-235 -407 -235 -140 1 -362 139 -411 257 -19 43 -6 146 29 232 l23 56 -22 70
-21 70 -31 -65 c-44 -91 -59 -191 -42 -281 35 -201 184 -349 398 -395 78 -17
86 -17 164 0 107 23 188 65 260 134 143 137 184 350 101 534 -38 86 -45 87
-65 9z"/>
<path d="M3949 653 c-13 -16 -12 -17 4 -4 16 13 21 21 13 21 -2 0 -10 -8 -17
-17z"/>
<path d="M3990 486 l0 -186 83 0 82 1 60 75 c66 83 103 137 65 94 -12 -14 -31
-36 -42 -49 -22 -29 -8 -41 -147 127 l-101 124 0 -186z"/>
<path d="M3004 541 c-113 -54 -125 -103 -19 -76 68 18 95 38 95 71 0 35 -12
36 -76 5z"/>
<path d="M2547 554 c-30 -30 21 -75 106 -94 84 -18 86 10 5 60 -52 32 -98 47
-111 34z"/>
<path d="M2760 356 c0 -29 5 -38 30 -51 56 -29 28 -71 -40 -60 l-41 7 18 -35
c17 -33 18 -33 21 -11 3 23 7 24 73 24 62 0 69 -2 69 -20 0 -25 9 -25 26 -2
24 31 17 43 -27 40 -30 -2 -44 2 -53 15 -9 14 -6 21 17 40 22 17 28 29 25 52
-3 29 -5 30 -60 33 l-58 3 0 -35z"/>
<path d="M2780 212 c0 -10 66 -10 76 1 4 4 -11 7 -34 7 -23 0 -42 -4 -42 -8z"/>
<path d="M3858 84 c106 -74 265 -99 405 -63 34 9 37 13 37 44 l0 35 -232 0
c-213 0 -231 -1 -210 -16z"/>
</g>
</svg>
