<svg width="393" height="330" viewBox="0 0 393 330" fill="none" xmlns="http://www.w3.org/2000/svg">
<path d="M25.1865 329.509H354.795C354.962 329.509 355.123 329.442 355.241 329.324C355.359 329.206 355.425 329.046 355.425 328.879C355.425 328.712 355.359 328.552 355.241 328.434C355.123 328.315 354.962 328.249 354.795 328.249H25.1865C25.0194 328.249 24.8592 328.315 24.7411 328.434C24.623 328.552 24.5566 328.712 24.5566 328.879C24.5566 329.046 24.623 329.206 24.7411 329.324C24.8592 329.442 25.0194 329.509 25.1865 329.509Z" fill="#35383F"/>
<path d="M342.029 305.573C344.806 305.573 347.058 303.321 347.058 300.542C347.058 297.763 344.806 295.51 342.029 295.51C339.252 295.51 337 297.763 337 300.542C337 303.321 339.252 305.573 342.029 305.573Z" fill="url(#paint0_linear_2060_118928)"/>
<path d="M298.327 281.1C293.451 281.1 288.492 280.991 283.449 280.774L283.503 279.517C321.135 281.147 354.338 276.641 379.529 266.483L379.999 267.65C358.024 276.51 330.015 281.1 298.327 281.1Z" fill="#616161"/>
<path d="M268.784 282.988C263.908 282.988 258.949 282.879 253.906 282.661L253.96 281.404C291.592 283.034 324.795 278.528 349.986 268.371L350.456 269.538C328.481 278.397 300.472 282.988 268.784 282.988Z" fill="#616161"/>
<path d="M274.501 244.231C250.442 244.231 224.298 240.654 198.33 233.775C166.216 225.268 136.772 212.428 113.18 196.643L113.878 195.598C137.357 211.306 166.671 224.088 198.651 232.558C227.552 240.214 256.669 243.762 282.844 242.825L282.889 244.082C280.125 244.182 277.329 244.231 274.501 244.231Z" fill="#616161"/>
<path d="M329.696 236.32L329.293 235.129C350.81 227.849 364.268 216.123 368.212 201.217C373.226 182.267 362.334 160.278 337.542 139.298C312.624 118.213 276.692 100.717 236.363 90.0341L236.685 88.8179C277.19 99.5474 313.297 117.134 338.354 138.338C363.537 159.648 374.573 182.094 369.428 201.539C365.371 216.873 351.632 228.9 329.696 236.32Z" fill="#616161"/>
<path d="M375.436 228.11C370.332 215.526 358.834 204.861 345.291 203.952C353.773 216.039 357.709 230.738 356.402 245.449C355.877 251.121 354.704 257.374 357.89 262.094C359.872 265.031 363.265 266.775 366.731 267.505C370.197 268.235 373.782 268.065 377.32 267.891L378.124 268.26C380.22 254.841 380.541 240.694 375.436 228.11Z" fill="url(#paint1_linear_2060_118928)"/>
<path d="M345.234 204.231C354.63 210.394 361.845 219.363 365.856 229.864C366.76 232.109 367.304 234.483 367.469 236.897C367.554 239.255 367.006 241.592 365.882 243.666C364.874 245.621 363.616 247.503 363.1 249.67C362.852 250.782 362.842 251.935 363.071 253.052C363.299 254.168 363.761 255.224 364.426 256.15C366.024 258.499 368.369 260.134 370.719 261.654C373.327 263.341 376.063 265.051 377.709 267.774C377.908 268.104 378.408 267.775 378.209 267.445C375.346 262.709 369.582 261.128 365.968 257.14C364.281 255.279 363.144 252.898 363.574 250.341C363.949 248.105 365.244 246.162 366.283 244.192C367.408 242.185 368.026 239.932 368.081 237.631C368.039 235.216 367.587 232.825 366.744 230.562C364.927 225.435 362.316 220.626 359.007 216.312C355.257 211.366 350.689 207.099 345.5 203.695C345.179 203.484 344.915 204.021 345.234 204.231V204.231Z" fill="white"/>
<path d="M366.524 242.742C362.783 241.68 359.58 239.247 357.552 235.926C357.352 235.597 356.852 235.926 357.052 236.255C359.168 239.706 362.507 242.232 366.402 243.329C366.774 243.433 366.893 242.846 366.524 242.742Z" fill="white"/>
<path d="M364.763 226.407C366.433 225.494 367.724 224.018 368.405 222.241C369.087 220.464 369.115 218.502 368.485 216.707C368.356 216.344 367.787 216.527 367.916 216.89C368.506 218.561 368.479 220.389 367.841 222.042C367.203 223.695 365.995 225.066 364.435 225.906C364.096 226.089 364.427 226.589 364.763 226.407Z" fill="white"/>
<path d="M354.867 212.058C354.294 212.546 353.61 212.883 352.875 213.041C352.14 213.199 351.377 213.171 350.655 212.961C350.285 212.852 350.166 213.439 350.533 213.547C351.332 213.776 352.175 213.805 352.987 213.633C353.8 213.46 354.558 213.091 355.195 212.558C355.259 212.513 355.304 212.445 355.32 212.368C355.336 212.291 355.322 212.211 355.281 212.144C355.237 212.078 355.169 212.032 355.092 212.016C355.014 211.999 354.933 212.015 354.867 212.058H354.867Z" fill="white"/>
<path d="M88.5133 176.831C69.2365 157.843 61.0949 138.034 65.5876 121.053C71.3532 99.2625 96.9667 84.1958 135.861 79.7168L136.004 80.9668C97.6518 85.3831 72.429 100.112 66.8031 121.375C62.4307 137.901 70.4541 157.277 89.3954 175.934L88.5133 176.831Z" fill="#616161"/>
<path d="M132.118 244.757C84.8441 223.778 48.4162 196.561 29.5449 168.118L30.5922 167.422C49.333 195.668 85.5698 222.724 132.627 243.607L132.118 244.757Z" fill="#616161"/>
<path d="M244.958 246.118C220.899 246.118 194.755 242.541 168.787 235.662C136.674 227.155 107.229 214.316 83.6367 198.53L84.3353 197.485C107.814 213.194 137.128 225.975 169.108 234.446C198.009 242.102 227.126 245.649 253.301 244.713L253.346 245.969C250.582 246.069 247.786 246.118 244.958 246.118Z" fill="#616161"/>
<path d="M300.149 238.207L299.746 237.015C321.263 229.736 334.721 218.01 338.666 203.104C343.679 184.154 332.787 162.164 307.996 141.185C283.078 120.099 247.145 102.603 206.816 91.9208L207.138 90.7046C247.643 101.434 283.75 119.021 308.807 140.225C333.99 161.535 345.026 183.98 339.881 203.426C335.824 218.759 322.085 230.786 300.149 238.207Z" fill="#616161"/>
<path d="M313.697 237.344C313.926 237.419 314.155 237.493 314.386 237.573C317.459 238.592 320.445 239.858 323.314 241.361C323.537 241.474 323.762 241.591 323.982 241.71C330.855 245.403 336.982 250.342 342.053 256.273C344.069 258.635 345.902 261.148 347.537 263.788C349.794 267.435 351.952 271.569 355.186 274.179C355.52 274.456 355.871 274.711 356.237 274.944L377.613 269.212C377.655 269.175 377.698 269.142 377.74 269.105L378.604 268.915C378.53 268.773 378.449 268.627 378.374 268.485C378.331 268.402 378.283 268.321 378.24 268.238C378.21 268.184 378.18 268.129 378.155 268.078C378.145 268.06 378.135 268.042 378.127 268.028C378.102 267.977 378.075 267.932 378.052 267.886C377.603 267.07 377.148 266.256 376.687 265.444C376.685 265.439 376.685 265.439 376.679 265.435C373.222 259.211 369.039 253.419 364.218 248.181C364.072 248.026 363.925 247.867 363.769 247.715C361.57 245.414 359.186 243.296 356.642 241.384C355.246 240.341 353.798 239.369 352.303 238.473C348.437 236.164 344.232 234.478 339.842 233.477C331.091 231.483 321.8 232.311 314.269 236.982C314.077 237.101 313.889 237.22 313.697 237.344Z" fill="url(#paint2_linear_2060_118928)"/>
<path d="M313.818 237.603C325.029 236.864 336.187 239.679 345.708 245.647C347.78 246.895 349.643 248.462 351.227 250.291C352.714 252.122 353.682 254.319 354.033 256.651C354.404 258.82 354.533 261.081 355.424 263.121C355.896 264.159 356.581 265.085 357.436 265.839C358.291 266.593 359.295 267.158 360.383 267.496C363.072 268.41 365.928 268.302 368.718 268.1C371.816 267.876 375.03 267.593 377.982 268.775C378.34 268.919 378.541 268.355 378.184 268.212C373.048 266.155 367.495 268.365 362.209 267.358C359.742 266.888 357.402 265.672 356.206 263.372C355.161 261.36 355.026 259.029 354.67 256.83C354.361 254.549 353.498 252.379 352.158 250.509C350.671 248.605 348.872 246.969 346.836 245.669C342.301 242.67 337.323 240.404 332.084 238.952C326.114 237.263 319.899 236.607 313.708 237.015C313.325 237.04 313.438 237.628 313.818 237.603V237.603Z" fill="white"/>
<path d="M353.99 255.527C350.364 256.931 346.342 256.918 342.726 255.489C342.367 255.347 342.166 255.91 342.524 256.052C346.29 257.532 350.476 257.538 354.246 256.068C354.605 255.927 354.347 255.387 353.99 255.527V255.527Z" fill="white"/>
<path d="M326.22 238.049C326.056 238.784 325.713 239.466 325.221 240.035C324.729 240.603 324.103 241.041 323.4 241.308C323.04 241.444 323.297 241.984 323.656 241.849C324.431 241.55 325.121 241.066 325.667 240.439C326.212 239.812 326.595 239.061 326.783 238.251C326.807 238.177 326.802 238.095 326.768 238.024C326.735 237.953 326.675 237.898 326.602 237.869C326.528 237.842 326.446 237.847 326.374 237.88C326.302 237.914 326.247 237.975 326.22 238.05V238.049Z" fill="white"/>
<path d="M342.756 243.544C343.54 241.81 343.682 239.854 343.157 238.024C342.632 236.195 341.475 234.611 339.891 233.557C339.57 233.345 339.225 233.834 339.547 234.047C341.023 235.026 342.101 236.501 342.587 238.205C343.072 239.91 342.932 241.732 342.193 243.342C342.032 243.693 342.597 243.893 342.756 243.544L342.756 243.544Z" fill="white"/>
<path d="M58.9683 178.718C39.6916 159.73 31.55 139.921 36.0427 122.941C41.8082 101.15 67.4218 86.083 106.316 81.604L106.459 82.854C68.1069 87.2703 42.8841 101.999 37.2582 123.263C32.8858 139.788 40.9092 159.164 59.8505 177.822L58.9683 178.718Z" fill="#616161"/>
<path d="M102.573 246.643C55.2992 225.665 18.8713 198.448 0 170.005L1.04729 169.309C19.7881 197.555 56.0249 224.611 103.082 245.494L102.573 246.643Z" fill="#616161"/>
<path d="M21.4273 145.024C30.462 134.889 44.8737 128.711 57.9339 132.409C45.8853 140.941 37.241 153.461 33.5304 167.756C32.1193 173.274 31.1241 179.559 26.5377 182.933C23.6839 185.032 19.9026 185.533 16.393 185.055C12.8833 184.577 9.5648 183.211 6.29106 181.858L5.41016 181.935C7.94281 168.592 12.3927 155.16 21.4273 145.024Z" fill="url(#paint3_linear_2060_118928)"/>
<path d="M57.8946 132.691C46.9753 135.337 37.1667 141.357 29.8619 149.898C28.2567 151.709 26.9468 153.761 25.9804 155.98C25.1088 158.172 24.8398 160.557 25.2012 162.888C25.4945 165.069 26.0468 167.265 25.8054 169.479C25.665 170.61 25.2871 171.699 24.6966 172.674C24.1062 173.649 23.3164 174.488 22.3791 175.136C20.0857 176.811 17.3272 177.563 14.6042 178.203C11.5808 178.915 8.4292 179.606 5.96466 181.617C5.66605 181.86 5.30574 181.382 5.60391 181.139C9.89179 177.641 15.851 178.09 20.5952 175.55C22.8089 174.364 24.6789 172.504 25.1336 169.951C25.5312 167.719 24.9635 165.454 24.6475 163.249C24.2616 160.98 24.4368 158.651 25.1579 156.466C26.0083 154.205 27.237 152.105 28.7913 150.257C32.2244 146.039 36.2989 142.389 40.8655 139.438C46.0586 136.041 51.7941 133.558 57.8239 132.097C58.1972 132.006 58.2654 132.601 57.8946 132.691H57.8946Z" fill="white"/>
<path d="M24.9065 161.803C28.7866 162.061 32.6212 160.846 35.6457 158.4C35.9452 158.158 36.3055 158.636 36.0064 158.878C32.8543 161.417 28.8612 162.673 24.8242 162.396C24.4394 162.369 24.5239 161.776 24.9065 161.803Z" fill="white"/>
<path d="M76.4742 174.484C76.2335 174.477 75.9927 174.471 75.7489 174.468C72.5119 174.394 69.2743 174.583 66.0679 175.033C65.8194 175.064 65.5681 175.099 65.321 175.137C57.6076 176.304 50.1779 178.895 43.4096 182.776C40.7177 184.323 38.1473 186.073 35.7208 188.01C32.3697 190.685 28.9491 193.853 25.0259 195.224C24.6182 195.372 24.2017 195.494 23.7789 195.59L5.57251 183.004C5.54548 182.954 5.51539 182.909 5.48816 182.859L4.73828 182.39C4.85645 182.282 4.98135 182.171 5.09954 182.063C5.16783 181.999 5.24019 181.939 5.30845 181.876C5.35525 181.834 5.40229 181.793 5.44217 181.753C5.4577 181.739 5.47344 181.726 5.48611 181.716C5.52602 181.676 5.56728 181.643 5.60428 181.607C6.30074 180.99 7.00275 180.376 7.71031 179.766C7.71318 179.762 7.71318 179.762 7.7201 179.76C13.0672 175.061 18.9525 171.013 25.2527 167.7C25.4421 167.604 25.6341 167.503 25.8318 167.413C28.676 165.985 31.6322 164.792 34.6707 163.846C36.3362 163.334 38.0265 162.906 39.7352 162.564C44.1519 161.69 48.6786 161.516 53.1493 162.05C62.0613 163.114 70.5338 167.019 76.0574 173.95C76.1986 174.128 76.3359 174.303 76.4742 174.484Z" fill="url(#paint4_linear_2060_118928)"/>
<path d="M76.2734 174.687C65.9632 170.221 54.5088 169.12 43.5372 171.538C41.166 172.017 38.8851 172.867 36.7784 174.056C34.7636 175.281 33.1134 177.024 31.9993 179.103C30.9215 181.02 30.0411 183.107 28.5163 184.729C27.7234 185.547 26.7666 186.189 25.7085 186.612C24.6504 187.034 23.5149 187.229 22.3766 187.181C19.5371 187.138 16.8826 186.076 14.3228 184.947C11.4807 183.694 8.54846 182.347 5.37092 182.468C4.98592 182.482 4.98579 181.884 5.3702 181.869C10.8985 181.659 15.3864 185.608 20.7031 186.437C23.1839 186.824 25.7964 186.466 27.6953 184.701C29.3559 183.159 30.2657 181.008 31.3402 179.057C32.3973 177.013 33.9386 175.259 35.8294 173.949C37.8688 172.656 40.1132 171.719 42.4665 171.18C47.7453 169.881 53.1953 169.42 58.6171 169.815C64.8073 170.232 70.8808 171.704 76.5747 174.17C76.9271 174.323 76.6235 174.839 76.2734 174.687H76.2734Z" fill="white"/>
<path d="M32.4188 178.059C35.3616 180.602 39.1543 181.942 43.0406 181.812C43.4257 181.798 43.4259 182.397 43.0414 182.41C38.9969 182.538 35.0528 181.136 31.9962 178.482C31.7051 178.229 32.1292 177.807 32.4188 178.059Z" fill="white"/>
<path d="M64.444 170.937C64.3514 171.684 64.4455 172.442 64.718 173.143C64.9904 173.844 65.4326 174.466 66.0049 174.954C66.2992 175.203 65.8747 175.625 65.5824 175.378C64.9527 174.836 64.4651 174.148 64.1624 173.374C63.8596 172.6 63.7509 171.764 63.8458 170.938C63.8482 170.859 63.8804 170.785 63.9359 170.729C63.9914 170.673 64.066 170.641 64.1445 170.638C64.2237 170.638 64.2996 170.67 64.3557 170.726C64.4117 170.782 64.4435 170.858 64.444 170.937H64.444Z" fill="white"/>
<path d="M47.025 170.551C46.8693 168.654 47.3926 166.764 48.5014 165.217C49.6102 163.671 51.2324 162.569 53.0781 162.109C53.4519 162.017 53.6121 162.594 53.2378 162.686C51.5183 163.111 50.0074 164.137 48.9778 165.58C47.9482 167.022 47.4677 168.785 47.6232 170.551C47.6565 170.934 47.0581 170.933 47.025 170.551Z" fill="white"/>
<path d="M46.194 136.823C46.5693 137.475 47.1005 138.024 47.7399 138.419C48.3793 138.815 49.107 139.045 49.8575 139.09C50.2424 139.112 50.1575 139.705 49.7751 139.683C48.9462 139.63 48.1429 139.374 47.4355 138.939C46.728 138.503 46.138 137.901 45.7169 137.184C45.6715 137.12 45.6523 137.041 45.6631 136.963C45.6739 136.885 45.714 136.814 45.7751 136.765C45.8385 136.718 45.9181 136.697 45.9965 136.708C46.075 136.719 46.146 136.76 46.1941 136.823L46.194 136.823Z" fill="white"/>
<path d="M32.0545 147.009C30.7888 145.588 30.069 143.764 30.0238 141.861C29.9785 139.958 30.6107 138.101 31.8075 136.622C32.0506 136.323 32.5257 136.687 32.2822 136.986C31.1652 138.362 30.5765 140.091 30.6222 141.863C30.668 143.635 31.3452 145.332 32.5317 146.648C32.7892 146.934 32.3105 147.294 32.0545 147.009Z" fill="white"/>
<path d="M270.9 80.8449C263.086 78.2995 255.049 75.9295 247.012 73.8005C200.763 61.5495 155.299 57.1998 115.535 61.224L115.408 59.9722C155.321 55.9348 200.94 60.2949 247.334 72.5843C255.394 74.7194 263.453 77.0962 271.289 79.649L270.9 80.8449Z" fill="#616161"/>
<path d="M241.355 82.7316C233.541 80.1862 225.504 77.8162 217.468 75.6872C171.218 63.4363 125.754 59.0865 85.9898 63.1107L85.8633 61.8589C125.776 57.8215 171.396 62.1816 217.789 74.471C225.849 76.6061 233.908 78.9829 241.744 81.5357L241.355 82.7316Z" fill="#616161"/>
<path d="M256.539 128.941H255.103V89.5959C255.103 83.5563 252.706 77.7642 248.437 73.4936C244.169 69.223 238.381 66.8237 232.345 66.8237H149.034C146.046 66.8237 143.086 67.4127 140.325 68.5571C137.564 69.7015 135.055 71.3789 132.941 73.4935C130.828 75.6081 129.152 78.1184 128.008 80.8813C126.864 83.6441 126.275 86.6053 126.275 89.5958V305.448C126.275 311.488 128.673 317.28 132.941 321.551C137.209 325.821 142.998 328.22 149.034 328.22H232.344C238.38 328.22 244.169 325.821 248.437 321.551C252.705 317.28 255.103 311.488 255.103 305.448V156.948H256.539V128.941Z" fill="#3F3D56"/>
<path d="M250.257 89.7537V305.29C250.257 307.523 249.818 309.734 248.964 311.797C248.111 313.86 246.859 315.734 245.281 317.313C243.704 318.892 241.831 320.145 239.769 321C237.708 321.854 235.498 322.294 233.267 322.295H149.549C145.042 322.295 140.72 320.504 137.533 317.315C134.346 314.126 132.555 309.801 132.555 305.292V89.7537C132.555 87.5208 132.994 85.3097 133.848 83.2466C134.702 81.1836 135.953 79.309 137.531 77.73C139.109 76.151 140.983 74.8984 143.044 74.0437C145.106 73.1891 147.316 72.7492 149.548 72.749H159.709C159.209 73.9757 159.018 75.3067 159.152 76.6247C159.287 77.9427 159.744 79.2072 160.483 80.3069C161.221 81.4066 162.219 82.3077 163.387 82.9308C164.556 83.5539 165.859 83.8799 167.184 83.88H214.913C216.237 83.879 217.54 83.5525 218.708 82.9292C219.876 82.3059 220.873 81.4048 221.612 80.3054C222.35 79.2059 222.807 77.9418 222.942 76.6241C223.077 75.3065 222.887 73.9757 222.388 72.749H233.262C235.494 72.7489 237.704 73.1886 239.766 74.043C241.827 74.8975 243.701 76.1499 245.279 77.7287C246.857 79.3076 248.109 81.182 248.963 83.245C249.817 85.3079 250.257 87.519 250.257 89.752L250.257 89.7537Z" fill="#1F222A"/>
<path d="M243.915 302.102H217.945V303.264H243.915V302.102Z" fill="#35383F"/>
<path d="M204.392 302.102H178.422V303.264H204.392V302.102Z" fill="#35383F"/>
<path d="M164.868 302.102H138.898V303.264H164.868V302.102Z" fill="#35383F"/>
<path d="M248.826 320.539L240.927 320.539L237.17 290.057L248.827 290.057L248.826 320.539Z" fill="#FFB8B8"/>
<path d="M250.751 328.441H246.243L245.438 324.183L243.378 328.441H231.422C230.849 328.441 230.291 328.258 229.829 327.918C229.368 327.578 229.027 327.1 228.856 326.552C228.686 326.005 228.694 325.417 228.881 324.875C229.068 324.333 229.423 323.865 229.895 323.539L239.442 316.942V312.637L249.484 313.236L250.751 328.441Z" fill="#2F2E41"/>
<path d="M310.325 317.118L302.516 318.299L294.246 288.721L304.484 286.978L310.325 317.118Z" fill="#FFB8B8"/>
<path d="M311.583 328.441H307.075L306.27 324.183L304.21 328.441H292.254C291.681 328.441 291.123 328.258 290.661 327.918C290.2 327.578 289.859 327.1 289.688 326.552C289.518 326.005 289.526 325.417 289.713 324.875C289.9 324.333 290.255 323.865 290.727 323.539L300.274 316.942V312.637L310.316 313.236L311.583 328.441Z" fill="#2F2E41"/>
<path d="M232.12 262.832H147.465C146.889 262.832 146.336 262.603 145.929 262.195C145.522 261.788 145.293 261.235 145.293 260.659C145.293 260.082 145.522 259.529 145.929 259.122C146.336 258.714 146.889 258.485 147.465 258.485H232.12C232.696 258.485 233.249 258.714 233.656 259.122C234.063 259.529 234.292 260.082 234.292 260.659C234.292 261.235 234.063 261.788 233.656 262.195C233.249 262.603 232.696 262.832 232.12 262.832Z" fill="#35383F"/>
<path d="M232.12 247.712H147.465C146.889 247.712 146.336 247.483 145.929 247.075C145.522 246.668 145.293 246.115 145.293 245.539C145.293 244.962 145.522 244.409 145.929 244.002C146.336 243.594 146.889 243.365 147.465 243.365H232.12C232.696 243.365 233.249 243.594 233.656 244.002C234.063 244.409 234.292 244.962 234.292 245.539C234.292 246.115 234.063 246.668 233.656 247.075C233.249 247.483 232.696 247.712 232.12 247.712Z" fill="#35383F"/>
<path d="M232.12 232.591H147.465C147.18 232.591 146.897 232.535 146.634 232.426C146.37 232.317 146.131 232.157 145.929 231.955C145.727 231.753 145.567 231.513 145.458 231.25C145.349 230.986 145.293 230.703 145.293 230.418C145.293 230.133 145.349 229.85 145.458 229.586C145.567 229.323 145.727 229.083 145.929 228.881C146.131 228.679 146.37 228.519 146.634 228.41C146.897 228.301 147.18 228.245 147.465 228.245H232.12C232.405 228.245 232.688 228.301 232.951 228.41C233.215 228.519 233.454 228.679 233.656 228.881C233.858 229.083 234.018 229.323 234.127 229.586C234.236 229.85 234.292 230.133 234.292 230.418C234.292 230.703 234.236 230.986 234.127 231.25C234.018 231.513 233.858 231.753 233.656 231.955C233.454 232.157 233.215 232.317 232.951 232.426C232.688 232.535 232.405 232.591 232.12 232.591Z" fill="#35383F"/>
<path d="M13.1437 254.828L19.3437 260.329C20.5194 261.372 22.3295 261.278 23.3851 260.088L28.8866 253.888C29.9298 252.712 29.821 250.89 28.6454 249.847L22.4454 244.345C21.2697 243.302 19.4471 243.411 18.4039 244.586L12.9024 250.786C11.8468 251.976 11.9541 253.772 13.1437 254.828ZM92.4815 296.534L99.0874 302.396C100.263 303.439 102.086 303.33 103.129 302.155L108.978 295.563C110.021 294.387 109.912 292.565 108.737 291.522L102.131 285.66C100.941 284.604 99.1326 284.726 98.0894 285.901L92.2402 292.493C91.1846 293.683 91.2918 295.479 92.4815 296.534Z" fill="url(#paint5_linear_2060_118928)"/>
<path d="M242.039 194.172L270.518 195.335L274.006 176.144L249.594 168.584L242.039 194.172Z" fill="#FFB8B8"/>
<path d="M271.68 189.52L244.363 184.867L243.391 186.871C238.163 197.667 235.076 209.374 234.301 221.346C233.641 231.452 233.253 242.125 233.241 253.314C233.221 270.65 234.105 286.736 235.503 301.372L250.495 301.279C250.062 285.738 250.652 270.187 252.26 254.724C253.408 243.698 255.003 233.398 256.848 223.894C260.271 237.846 265.101 251.414 271.265 264.389C276.505 275.476 287.281 288.29 292.521 299.377C297.889 298.732 303.258 298.088 308.626 297.443C304.396 286.248 296.848 269.9 292.617 258.704C286.568 242.697 283.835 231.844 277.786 215.837C278.131 212.828 278.198 209.793 277.987 206.772C277.705 201.736 276.658 195.693 273.598 191.664L271.68 189.52Z" fill="#2F2E41"/>
<path d="M128.509 153.668H123.859V168.207H128.509V153.668Z" fill="#3F3D56"/>
<path d="M191.406 202.819C213.147 202.819 230.771 185.185 230.771 163.431C230.771 141.678 213.147 124.043 191.406 124.043C169.665 124.043 152.041 141.678 152.041 163.431C152.041 185.185 169.665 202.819 191.406 202.819Z" fill="#35383F"/>
<path d="M191.407 201.11C211.241 201.11 227.32 185.022 227.32 165.177C227.32 145.331 211.241 129.243 191.407 129.243C171.573 129.243 155.494 145.331 155.494 165.177C155.494 185.022 171.573 201.11 191.407 201.11Z" fill="url(#paint6_linear_2060_118928)"/>
<path d="M188.271 179.26C188.193 179.26 188.115 179.258 188.036 179.255C187.347 179.221 186.674 179.039 186.062 178.721C185.45 178.403 184.914 177.956 184.491 177.411L178.831 170.13C178.053 169.127 177.704 167.856 177.861 166.596C178.018 165.336 178.669 164.189 179.67 163.408L179.873 163.25C180.876 162.472 182.146 162.123 183.406 162.28C184.666 162.437 185.812 163.088 186.592 164.089C186.847 164.416 187.168 164.685 187.536 164.876C187.903 165.067 188.307 165.176 188.721 165.196C189.135 165.22 189.549 165.153 189.934 164.998C190.319 164.844 190.665 164.606 190.947 164.302L202.44 152.164C203.314 151.243 204.517 150.707 205.786 150.672C207.054 150.638 208.285 151.108 209.207 151.98L209.394 152.157C210.315 153.031 210.851 154.236 210.886 155.505C210.92 156.775 210.45 158.006 209.578 158.929L191.744 177.764C191.298 178.237 190.759 178.614 190.162 178.871C189.564 179.128 188.921 179.261 188.271 179.26Z" fill="white"/>
<path opacity="0.16" d="M191.407 196.132C182.321 196.131 173.574 192.684 166.928 186.485C160.281 180.286 156.231 171.797 155.593 162.728C155.534 163.565 155.494 164.406 155.494 165.257C155.494 174.788 159.278 183.928 166.013 190.667C172.748 197.405 181.882 201.191 191.407 201.191C200.932 201.191 210.066 197.405 216.801 190.667C223.536 183.928 227.32 174.788 227.32 165.257C227.32 164.406 227.28 163.565 227.222 162.728C226.583 171.797 222.533 180.286 215.887 186.485C209.24 192.684 200.493 196.131 191.407 196.132Z" fill="#231F20"/>
<path d="M128.509 136.221H123.859V150.76H128.509V136.221Z" fill="#3F3D56"/>
<path d="M252.801 152.606L253.077 143.539L239.274 140.077L214.423 132.823C214.095 131.824 213.471 130.949 212.634 130.314C211.797 129.678 210.787 129.311 209.738 129.262C208.689 129.214 207.649 129.484 206.757 130.039C205.865 130.594 205.162 131.407 204.742 132.371C204.322 133.334 204.203 134.402 204.403 135.434C204.603 136.466 205.111 137.413 205.86 138.15C206.609 138.887 207.565 139.379 208.599 139.56C209.634 139.742 210.699 139.605 211.655 139.168L235.814 149.105L252.801 152.606Z" fill="#FFB8B8"/>
<path d="M243.906 152.543L251.671 141.461L251.865 141.487C251.987 141.503 264.163 143.133 272.146 145.512C273.043 145.75 273.878 146.181 274.591 146.774C275.305 147.368 275.881 148.11 276.278 148.95C276.849 150.122 277.064 151.436 276.899 152.73C276.734 154.024 276.194 155.241 275.347 156.232C274.485 157.304 273.333 158.105 272.028 158.538C270.723 158.972 269.321 159.021 267.99 158.678L243.906 152.543Z" fill="url(#paint7_linear_2060_118928)"/>
<path d="M275.9 181.176C277.264 183.727 274.024 189.013 271.68 189.52L244.666 180.782L258.268 141.345L265.111 142.589L276.056 144.434L279.939 147.965C280.916 148.855 281.615 150.01 281.949 151.29C282.283 152.57 282.239 153.919 281.821 155.174L275.9 181.176Z" fill="url(#paint8_linear_2060_118928)"/>
<path d="M257.303 165.935L249.661 161.055L239.62 171.145L220.667 188.788C219.642 188.559 218.571 188.647 217.597 189.041C216.623 189.434 215.791 190.114 215.212 190.991C214.633 191.868 214.333 192.9 214.352 193.951C214.372 195.002 214.71 196.022 215.322 196.877C215.933 197.731 216.79 198.38 217.778 198.737C218.766 199.094 219.839 199.142 220.855 198.875C221.872 198.609 222.783 198.04 223.469 197.243C224.155 196.447 224.583 195.461 224.697 194.417L245.598 178.742L257.303 165.935Z" fill="#FFB8B8"/>
<path d="M252.695 173.546L247.158 161.199L247.279 161.045C247.356 160.949 254.991 151.318 261.12 145.676C261.784 145.026 262.581 144.53 263.456 144.221C264.331 143.911 265.263 143.797 266.187 143.885C267.486 143.995 268.724 144.483 269.75 145.287C270.776 146.092 271.544 147.179 271.962 148.414C272.441 149.704 272.538 151.104 272.242 152.447C271.946 153.791 271.27 155.02 270.294 155.99L252.695 173.546Z" fill="url(#paint9_linear_2060_118928)"/>
<path d="M382.994 144.51C388.514 144.51 392.988 140.033 392.988 134.51C392.988 128.987 388.514 124.51 382.994 124.51C377.475 124.51 373 128.987 373 134.51C373 140.033 377.475 144.51 382.994 144.51Z" fill="url(#paint10_linear_2060_118928)"/>
<path d="M269.915 138.71C276.55 138.71 281.929 133.327 281.929 126.688C281.929 120.049 276.55 114.667 269.915 114.667C263.279 114.667 257.9 120.049 257.9 126.688C257.9 133.327 263.279 138.71 269.915 138.71Z" fill="#FFB8B8"/>
<path d="M279.617 144.107L279.571 144.096L262.112 139.726C261.507 139.575 260.946 139.284 260.474 138.876C260.002 138.469 259.631 137.956 259.393 137.38C259.154 136.803 259.054 136.179 259.1 135.556C259.147 134.934 259.338 134.331 259.659 133.796L260.236 132.836C260.799 131.899 261.118 130.835 261.165 129.742C261.212 128.649 260.985 127.562 260.504 126.58C259.677 124.976 258.254 123.76 256.541 123.193L256.483 123.166L256.117 122.937C255.756 122.767 255.435 122.523 255.175 122.222C254.914 121.92 254.719 121.568 254.602 121.186C254.481 120.791 254.444 120.375 254.494 119.965C254.544 119.555 254.679 119.159 254.891 118.805C256.432 116.225 258.739 114.191 261.49 112.984C264.966 111.487 268.88 111.369 272.44 112.655C272.677 112.437 272.964 112.281 273.276 112.202C273.588 112.122 273.915 112.122 274.227 112.2C283.269 114.391 284.013 120.464 282.227 130.212L284.341 138.744C284.491 139.346 284.507 139.974 284.39 140.584C284.272 141.193 284.024 141.77 283.661 142.273C283.298 142.777 282.83 143.195 282.29 143.5C281.749 143.804 281.149 143.987 280.53 144.035L279.617 144.107ZM272.343 112.751L272.342 112.752L272.343 112.751ZM272.561 112.697L272.563 112.698L272.561 112.697Z" fill="#2F2E41"/>
<path d="M128.509 108.307H123.859V133.314H128.509V108.307Z" fill="#3F3D56"/>
<path d="M243.915 93.3237H217.945V94.4862H243.915V93.3237Z" fill="#35383F"/>
<path d="M204.392 93.3237H178.422V94.4862H204.392V93.3237Z" fill="#35383F"/>
<path d="M164.868 93.3237H138.898V94.4862H164.868V93.3237Z" fill="#35383F"/>
<path d="M168.614 78.6471C169.898 78.6471 170.939 77.6056 170.939 76.3209C170.939 75.0361 169.898 73.9946 168.614 73.9946C167.33 73.9946 166.289 75.0361 166.289 76.3209C166.289 77.6056 167.33 78.6471 168.614 78.6471Z" fill="#35383F"/>
<path d="M38.4359 62.8654C38.8803 62.5115 39.0484 62.1403 39.2619 61.7358C41.4271 57.2858 44.4403 53.842 47.8971 51.7397C48.7405 59.394 54.0097 64.2008 57.9067 65.2341C58.0535 65.2875 58.2498 65.3422 58.4514 65.3822C64.0759 66.8769 68.8023 64.8036 70.5095 60.1041C70.931 58.9439 71.1735 57.6356 71.2585 56.1204C71.3687 54.2154 71.6593 48.702 62.5051 42.4173C66.0152 39.9853 70.647 38.6757 75.8906 38.7021C76.3699 38.7099 76.765 38.7205 77.2709 38.472C78.4121 37.939 78.9509 36.4557 78.4233 35.2999L75.3135 28.6675C74.7805 27.5263 73.4747 27.0021 72.3162 27.4457C72.6605 27.3214 72.8835 27.3027 72.8194 27.296C62.6098 27.2111 54.4453 31.4267 50.2426 38.8769C41.9262 39.5296 34.7432 44.933 30.2981 54.0573C30.2153 54.1935 30.1673 54.3257 30.114 54.4726C29.8419 55.2215 29.9516 56.1092 30.4871 56.7859L35.0451 62.498C35.9078 63.5096 37.4109 63.6733 38.4359 62.8654ZM57.9404 53.6095C57.7424 52.324 57.6473 51.0759 57.6309 50.0227C58.6509 50.3267 59.8551 50.7642 61.0354 51.3592C62.5054 52.0262 63.4967 54.5142 62.9152 56.115C62.7711 56.5115 62.5403 56.8266 62.2226 57.0603C61.602 57.5331 60.7984 57.6401 60.1042 57.3547C59.0187 56.9105 58.2534 55.5851 57.9404 53.6095Z" fill="url(#paint11_linear_2060_118928)"/>
<path d="M328.692 65.5214L322.492 60.0199C321.317 58.9767 319.506 59.0715 318.451 60.2611L312.949 66.4612C311.906 67.6368 312.015 69.4594 313.191 70.5026L319.391 76.0041C320.566 77.0473 322.389 76.9385 323.432 75.7628L328.934 69.5628C329.989 68.3732 329.882 66.577 328.692 65.5214ZM249.354 23.8147L242.749 17.953C241.573 16.9098 239.75 17.0186 238.707 18.1943L232.858 24.7862C231.815 25.9618 231.924 27.7844 233.099 28.8276L239.705 34.6892C240.895 35.7448 242.703 35.6236 243.746 34.448L249.596 27.8561C250.651 26.6664 250.544 24.8703 249.354 23.8147Z" fill="url(#paint12_linear_2060_118928)"/>
<defs>
<linearGradient id="paint0_linear_2060_118928" x1="347.058" y1="305.573" x2="335.089" y2="302.105" gradientUnits="userSpaceOnUse">
<stop stop-color="#FB9400"/>
<stop offset="1" stop-color="#FFAB38"/>
</linearGradient>
<linearGradient id="paint1_linear_2060_118928" x1="379.555" y1="268.26" x2="336.387" y2="261.591" gradientUnits="userSpaceOnUse">
<stop stop-color="#12D18E"/>
<stop offset="1" stop-color="#71E3BB"/>
</linearGradient>
<linearGradient id="paint2_linear_2060_118928" x1="378.604" y1="274.944" x2="308.613" y2="243.938" gradientUnits="userSpaceOnUse">
<stop stop-color="#12D18E"/>
<stop offset="1" stop-color="#71E3BB"/>
</linearGradient>
<linearGradient id="paint3_linear_2060_118928" x1="57.9339" y1="185.222" x2="-4.80892" y2="167.493" gradientUnits="userSpaceOnUse">
<stop stop-color="#12D18E"/>
<stop offset="1" stop-color="#71E3BB"/>
</linearGradient>
<linearGradient id="paint4_linear_2060_118928" x1="76.4742" y1="195.59" x2="9.30868" y2="154.311" gradientUnits="userSpaceOnUse">
<stop stop-color="#12D18E"/>
<stop offset="1" stop-color="#71E3BB"/>
</linearGradient>
<linearGradient id="paint5_linear_2060_118928" x1="34.8961" y1="226" x2="50.9859" y2="326.134" gradientUnits="userSpaceOnUse">
<stop stop-color="#6949FF"/>
<stop offset="1" stop-color="#876DFF"/>
</linearGradient>
<linearGradient id="paint6_linear_2060_118928" x1="227.32" y1="201.11" x2="141.846" y2="176.342" gradientUnits="userSpaceOnUse">
<stop stop-color="#12D18E"/>
<stop offset="1" stop-color="#71E3BB"/>
</linearGradient>
<linearGradient id="paint7_linear_2060_118928" x1="276.953" y1="158.904" x2="244.207" y2="140.915" gradientUnits="userSpaceOnUse">
<stop stop-color="#12D18E"/>
<stop offset="1" stop-color="#71E3BB"/>
</linearGradient>
<linearGradient id="paint8_linear_2060_118928" x1="282.171" y1="189.52" x2="236.137" y2="179.129" gradientUnits="userSpaceOnUse">
<stop stop-color="#12D18E"/>
<stop offset="1" stop-color="#71E3BB"/>
</linearGradient>
<linearGradient id="paint9_linear_2060_118928" x1="272.41" y1="173.546" x2="241.704" y2="165.974" gradientUnits="userSpaceOnUse">
<stop stop-color="#12D18E"/>
<stop offset="1" stop-color="#71E3BB"/>
</linearGradient>
<linearGradient id="paint10_linear_2060_118928" x1="392.988" y1="144.51" x2="369.202" y2="137.617" gradientUnits="userSpaceOnUse">
<stop stop-color="#FF5A5F"/>
<stop offset="1" stop-color="#FF8A9B"/>
</linearGradient>
<linearGradient id="paint11_linear_2060_118928" x1="28.0014" y1="60.2877" x2="63.5589" y2="15.8544" gradientUnits="userSpaceOnUse">
<stop stop-color="#FB9400"/>
<stop offset="1" stop-color="#FFAB38"/>
</linearGradient>
<linearGradient id="paint12_linear_2060_118928" x1="306.94" y1="94.349" x2="290.85" y2="-5.78438" gradientUnits="userSpaceOnUse">
<stop stop-color="#246BFD"/>
<stop offset="1" stop-color="#5089FD"/>
</linearGradient>
</defs>
</svg>
