<svg width="393" height="330" viewBox="0 0 393 330" fill="none" xmlns="http://www.w3.org/2000/svg">
<path d="M25.1865 329.509H354.795C354.962 329.509 355.123 329.442 355.241 329.324C355.359 329.206 355.425 329.046 355.425 328.879C355.425 328.712 355.359 328.552 355.241 328.434C355.123 328.315 354.962 328.249 354.795 328.249H25.1865C25.0194 328.249 24.8592 328.315 24.7411 328.434C24.623 328.552 24.5566 328.712 24.5566 328.879C24.5566 329.046 24.623 329.206 24.7411 329.324C24.8592 329.442 25.0194 329.509 25.1865 329.509Z" fill="#35383F"/>
<path d="M342.029 305.573C344.806 305.573 347.058 303.321 347.058 300.542C347.058 297.763 344.806 295.51 342.029 295.51C339.252 295.51 337 297.763 337 300.542C337 303.321 339.252 305.573 342.029 305.573Z" fill="url(#paint0_linear_1928_21143)"/>
<path d="M298.328 281.1C293.452 281.1 288.493 280.991 283.45 280.774L283.504 279.517C321.136 281.147 354.339 276.641 379.53 266.483L380 267.65C358.025 276.51 330.016 281.1 298.328 281.1Z" fill="#616161"/>
<path d="M268.783 282.988C263.907 282.988 258.948 282.879 253.905 282.661L253.959 281.404C291.591 283.034 324.794 278.528 349.985 268.371L350.455 269.538C328.48 278.397 300.471 282.988 268.783 282.988Z" fill="#616161"/>
<path d="M274.502 244.231C250.443 244.231 224.299 240.654 198.331 233.775C166.217 225.268 136.773 212.428 113.181 196.643L113.879 195.598C137.358 211.306 166.672 224.088 198.652 232.558C227.553 240.214 256.67 243.762 282.845 242.825L282.89 244.082C280.126 244.182 277.33 244.231 274.502 244.231Z" fill="#616161"/>
<path d="M329.695 236.32L329.292 235.129C350.809 227.849 364.267 216.123 368.211 201.217C373.225 182.267 362.333 160.278 337.541 139.298C312.623 118.213 276.691 100.717 236.362 90.0341L236.684 88.8179C277.189 99.5474 313.296 117.134 338.353 138.338C363.536 159.648 374.572 182.094 369.427 201.539C365.37 216.873 351.631 228.9 329.695 236.32Z" fill="#616161"/>
<path d="M375.436 228.11C370.332 215.526 358.834 204.861 345.291 203.952C353.773 216.039 357.709 230.738 356.402 245.449C355.877 251.121 354.704 257.374 357.89 262.094C359.872 265.031 363.265 266.775 366.731 267.505C370.197 268.235 373.782 268.065 377.32 267.891L378.124 268.26C380.22 254.841 380.541 240.694 375.436 228.11Z" fill="url(#paint1_linear_1928_21143)"/>
<path d="M345.234 204.231C354.63 210.394 361.845 219.363 365.856 229.864C366.76 232.109 367.304 234.483 367.469 236.897C367.554 239.255 367.006 241.592 365.882 243.666C364.874 245.621 363.616 247.503 363.1 249.67C362.852 250.782 362.842 251.935 363.071 253.052C363.299 254.168 363.761 255.224 364.426 256.15C366.024 258.499 368.369 260.134 370.719 261.654C373.327 263.341 376.063 265.051 377.709 267.774C377.908 268.104 378.408 267.775 378.209 267.445C375.346 262.709 369.582 261.128 365.968 257.14C364.281 255.279 363.144 252.898 363.574 250.341C363.949 248.105 365.244 246.162 366.283 244.192C367.408 242.185 368.026 239.932 368.081 237.631C368.039 235.216 367.587 232.825 366.744 230.562C364.927 225.435 362.316 220.626 359.007 216.312C355.257 211.366 350.689 207.099 345.5 203.695C345.179 203.484 344.915 204.021 345.234 204.231V204.231Z" fill="white"/>
<path d="M366.524 242.742C362.783 241.68 359.58 239.247 357.552 235.926C357.352 235.597 356.852 235.926 357.052 236.255C359.168 239.706 362.507 242.232 366.402 243.329C366.774 243.433 366.893 242.846 366.524 242.742Z" fill="white"/>
<path d="M364.763 226.407C366.433 225.494 367.724 224.018 368.405 222.241C369.087 220.464 369.115 218.502 368.485 216.707C368.356 216.344 367.787 216.527 367.916 216.89C368.506 218.561 368.479 220.389 367.841 222.042C367.203 223.695 365.995 225.066 364.435 225.906C364.096 226.089 364.427 226.589 364.763 226.407Z" fill="white"/>
<path d="M354.867 212.058C354.294 212.546 353.61 212.883 352.875 213.041C352.14 213.199 351.377 213.171 350.655 212.961C350.285 212.852 350.166 213.439 350.533 213.547C351.332 213.776 352.175 213.805 352.987 213.633C353.8 213.46 354.558 213.091 355.195 212.558C355.259 212.513 355.304 212.445 355.32 212.368C355.336 212.291 355.322 212.211 355.281 212.144C355.237 212.078 355.169 212.032 355.092 212.016C355.014 211.999 354.933 212.015 354.867 212.058H354.867Z" fill="white"/>
<path d="M88.5133 176.831C69.2365 157.843 61.0949 138.034 65.5876 121.053C71.3532 99.2625 96.9667 84.1958 135.861 79.7168L136.004 80.9668C97.6518 85.3831 72.429 100.112 66.8031 121.375C62.4307 137.901 70.4541 157.277 89.3954 175.934L88.5133 176.831Z" fill="#616161"/>
<path d="M132.118 244.757C84.8441 223.778 48.4162 196.561 29.5449 168.118L30.5922 167.422C49.333 195.668 85.5698 222.724 132.627 243.607L132.118 244.757Z" fill="#616161"/>
<path d="M244.957 246.118C220.898 246.118 194.754 242.541 168.786 235.662C136.673 227.155 107.228 214.316 83.6357 198.53L84.3344 197.485C107.813 213.194 137.127 225.975 169.108 234.446C198.008 242.102 227.125 245.649 253.3 244.713L253.345 245.969C250.581 246.069 247.785 246.118 244.957 246.118Z" fill="#616161"/>
<path d="M300.15 238.207L299.747 237.015C321.264 229.736 334.722 218.01 338.667 203.104C343.68 184.154 332.788 162.164 307.996 141.185C283.078 120.099 247.146 102.603 206.817 91.9208L207.139 90.7046C247.644 101.434 283.751 119.021 308.808 140.225C333.991 161.535 345.027 183.98 339.882 203.426C335.825 218.759 322.086 230.786 300.15 238.207Z" fill="#616161"/>
<path d="M313.697 237.344C313.926 237.419 314.155 237.493 314.386 237.573C317.459 238.592 320.445 239.858 323.314 241.361C323.537 241.474 323.762 241.591 323.982 241.71C330.855 245.403 336.982 250.342 342.053 256.273C344.069 258.635 345.902 261.148 347.537 263.788C349.794 267.435 351.952 271.569 355.186 274.179C355.52 274.456 355.871 274.711 356.237 274.944L377.613 269.212C377.655 269.175 377.698 269.142 377.74 269.105L378.604 268.915C378.53 268.773 378.449 268.627 378.374 268.485C378.331 268.402 378.283 268.321 378.24 268.238C378.21 268.184 378.18 268.129 378.155 268.078C378.145 268.06 378.135 268.042 378.127 268.028C378.102 267.977 378.075 267.932 378.052 267.886C377.603 267.07 377.148 266.256 376.687 265.444C376.685 265.439 376.685 265.439 376.679 265.435C373.222 259.211 369.039 253.419 364.218 248.181C364.072 248.026 363.925 247.867 363.769 247.715C361.57 245.414 359.186 243.296 356.642 241.384C355.246 240.341 353.798 239.369 352.303 238.473C348.437 236.164 344.232 234.478 339.842 233.477C331.091 231.483 321.8 232.311 314.269 236.982C314.077 237.101 313.889 237.22 313.697 237.344Z" fill="url(#paint2_linear_1928_21143)"/>
<path d="M313.818 237.603C325.029 236.864 336.187 239.679 345.708 245.647C347.78 246.895 349.643 248.462 351.227 250.291C352.714 252.122 353.682 254.319 354.033 256.651C354.404 258.82 354.533 261.081 355.424 263.121C355.896 264.159 356.581 265.085 357.436 265.839C358.291 266.593 359.295 267.158 360.383 267.496C363.072 268.41 365.928 268.302 368.718 268.1C371.816 267.876 375.03 267.593 377.982 268.775C378.34 268.919 378.541 268.355 378.184 268.212C373.048 266.155 367.495 268.365 362.209 267.358C359.742 266.888 357.402 265.672 356.206 263.372C355.161 261.36 355.026 259.029 354.67 256.83C354.361 254.549 353.498 252.379 352.158 250.509C350.671 248.605 348.872 246.969 346.836 245.669C342.301 242.67 337.323 240.404 332.084 238.952C326.114 237.263 319.899 236.607 313.708 237.015C313.325 237.04 313.438 237.628 313.818 237.603V237.603Z" fill="white"/>
<path d="M353.99 255.527C350.364 256.931 346.342 256.918 342.726 255.489C342.367 255.347 342.166 255.91 342.524 256.052C346.29 257.532 350.476 257.538 354.246 256.068C354.605 255.927 354.347 255.387 353.99 255.527V255.527Z" fill="white"/>
<path d="M326.219 238.049C326.055 238.784 325.712 239.466 325.22 240.035C324.728 240.603 324.102 241.041 323.399 241.308C323.039 241.444 323.297 241.984 323.655 241.849C324.43 241.55 325.12 241.066 325.666 240.439C326.211 239.812 326.594 239.061 326.782 238.251C326.806 238.177 326.801 238.095 326.767 238.024C326.734 237.953 326.674 237.898 326.601 237.869C326.527 237.842 326.445 237.847 326.373 237.88C326.301 237.914 326.246 237.975 326.219 238.05V238.049Z" fill="white"/>
<path d="M342.755 243.544C343.539 241.81 343.681 239.854 343.156 238.024C342.631 236.195 341.474 234.611 339.89 233.557C339.569 233.345 339.224 233.834 339.546 234.047C341.022 235.026 342.1 236.501 342.586 238.205C343.071 239.91 342.931 241.732 342.192 243.342C342.031 243.693 342.596 243.893 342.755 243.544L342.755 243.544Z" fill="white"/>
<path d="M58.9683 178.718C39.6916 159.73 31.55 139.921 36.0427 122.941C41.8082 101.15 67.4218 86.083 106.316 81.604L106.459 82.854C68.1069 87.2703 42.8841 101.999 37.2582 123.263C32.8858 139.788 40.9092 159.164 59.8505 177.822L58.9683 178.718Z" fill="#616161"/>
<path d="M102.573 246.643C55.2992 225.665 18.8713 198.448 0 170.005L1.04729 169.309C19.7881 197.555 56.0249 224.611 103.082 245.494L102.573 246.643Z" fill="#616161"/>
<path d="M21.4283 145.024C30.4629 134.889 44.8746 128.711 57.9349 132.409C45.8863 140.941 37.242 153.461 33.5313 167.756C32.1203 173.274 31.1251 179.559 26.5386 182.933C23.6848 185.032 19.9036 185.533 16.394 185.055C12.8843 184.577 9.56578 183.211 6.29203 181.858L5.41113 181.935C7.94379 168.592 12.3937 155.16 21.4283 145.024Z" fill="url(#paint3_linear_1928_21143)"/>
<path d="M57.8956 132.691C46.9763 135.337 37.1677 141.357 29.8629 149.898C28.2577 151.709 26.9478 153.761 25.9814 155.98C25.1098 158.172 24.8407 160.557 25.2021 162.888C25.4955 165.069 26.0478 167.265 25.8063 169.479C25.6659 170.61 25.2881 171.699 24.6976 172.674C24.1071 173.649 23.3174 174.488 22.3801 175.136C20.0866 176.811 17.3282 177.563 14.6052 178.203C11.5818 178.915 8.43018 179.606 5.96563 181.617C5.66702 181.86 5.30672 181.382 5.60488 181.139C9.89276 177.641 15.852 178.09 20.5961 175.55C22.8099 174.364 24.6799 172.504 25.1346 169.951C25.5322 167.719 24.9645 165.454 24.6484 163.249C24.2626 160.98 24.4378 158.651 25.1589 156.466C26.0092 154.205 27.2379 152.105 28.7923 150.257C32.2254 146.039 36.2999 142.389 40.8665 139.438C46.0596 136.041 51.7951 133.558 57.8249 132.097C58.1982 132.006 58.2664 132.601 57.8955 132.691H57.8956Z" fill="white"/>
<path d="M24.9075 161.803C28.7875 162.061 32.6221 160.846 35.6467 158.4C35.9461 158.158 36.3065 158.636 36.0074 158.878C32.8553 161.417 28.8622 162.673 24.8252 162.396C24.4404 162.369 24.5249 161.776 24.9075 161.803Z" fill="white"/>
<path d="M76.4742 174.484C76.2335 174.477 75.9927 174.471 75.7489 174.468C72.5119 174.394 69.2743 174.583 66.0679 175.033C65.8194 175.064 65.5681 175.099 65.321 175.137C57.6076 176.304 50.1779 178.895 43.4096 182.776C40.7177 184.323 38.1473 186.073 35.7208 188.01C32.3697 190.685 28.9491 193.853 25.0259 195.224C24.6182 195.372 24.2017 195.494 23.7789 195.59L5.57251 183.004C5.54548 182.954 5.51539 182.909 5.48816 182.859L4.73828 182.39C4.85645 182.282 4.98135 182.171 5.09954 182.063C5.16783 181.999 5.24019 181.939 5.30845 181.876C5.35525 181.834 5.40229 181.793 5.44217 181.753C5.4577 181.739 5.47344 181.726 5.48611 181.716C5.52602 181.676 5.56728 181.643 5.60428 181.607C6.30074 180.99 7.00275 180.376 7.71031 179.766C7.71318 179.762 7.71318 179.762 7.7201 179.76C13.0672 175.061 18.9525 171.013 25.2527 167.7C25.4421 167.604 25.6341 167.503 25.8318 167.413C28.676 165.985 31.6322 164.792 34.6707 163.846C36.3362 163.334 38.0265 162.906 39.7352 162.564C44.1519 161.69 48.6786 161.516 53.1493 162.05C62.0613 163.114 70.5338 167.019 76.0574 173.95C76.1986 174.128 76.3359 174.303 76.4742 174.484Z" fill="url(#paint4_linear_1928_21143)"/>
<path d="M76.2744 174.687C65.9642 170.221 54.5098 169.12 43.5382 171.538C41.167 172.017 38.8861 172.867 36.7794 174.056C34.7646 175.281 33.1144 177.024 32.0003 179.103C30.9225 181.02 30.0421 183.107 28.5172 184.729C27.7244 185.547 26.7675 186.189 25.7094 186.612C24.6513 187.034 23.5159 187.229 22.3775 187.181C19.538 187.138 16.8836 186.076 14.3238 184.947C11.4817 183.694 8.54943 182.347 5.3719 182.468C4.98689 182.482 4.98677 181.884 5.37118 181.869C10.8995 181.659 15.3874 185.608 20.7041 186.437C23.1849 186.824 25.7974 186.466 27.6963 184.701C29.3569 183.159 30.2667 181.008 31.3411 179.057C32.3983 177.013 33.9396 175.259 35.8303 173.949C37.8697 172.656 40.1142 171.719 42.4675 171.18C47.7462 169.881 53.1963 169.42 58.618 169.815C64.8083 170.232 70.8818 171.704 76.5757 174.17C76.928 174.323 76.6244 174.839 76.2744 174.687H76.2744Z" fill="white"/>
<path d="M32.4188 178.059C35.3616 180.602 39.1543 181.942 43.0406 181.812C43.4257 181.798 43.4259 182.397 43.0414 182.41C38.9969 182.538 35.0528 181.136 31.9962 178.482C31.7051 178.229 32.1292 177.807 32.4188 178.059Z" fill="white"/>
<path d="M64.445 170.937C64.3524 171.684 64.4465 172.442 64.719 173.143C64.9914 173.844 65.4336 174.466 66.0059 174.954C66.3001 175.203 65.8757 175.625 65.5834 175.378C64.9536 174.836 64.4661 174.148 64.1633 173.374C63.8606 172.6 63.7519 171.764 63.8467 170.938C63.8492 170.859 63.8814 170.785 63.9369 170.729C63.9924 170.673 64.067 170.641 64.1455 170.638C64.2247 170.638 64.3006 170.67 64.3566 170.726C64.4127 170.782 64.4444 170.858 64.4449 170.937H64.445Z" fill="white"/>
<path d="M47.025 170.551C46.8693 168.654 47.3926 166.764 48.5014 165.217C49.6102 163.671 51.2324 162.569 53.0781 162.109C53.4519 162.017 53.6121 162.594 53.2378 162.686C51.5183 163.111 50.0074 164.137 48.9778 165.58C47.9482 167.022 47.4677 168.785 47.6232 170.551C47.6565 170.934 47.0581 170.933 47.025 170.551Z" fill="white"/>
<path d="M46.194 136.823C46.5693 137.475 47.1005 138.024 47.7399 138.419C48.3793 138.815 49.107 139.045 49.8575 139.09C50.2424 139.112 50.1575 139.705 49.7751 139.683C48.9462 139.63 48.1429 139.374 47.4355 138.939C46.728 138.503 46.138 137.901 45.7169 137.184C45.6715 137.12 45.6523 137.041 45.6631 136.963C45.6739 136.885 45.714 136.814 45.7751 136.765C45.8385 136.718 45.9181 136.697 45.9965 136.708C46.075 136.719 46.146 136.76 46.1941 136.823L46.194 136.823Z" fill="white"/>
<path d="M32.0535 147.009C30.7878 145.588 30.068 143.764 30.0228 141.861C29.9775 139.958 30.6097 138.101 31.8065 136.622C32.0497 136.323 32.5247 136.687 32.2812 136.986C31.1642 138.362 30.5755 140.091 30.6213 141.863C30.667 143.635 31.3442 145.332 32.5307 146.648C32.7882 146.934 32.3095 147.294 32.0535 147.009Z" fill="white"/>
<path d="M270.9 80.8449C263.086 78.2995 255.049 75.9295 247.012 73.8005C200.763 61.5495 155.299 57.1998 115.535 61.224L115.408 59.9722C155.321 55.9348 200.94 60.2949 247.334 72.5843C255.394 74.7194 263.453 77.0962 271.289 79.649L270.9 80.8449Z" fill="#616161"/>
<path d="M241.355 82.7316C233.541 80.1862 225.504 77.8162 217.468 75.6872C171.218 63.4363 125.754 59.0865 85.9898 63.1107L85.8633 61.8589C125.776 57.8215 171.396 62.1816 217.789 74.471C225.849 76.6061 233.908 78.9829 241.744 81.5357L241.355 82.7316Z" fill="#616161"/>
<path d="M256.539 128.941H255.103V89.5959C255.103 83.5563 252.706 77.7642 248.437 73.4936C244.169 69.223 238.381 66.8237 232.345 66.8237H149.034C146.046 66.8237 143.086 67.4127 140.325 68.5571C137.564 69.7015 135.055 71.3789 132.941 73.4935C130.828 75.6081 129.152 78.1184 128.008 80.8813C126.864 83.6441 126.275 86.6053 126.275 89.5958V305.448C126.275 311.488 128.673 317.28 132.941 321.551C137.209 325.821 142.998 328.22 149.034 328.22H232.344C238.38 328.22 244.169 325.821 248.437 321.551C252.705 317.28 255.103 311.488 255.103 305.448V156.948H256.539V128.941Z" fill="#3F3D56"/>
<path d="M250.258 89.7537V305.29C250.258 307.523 249.819 309.734 248.965 311.797C248.112 313.86 246.86 315.734 245.282 317.313C243.705 318.892 241.832 320.145 239.77 321C237.709 321.854 235.499 322.294 233.268 322.295H149.55C145.043 322.295 140.721 320.504 137.534 317.315C134.347 314.126 132.556 309.801 132.556 305.292V89.7537C132.556 87.5208 132.995 85.3097 133.849 83.2466C134.703 81.1836 135.954 79.309 137.532 77.73C139.11 76.151 140.984 74.8984 143.045 74.0437C145.107 73.1891 147.317 72.7492 149.549 72.749H159.71C159.21 73.9757 159.019 75.3067 159.153 76.6247C159.288 77.9427 159.745 79.2072 160.484 80.3069C161.222 81.4066 162.22 82.3077 163.388 82.9308C164.557 83.5539 165.86 83.8799 167.185 83.88H214.914C216.238 83.879 217.541 83.5525 218.709 82.9292C219.877 82.3059 220.874 81.4048 221.613 80.3054C222.351 79.2059 222.808 77.9418 222.943 76.6241C223.078 75.3065 222.888 73.9757 222.389 72.749H233.263C235.495 72.7489 237.705 73.1886 239.766 74.043C241.828 74.8975 243.702 76.1499 245.28 77.7287C246.858 79.3076 248.11 81.182 248.964 83.245C249.818 85.3079 250.258 87.519 250.258 89.752L250.258 89.7537Z" fill="#F2F2F2"/>
<path d="M243.914 302.102H217.944V303.264H243.914V302.102Z" fill="#35383F"/>
<path d="M204.392 302.102H178.422V303.264H204.392V302.102Z" fill="#35383F"/>
<path d="M164.869 302.102H138.899V303.264H164.869V302.102Z" fill="#35383F"/>
<path d="M248.826 320.539L240.927 320.539L237.17 290.057L248.827 290.057L248.826 320.539Z" fill="#FFB8B8"/>
<path d="M250.751 328.441H246.243L245.438 324.183L243.378 328.441H231.422C230.849 328.441 230.291 328.258 229.829 327.918C229.368 327.578 229.027 327.1 228.856 326.552C228.686 326.005 228.694 325.417 228.881 324.875C229.068 324.333 229.423 323.865 229.895 323.539L239.442 316.942V312.637L249.484 313.236L250.751 328.441Z" fill="#2F2E41"/>
<path d="M310.324 317.118L302.515 318.299L294.245 288.721L304.483 286.978L310.324 317.118Z" fill="#FFB8B8"/>
<path d="M311.582 328.441H307.074L306.269 324.183L304.209 328.441H292.253C291.68 328.441 291.122 328.258 290.66 327.918C290.199 327.578 289.858 327.1 289.687 326.552C289.517 326.005 289.525 325.417 289.712 324.875C289.899 324.333 290.254 323.865 290.726 323.539L300.273 316.942V312.637L310.315 313.236L311.582 328.441Z" fill="#2F2E41"/>
<path d="M232.119 262.832H147.464C146.888 262.832 146.336 262.603 145.928 262.195C145.521 261.788 145.292 261.235 145.292 260.659C145.292 260.082 145.521 259.529 145.928 259.122C146.336 258.714 146.888 258.485 147.464 258.485H232.119C232.695 258.485 233.248 258.714 233.655 259.122C234.062 259.529 234.291 260.082 234.291 260.659C234.291 261.235 234.062 261.788 233.655 262.195C233.248 262.603 232.695 262.832 232.119 262.832Z" fill="#35383F"/>
<path d="M232.119 247.712H147.464C146.888 247.712 146.336 247.483 145.928 247.075C145.521 246.668 145.292 246.115 145.292 245.539C145.292 244.962 145.521 244.409 145.928 244.002C146.336 243.594 146.888 243.365 147.464 243.365H232.119C232.695 243.365 233.248 243.594 233.655 244.002C234.062 244.409 234.291 244.962 234.291 245.539C234.291 246.115 234.062 246.668 233.655 247.075C233.248 247.483 232.695 247.712 232.119 247.712Z" fill="#35383F"/>
<path d="M232.119 232.591H147.464C147.179 232.591 146.896 232.535 146.633 232.426C146.369 232.317 146.13 232.157 145.928 231.955C145.726 231.753 145.566 231.513 145.457 231.25C145.348 230.986 145.292 230.703 145.292 230.418C145.292 230.133 145.348 229.85 145.457 229.586C145.566 229.323 145.726 229.083 145.928 228.881C146.13 228.679 146.369 228.519 146.633 228.41C146.896 228.301 147.179 228.245 147.464 228.245H232.119C232.404 228.245 232.687 228.301 232.95 228.41C233.214 228.519 233.453 228.679 233.655 228.881C233.857 229.083 234.017 229.323 234.126 229.586C234.235 229.85 234.291 230.133 234.291 230.418C234.291 230.703 234.235 230.986 234.126 231.25C234.017 231.513 233.857 231.753 233.655 231.955C233.453 232.157 233.214 232.317 232.95 232.426C232.687 232.535 232.404 232.591 232.119 232.591Z" fill="#35383F"/>
<path d="M13.1417 254.828L19.3418 260.329C20.5174 261.372 22.3276 261.278 23.3832 260.088L28.8847 253.888C29.9279 252.712 29.8191 250.89 28.6434 249.847L22.4434 244.345C21.2678 243.302 19.4452 243.411 18.402 244.586L12.9005 250.786C11.8449 251.976 11.9521 253.772 13.1417 254.828ZM92.4795 296.534L99.0854 302.396C100.261 303.439 102.084 303.33 103.127 302.155L108.976 295.563C110.019 294.387 109.91 292.565 108.735 291.522L102.129 285.66C100.939 284.604 99.1307 284.726 98.0875 285.901L92.2383 292.493C91.1827 293.683 91.2899 295.479 92.4795 296.534Z" fill="url(#paint5_linear_1928_21143)"/>
<path d="M242.038 194.172L270.518 195.335L274.005 176.144L249.593 168.584L242.038 194.172Z" fill="#FFB8B8"/>
<path d="M271.68 189.52L244.363 184.867L243.391 186.871C238.163 197.667 235.076 209.374 234.301 221.346C233.641 231.452 233.253 242.125 233.241 253.314C233.221 270.65 234.105 286.736 235.503 301.372L250.495 301.279C250.062 285.738 250.652 270.187 252.26 254.724C253.408 243.698 255.003 233.398 256.848 223.894C260.271 237.846 265.101 251.414 271.265 264.389C276.505 275.476 287.281 288.29 292.521 299.377C297.889 298.732 303.258 298.088 308.626 297.443C304.396 286.248 296.848 269.9 292.617 258.704C286.568 242.697 283.835 231.844 277.786 215.837C278.131 212.828 278.198 209.793 277.987 206.772C277.705 201.736 276.658 195.693 273.598 191.664L271.68 189.52Z" fill="#2F2E41"/>
<path d="M128.51 153.668H123.86V168.207H128.51V153.668Z" fill="#3F3D56"/>
<path d="M191.406 202.819C213.147 202.819 230.771 185.185 230.771 163.431C230.771 141.678 213.147 124.043 191.406 124.043C169.665 124.043 152.041 141.678 152.041 163.431C152.041 185.185 169.665 202.819 191.406 202.819Z" fill="#35383F"/>
<path d="M191.407 201.11C211.241 201.11 227.32 185.022 227.32 165.177C227.32 145.331 211.241 129.243 191.407 129.243C171.573 129.243 155.494 145.331 155.494 165.177C155.494 185.022 171.573 201.11 191.407 201.11Z" fill="url(#paint6_linear_1928_21143)"/>
<path d="M188.272 179.26C188.194 179.26 188.116 179.258 188.037 179.255C187.348 179.221 186.675 179.039 186.063 178.721C185.451 178.403 184.915 177.956 184.492 177.411L178.832 170.13C178.054 169.127 177.705 167.856 177.862 166.596C178.019 165.336 178.67 164.189 179.671 163.408L179.874 163.25C180.877 162.472 182.147 162.123 183.407 162.28C184.667 162.437 185.812 163.088 186.593 164.089C186.847 164.416 187.169 164.685 187.537 164.876C187.904 165.067 188.308 165.176 188.722 165.196C189.136 165.22 189.55 165.153 189.935 164.998C190.32 164.844 190.666 164.606 190.948 164.302L202.441 152.164C203.315 151.243 204.518 150.707 205.787 150.672C207.055 150.638 208.286 151.108 209.208 151.98L209.395 152.157C210.316 153.031 210.852 154.236 210.887 155.505C210.921 156.775 210.451 158.006 209.579 158.929L191.745 177.764C191.299 178.237 190.76 178.614 190.163 178.871C189.565 179.128 188.922 179.261 188.272 179.26Z" fill="white"/>
<path opacity="0.16" d="M191.407 196.132C182.321 196.131 173.574 192.684 166.928 186.485C160.281 180.286 156.231 171.797 155.593 162.728C155.534 163.565 155.494 164.406 155.494 165.257C155.494 174.788 159.278 183.928 166.013 190.667C172.748 197.405 181.882 201.191 191.407 201.191C200.932 201.191 210.066 197.405 216.801 190.667C223.536 183.928 227.32 174.788 227.32 165.257C227.32 164.406 227.28 163.565 227.222 162.728C226.583 171.797 222.533 180.286 215.887 186.485C209.24 192.684 200.493 196.131 191.407 196.132Z" fill="#231F20"/>
<path d="M128.51 136.221H123.86V150.76H128.51V136.221Z" fill="#3F3D56"/>
<path d="M252.802 152.606L253.078 143.539L239.275 140.077L214.424 132.823C214.096 131.824 213.471 130.949 212.635 130.314C211.798 129.678 210.788 129.311 209.739 129.262C208.69 129.214 207.65 129.484 206.758 130.039C205.866 130.594 205.163 131.407 204.743 132.371C204.323 133.334 204.204 134.402 204.404 135.434C204.604 136.466 205.112 137.413 205.861 138.15C206.61 138.887 207.566 139.379 208.6 139.56C209.635 139.742 210.7 139.605 211.656 139.168L235.815 149.105L252.802 152.606Z" fill="#FFB8B8"/>
<path d="M243.907 152.543L251.672 141.461L251.866 141.487C251.987 141.503 264.164 143.133 272.147 145.512C273.044 145.75 273.879 146.181 274.592 146.774C275.306 147.368 275.882 148.11 276.279 148.95C276.85 150.122 277.065 151.436 276.9 152.73C276.735 154.024 276.195 155.241 275.348 156.232C274.486 157.304 273.334 158.105 272.029 158.538C270.724 158.972 269.322 159.021 267.991 158.678L243.907 152.543Z" fill="url(#paint7_linear_1928_21143)"/>
<path d="M275.9 181.176C277.264 183.727 274.024 189.013 271.68 189.52L244.666 180.782L258.268 141.345L265.111 142.589L276.056 144.434L279.939 147.965C280.916 148.855 281.615 150.01 281.949 151.29C282.283 152.57 282.239 153.919 281.821 155.174L275.9 181.176Z" fill="url(#paint8_linear_1928_21143)"/>
<path d="M257.304 165.935L249.662 161.055L239.621 171.145L220.668 188.788C219.643 188.559 218.572 188.647 217.598 189.041C216.624 189.434 215.792 190.114 215.213 190.991C214.634 191.868 214.334 192.9 214.353 193.951C214.373 195.002 214.711 196.022 215.323 196.877C215.934 197.731 216.791 198.38 217.779 198.737C218.767 199.094 219.84 199.142 220.856 198.875C221.873 198.609 222.784 198.04 223.47 197.243C224.156 196.447 224.584 195.461 224.698 194.417L245.599 178.742L257.304 165.935Z" fill="#FFB8B8"/>
<path d="M252.695 173.546L247.158 161.199L247.279 161.045C247.356 160.949 254.991 151.318 261.12 145.676C261.784 145.026 262.581 144.53 263.456 144.221C264.331 143.911 265.263 143.797 266.187 143.885C267.486 143.995 268.724 144.483 269.75 145.287C270.776 146.092 271.544 147.179 271.962 148.414C272.441 149.704 272.538 151.104 272.242 152.447C271.946 153.791 271.27 155.02 270.294 155.99L252.695 173.546Z" fill="url(#paint9_linear_1928_21143)"/>
<path d="M382.994 144.51C388.514 144.51 392.988 140.033 392.988 134.51C392.988 128.987 388.514 124.51 382.994 124.51C377.475 124.51 373 128.987 373 134.51C373 140.033 377.475 144.51 382.994 144.51Z" fill="url(#paint10_linear_1928_21143)"/>
<path d="M269.915 138.71C276.55 138.71 281.929 133.327 281.929 126.688C281.929 120.049 276.55 114.667 269.915 114.667C263.279 114.667 257.9 120.049 257.9 126.688C257.9 133.327 263.279 138.71 269.915 138.71Z" fill="#FFB8B8"/>
<path d="M279.617 144.107L279.571 144.096L262.112 139.726C261.507 139.575 260.946 139.284 260.474 138.876C260.002 138.469 259.631 137.956 259.393 137.38C259.154 136.803 259.054 136.179 259.1 135.556C259.147 134.934 259.338 134.331 259.659 133.796L260.236 132.836C260.799 131.899 261.118 130.835 261.165 129.742C261.212 128.649 260.985 127.562 260.504 126.58C259.677 124.976 258.254 123.76 256.541 123.193L256.483 123.166L256.117 122.937C255.756 122.767 255.435 122.523 255.175 122.222C254.914 121.92 254.719 121.568 254.602 121.186C254.481 120.791 254.444 120.375 254.494 119.965C254.544 119.555 254.679 119.159 254.891 118.805C256.432 116.225 258.739 114.191 261.49 112.984C264.966 111.487 268.88 111.369 272.44 112.655C272.677 112.437 272.964 112.281 273.276 112.202C273.588 112.122 273.915 112.122 274.227 112.2C283.269 114.391 284.013 120.464 282.227 130.212L284.341 138.744C284.491 139.346 284.507 139.974 284.39 140.584C284.272 141.193 284.024 141.77 283.661 142.273C283.298 142.777 282.83 143.195 282.29 143.5C281.749 143.804 281.149 143.987 280.53 144.035L279.617 144.107ZM272.343 112.751L272.342 112.752L272.343 112.751ZM272.561 112.697L272.563 112.698L272.561 112.697Z" fill="#2F2E41"/>
<path d="M128.51 108.307H123.86V133.314H128.51V108.307Z" fill="#3F3D56"/>
<path d="M243.914 93.3237H217.944V94.4862H243.914V93.3237Z" fill="#35383F"/>
<path d="M204.392 93.3237H178.422V94.4862H204.392V93.3237Z" fill="#35383F"/>
<path d="M164.869 93.3237H138.899V94.4862H164.869V93.3237Z" fill="#35383F"/>
<path d="M168.614 78.6471C169.898 78.6471 170.939 77.6056 170.939 76.3209C170.939 75.0361 169.898 73.9946 168.614 73.9946C167.33 73.9946 166.289 75.0361 166.289 76.3209C166.289 77.6056 167.33 78.6471 168.614 78.6471Z" fill="white"/>
<path d="M38.4349 62.8654C38.8794 62.5115 39.0474 62.1403 39.2609 61.7358C41.4261 57.2858 44.4393 53.842 47.8961 51.7397C48.7395 59.394 54.0087 64.2008 57.9057 65.2341C58.0525 65.2875 58.2488 65.3422 58.4504 65.3822C64.0749 66.8769 68.8013 64.8036 70.5085 60.1041C70.93 58.9439 71.1726 57.6356 71.2575 56.1204C71.3677 54.2154 71.6584 48.702 62.5041 42.4173C66.0142 39.9853 70.646 38.6757 75.8896 38.7021C76.3689 38.7099 76.764 38.7205 77.2699 38.472C78.4111 37.939 78.9499 36.4557 78.4223 35.2999L75.3125 28.6675C74.7795 27.5263 73.4738 27.0021 72.3152 27.4457C72.6596 27.3214 72.8825 27.3027 72.8184 27.296C62.6088 27.2111 54.4443 31.4267 50.2416 38.8769C41.9252 39.5296 34.7422 44.933 30.2971 54.0573C30.2144 54.1935 30.1664 54.3257 30.113 54.4726C29.8409 55.2215 29.9506 56.1092 30.4862 56.7859L35.0441 62.498C35.9068 63.5096 37.41 63.6733 38.4349 62.8654ZM57.9394 53.6095C57.7415 52.324 57.6463 51.0759 57.63 50.0227C58.6499 50.3267 59.8542 50.7642 61.0344 51.3592C62.5044 52.0262 63.4957 54.5142 62.9142 56.115C62.7701 56.5115 62.5393 56.8266 62.2216 57.0603C61.601 57.5331 60.7975 57.6401 60.1032 57.3547C59.0178 56.9105 58.2524 55.5851 57.9394 53.6095Z" fill="url(#paint11_linear_1928_21143)"/>
<path d="M328.691 65.5214L322.491 60.0199C321.316 58.9767 319.505 59.0715 318.45 60.2611L312.948 66.4612C311.905 67.6368 312.014 69.4594 313.19 70.5026L319.39 76.0041C320.565 77.0473 322.388 76.9385 323.431 75.7628L328.933 69.5628C329.988 68.3732 329.881 66.577 328.691 65.5214ZM249.353 23.8147L242.748 17.953C241.572 16.9098 239.749 17.0186 238.706 18.1943L232.857 24.7862C231.814 25.9618 231.923 27.7844 233.098 28.8276L239.704 34.6892C240.894 35.7448 242.702 35.6236 243.746 34.448L249.595 27.8561C250.65 26.6664 250.543 24.8703 249.353 23.8147Z" fill="url(#paint12_linear_1928_21143)"/>
<defs>
<linearGradient id="paint0_linear_1928_21143" x1="347.058" y1="305.573" x2="335.089" y2="302.105" gradientUnits="userSpaceOnUse">
<stop stop-color="#FB9400"/>
<stop offset="1" stop-color="#FFAB38"/>
</linearGradient>
<linearGradient id="paint1_linear_1928_21143" x1="379.555" y1="268.26" x2="336.387" y2="261.591" gradientUnits="userSpaceOnUse">
<stop stop-color="#12D18E"/>
<stop offset="1" stop-color="#71E3BB"/>
</linearGradient>
<linearGradient id="paint2_linear_1928_21143" x1="378.604" y1="274.944" x2="308.613" y2="243.938" gradientUnits="userSpaceOnUse">
<stop stop-color="#12D18E"/>
<stop offset="1" stop-color="#71E3BB"/>
</linearGradient>
<linearGradient id="paint3_linear_1928_21143" x1="57.9349" y1="185.222" x2="-4.80795" y2="167.493" gradientUnits="userSpaceOnUse">
<stop stop-color="#12D18E"/>
<stop offset="1" stop-color="#71E3BB"/>
</linearGradient>
<linearGradient id="paint4_linear_1928_21143" x1="76.4742" y1="195.59" x2="9.30868" y2="154.311" gradientUnits="userSpaceOnUse">
<stop stop-color="#12D18E"/>
<stop offset="1" stop-color="#71E3BB"/>
</linearGradient>
<linearGradient id="paint5_linear_1928_21143" x1="34.8941" y1="226" x2="50.984" y2="326.134" gradientUnits="userSpaceOnUse">
<stop stop-color="#6949FF"/>
<stop offset="1" stop-color="#876DFF"/>
</linearGradient>
<linearGradient id="paint6_linear_1928_21143" x1="227.32" y1="201.11" x2="141.846" y2="176.342" gradientUnits="userSpaceOnUse">
<stop stop-color="#12D18E"/>
<stop offset="1" stop-color="#71E3BB"/>
</linearGradient>
<linearGradient id="paint7_linear_1928_21143" x1="276.954" y1="158.904" x2="244.207" y2="140.915" gradientUnits="userSpaceOnUse">
<stop stop-color="#12D18E"/>
<stop offset="1" stop-color="#71E3BB"/>
</linearGradient>
<linearGradient id="paint8_linear_1928_21143" x1="282.171" y1="189.52" x2="236.137" y2="179.129" gradientUnits="userSpaceOnUse">
<stop stop-color="#12D18E"/>
<stop offset="1" stop-color="#71E3BB"/>
</linearGradient>
<linearGradient id="paint9_linear_1928_21143" x1="272.41" y1="173.546" x2="241.704" y2="165.974" gradientUnits="userSpaceOnUse">
<stop stop-color="#12D18E"/>
<stop offset="1" stop-color="#71E3BB"/>
</linearGradient>
<linearGradient id="paint10_linear_1928_21143" x1="392.988" y1="144.51" x2="369.202" y2="137.617" gradientUnits="userSpaceOnUse">
<stop stop-color="#FF5A5F"/>
<stop offset="1" stop-color="#FF8A9B"/>
</linearGradient>
<linearGradient id="paint11_linear_1928_21143" x1="28.0005" y1="60.2877" x2="63.558" y2="15.8544" gradientUnits="userSpaceOnUse">
<stop stop-color="#FB9400"/>
<stop offset="1" stop-color="#FFAB38"/>
</linearGradient>
<linearGradient id="paint12_linear_1928_21143" x1="306.939" y1="94.349" x2="290.849" y2="-5.78438" gradientUnits="userSpaceOnUse">
<stop stop-color="#246BFD"/>
<stop offset="1" stop-color="#5089FD"/>
</linearGradient>
</defs>
</svg>
